<svg width="19" height="17" viewBox="0 0 19 17" fill="none" xmlns="http://www.w3.org/2000/svg">
<g clip-path="url(#clip0_1151_671)">
<path d="M11.3519 0.0282289C11.8068 0.025818 12.2616 0.023407 12.7165 0.0209961C12.7165 2.2945 12.7157 4.56721 12.7157 6.84071C11.6838 6.90179 11.6726 6.90179 11.6886 5.89804C11.6975 5.35638 11.6653 4.83482 11.3398 4.37514C11.3439 2.92617 11.3479 1.4772 11.3519 0.0282289Z" fill="#FD6087"/>
<path d="M5.56562 6.84071C5.23533 6.84393 4.90503 6.83669 4.57553 6.85437C4.32641 6.86804 4.25568 6.76276 4.26211 6.5289C4.27417 6.08047 4.26372 5.63123 4.26211 5.18199C4.37141 5.01483 4.36177 4.82678 4.36177 4.63873C4.36096 3.09975 4.36177 1.55997 4.36177 0.0209961C4.76359 0.0209961 5.1646 0.0209961 5.56643 0.0217997C5.56643 2.2937 5.56643 4.56721 5.56562 6.84071Z" fill="#FE8B8A"/>
<path d="M5.56641 6.84071C5.56641 4.56721 5.56721 2.2945 5.56721 0.0209961C5.96903 0.0209961 6.37005 0.0209961 6.77187 0.0209961C6.77187 2.2945 6.77187 4.56721 6.77107 6.84071C6.37005 6.84071 5.96823 6.84071 5.56641 6.84071Z" fill="#FD8389"/>
<path d="M12.7148 6.84071C12.7148 4.56721 12.7156 2.2945 12.7156 0.0209961C13.0901 0.0209961 13.4654 0.0209961 13.8399 0.0209961C13.8399 2.2945 13.8399 4.56721 13.8391 6.84071C13.4646 6.84071 13.0901 6.84071 12.7148 6.84071Z" fill="#FD5986"/>
<path d="M14.4844 7.52927C15.0976 7.4481 15.6979 7.49953 16.2765 7.72696C16.5232 7.82421 16.6912 8.01467 16.8222 8.23567C17.1284 8.75402 17.1943 9.31577 17.0713 9.89519C16.9789 10.3316 16.6831 10.5936 16.2403 10.637C15.6561 10.6932 15.0694 10.694 14.4844 10.6418C14.4844 9.60427 14.4844 8.56677 14.4844 7.52927Z" fill="#FC4C86"/>
<path d="M7.66016 7.5263C8.31995 7.49898 8.94277 7.55604 9.32691 8.211C9.42817 8.38298 9.53666 8.3637 9.65399 8.19413C9.79865 7.98598 9.97545 7.80195 10.2246 7.71033C10.2254 8.67953 10.2254 9.64792 10.2262 10.6171C10.0309 10.6324 9.84607 10.5785 9.71507 10.4451C9.53586 10.2627 9.40326 10.2635 9.22244 10.4459C8.95402 10.716 8.58997 10.6661 8.25164 10.675C8.05475 10.6806 7.85705 10.6557 7.66016 10.6444C7.66016 9.60452 7.66016 8.56541 7.66016 7.5263Z" fill="#FD758A"/>
<path d="M16.6533 4.41429C16.9844 4.42232 17.3131 4.3291 17.6466 4.4183C18.1882 4.56296 18.4928 4.92299 18.4968 5.48152C18.504 6.45634 18.5032 7.43116 18.4968 8.40598C18.4936 8.92513 18.2501 9.24981 17.7719 9.38723C17.7687 8.45741 17.424 7.69878 16.6484 7.16435C16.65 6.2474 16.6517 5.33044 16.6533 4.41429Z" fill="#FC4085"/>
<path d="M13.8398 6.84071C13.8398 4.56721 13.8398 2.2945 13.8406 0.0209961C14.1886 0.0209961 14.5366 0.0209961 14.8846 0.0209961C14.8846 1.29879 14.8886 2.57739 14.8806 3.85518C14.879 4.07779 14.9135 4.27548 15.0558 4.44827C14.6989 5.03653 14.7423 5.6907 14.7455 6.33844C14.7488 6.85598 14.7455 6.85759 14.2368 6.85518C14.1042 6.85518 13.9724 6.84634 13.8398 6.84071Z" fill="#FC5286"/>
<path d="M6.76953 6.84086C6.76953 4.56735 6.76953 2.29465 6.77033 0.0211389C7.14644 0.0251571 7.52817 -0.0608327 7.89463 0.0910559C7.89463 1.24669 7.89624 2.40314 7.89302 3.55878C7.89222 3.73397 7.88097 3.90675 8.05215 4.02007C7.51129 4.44841 7.26297 5.00212 7.31922 5.69566C7.3369 5.90702 7.32163 6.12159 7.32163 6.33456C7.32163 6.86496 7.32163 6.86496 6.76953 6.84086Z" fill="#FD7D8A"/>
<path d="M6.76812 16.5443C6.01833 16.5443 5.26933 16.5443 4.51953 16.5435C4.54605 16.3378 4.57338 16.1329 4.5999 15.9272C4.83295 15.932 4.83536 15.7793 4.83456 15.6057C4.82974 14.9395 4.8434 14.2733 4.82733 13.6078C4.8209 13.3475 4.89965 13.2518 5.16486 13.2639C5.55061 13.2824 5.93796 13.284 6.32291 13.2623C6.61463 13.2454 6.72392 13.3314 6.71348 13.6392C6.69097 14.2781 6.70383 14.9178 6.70946 15.5567C6.71026 15.6909 6.64597 15.8629 6.84849 15.9263C6.77857 16.1273 6.75125 16.333 6.76812 16.5443Z" fill="#FD868A"/>
<path d="M15.0542 4.44883C14.9127 4.27525 14.8774 4.07835 14.879 3.85574C14.887 2.57795 14.883 1.29935 14.883 0.0215621C15.8755 0.012722 16.6582 0.759307 16.6558 1.74779C16.6542 2.33525 16.5939 2.92271 16.569 3.51098C16.5618 3.67412 16.5007 3.75368 16.3336 3.76493C15.8064 3.8011 15.3628 4.0012 15.0542 4.44883Z" fill="#FC4C86"/>
<path d="M12.1566 15.9288C12.3615 15.8629 12.2892 15.6886 12.29 15.556C12.2964 14.9002 12.3012 14.2452 12.2884 13.5894C12.2836 13.3459 12.3631 13.2575 12.6098 13.2672C13.0109 13.2833 13.4135 13.2865 13.8129 13.2648C14.0885 13.2503 14.1882 13.3323 14.1794 13.62C14.1593 14.2613 14.1705 14.9042 14.1753 15.5463C14.1761 15.6741 14.1279 15.8163 14.2428 15.9256C14.1737 16.1257 14.1448 16.3315 14.1625 16.5436C13.4665 16.5436 12.7706 16.5444 12.0746 16.5444C12.036 16.3299 12.1453 16.1354 12.1566 15.9288Z" fill="#FD5986"/>
<path d="M1.87196 7.56397C1.49104 8.04616 1.23789 8.57897 1.23387 9.20662C1.23226 9.44209 1.11252 9.40512 0.98233 9.31833C0.685785 9.12143 0.510591 8.84337 0.50818 8.48495C0.501751 7.4587 0.492107 6.43164 0.511395 5.40539C0.523449 4.75604 1.01206 4.39842 1.78999 4.42253C1.78999 4.94169 1.77874 5.46084 1.79321 5.97919C1.80767 6.50718 1.71847 7.04241 1.87196 7.56397Z" fill="#FEA28D"/>
<path d="M11.3506 0.0283203C11.3466 1.47729 11.3426 2.92626 11.3386 4.37523C10.9938 4.04654 10.6193 3.77892 10.117 3.76848C9.99972 3.76606 9.91131 3.73874 9.90247 3.59409C9.86068 2.91742 9.74416 2.24155 9.81568 1.56408C9.90328 0.724275 10.5028 0.146456 11.3506 0.0283203Z" fill="#FD6988"/>
<path d="M14.484 7.52921C14.484 8.56672 14.484 9.60422 14.484 10.6409C13.9752 10.6948 13.4657 10.6891 12.957 10.6425C12.957 9.60422 12.957 8.56591 12.957 7.5276C13.4657 7.48099 13.9752 7.47537 14.484 7.52921Z" fill="#FD5986"/>
<path d="M12.9581 7.52845C12.9581 8.56675 12.9581 9.60506 12.9581 10.6434C12.4502 10.6972 11.9423 10.6876 11.4344 10.6474C11.4344 9.60587 11.4344 8.56354 11.4336 7.52202C11.9423 7.48826 12.4502 7.473 12.9581 7.52845Z" fill="#FD6087"/>
<path d="M3.32031 7.55591C3.82741 7.43939 4.33772 7.48921 4.84804 7.52296C4.84804 8.56449 4.84804 9.60681 4.84804 10.6491C4.34014 10.7006 3.83143 10.6949 3.32353 10.6515C3.32192 9.61887 3.32112 8.58779 3.32031 7.55591Z" fill="#FE928C"/>
<path d="M4.36108 0.0199073C4.36108 1.55888 4.36028 3.09866 4.36108 4.63764C4.36108 4.82569 4.37073 5.01375 4.26143 5.1809C4.08383 4.61434 3.77442 4.15063 3.23438 3.86775C3.23518 2.6647 3.23598 1.46164 3.23598 0.258589C3.57994 0.0303547 3.95926 -0.026704 4.36108 0.0199073Z" fill="#FE928C"/>
<path d="M1.86893 7.56412C1.71543 7.04255 1.80464 6.50733 1.79017 5.97933C1.77571 5.46098 1.78696 4.94183 1.78696 4.42268C2.15905 4.28847 2.53595 4.36803 2.89197 4.45723C3.20941 4.53599 3.44729 4.77146 3.54533 5.10738C3.61284 5.33963 3.62971 5.57831 3.62248 5.82021C3.61364 6.1272 3.68838 6.45991 3.59274 6.73476C3.47702 7.06907 3.07279 6.86495 2.8108 6.98067C2.46443 7.13256 2.1494 7.31499 1.86893 7.56412Z" fill="#FE9A8D"/>
<path d="M7.65669 7.52601C7.65669 8.56512 7.65669 9.60504 7.65669 10.6441C7.17531 10.6988 6.69312 10.6916 6.21094 10.6458C6.21094 9.60423 6.21094 8.56271 6.21094 7.52039C6.69232 7.48101 7.17451 7.46976 7.65669 7.52601Z" fill="#FD7D8A"/>
<path d="M6.21546 7.52045C6.21546 8.56197 6.21546 9.60429 6.21546 10.6458C5.75979 10.6989 5.30413 10.6924 4.84766 10.6482C4.84766 9.6059 4.84766 8.56358 4.84766 7.52205C5.30332 7.47705 5.75899 7.47625 6.21546 7.52045Z" fill="#FD868A"/>
<path d="M9.34558 4.39181C9.62605 4.34199 9.90411 4.3661 10.1806 4.42235C10.7182 4.53165 11.0188 4.88445 11.0389 5.4261C11.0413 5.4928 11.0413 5.55951 11.0405 5.62701C11.0373 6.00151 11.1514 6.43709 10.9971 6.73283C10.8347 7.04544 10.3212 6.91766 9.98207 7.06955C9.84866 7.12983 9.7032 7.19251 9.6148 7.28413C9.47416 7.43119 9.41791 7.34842 9.33594 7.25118C9.33996 6.29806 9.34317 5.34493 9.34558 4.39181Z" fill="#FD6988"/>
<path d="M8.05384 4.01983C7.88266 3.90652 7.89471 3.73373 7.89471 3.55854C7.89713 2.4029 7.89632 1.24646 7.89632 0.0908203C8.62764 0.248334 9.29064 1.08493 9.23198 1.8516C9.19019 2.39728 9.13956 2.94134 9.11223 3.48782C9.10179 3.68873 9.04071 3.78115 8.83257 3.77472C8.54727 3.76508 8.2893 3.86071 8.05384 4.01983Z" fill="#FD758A"/>
<path d="M11.4345 7.52151C11.4345 8.56303 11.4346 9.60536 11.4354 10.6469C11.0303 10.683 10.6253 10.7337 10.2243 10.6171C10.2235 9.64795 10.2235 8.67956 10.2227 7.71037C10.602 7.48936 11.0118 7.46284 11.4345 7.52151Z" fill="#FC708F"/>
<path d="M3.3189 7.55566C3.3197 8.58754 3.32051 9.61862 3.32211 10.6505C2.32238 10.7662 1.87957 10.3652 1.88681 9.3502C1.89324 8.31189 2.43811 7.6296 3.3189 7.55566Z" fill="#FE9A8D"/>
<path d="M9.34559 4.39216C9.34238 5.34528 9.33916 6.2984 9.33675 7.25152C8.97833 7.07954 8.6207 6.90193 8.21406 6.87541C8.00752 6.86175 7.95529 6.74924 7.96332 6.55878C7.97538 6.2542 7.98663 5.9464 7.96252 5.64343C7.89984 4.85264 8.37479 4.32385 9.34559 4.39216Z" fill="#FD758A"/>
<path d="M16.6533 4.41424C16.6517 5.3312 16.6501 6.24735 16.6485 7.16431C16.3142 7.03171 15.9847 6.88143 15.6134 6.88304C15.4415 6.88384 15.3844 6.78981 15.3868 6.62748C15.394 6.2136 15.3659 5.79651 15.4005 5.38505C15.4559 4.71963 15.9646 4.34111 16.6533 4.41424Z" fill="#FC4C86"/>
<path d="M6.53125 11.3304C7.26337 11.2846 7.9987 11.3674 8.73002 11.2798C8.93495 11.2549 8.93093 11.3939 8.93414 11.5353C8.94781 12.118 8.51545 12.6018 7.932 12.6211C7.46589 12.6363 6.99817 12.617 6.53205 12.6138C6.53205 12.1855 6.53205 11.7579 6.53125 11.3304Z" fill="#FD7D8A"/>
<path d="M3.23539 0.259766C3.23459 1.46282 3.23379 2.66587 3.23379 3.86893C2.98948 3.81749 2.69293 3.83357 2.51533 3.69614C2.31522 3.54184 2.4639 3.21958 2.41246 2.97608C2.32085 2.54292 2.33612 2.10252 2.35139 1.66614C2.37308 1.03608 2.66641 0.55631 3.23539 0.259766Z" fill="#FE9A8D"/>
<path d="M4.84584 12.6141C4.44723 12.6173 4.04862 12.6318 3.65002 12.6221C3.07059 12.6077 2.60769 12.103 2.61734 11.5203C2.61975 11.3596 2.66555 11.2889 2.85361 11.2953C3.51742 11.3194 4.18122 11.3202 4.84503 11.3307C4.84503 11.7582 4.84503 12.1858 4.84584 12.6141Z" fill="#FE928C"/>
<path d="M14.2422 11.3291C14.869 11.3226 15.4967 11.321 16.1235 11.3049C16.3132 11.3001 16.3871 11.3612 16.3879 11.5533C16.3919 12.1094 15.962 12.5964 15.4026 12.6205C15.0169 12.6374 14.6295 12.6165 14.2422 12.6133C14.2422 12.1857 14.2422 11.7574 14.2422 11.3291Z" fill="#FC5286"/>
<path d="M4.84846 12.614C4.84846 12.1864 4.84766 11.7589 4.84766 11.3306C5.41021 11.3306 5.97195 11.3306 6.5345 11.3306C6.5345 11.7581 6.53531 12.1856 6.53531 12.614C5.97276 12.6132 5.41021 12.614 4.84846 12.614Z" fill="#FD868A"/>
<path d="M11.7491 12.614C11.5096 12.6172 11.2693 12.6333 11.0306 12.6204C10.6883 12.6019 10.4214 12.4292 10.243 12.1423C10.0992 11.9116 9.98909 11.6295 10.1 11.3828C10.2037 11.1538 10.4833 11.2944 10.6794 11.292C11.0354 11.2888 11.3971 11.2317 11.7507 11.3282C11.7507 11.7573 11.7499 12.1857 11.7491 12.614Z" fill="#FD6988"/>
<path d="M14.2421 11.3291C14.2421 11.7574 14.2421 12.185 14.2429 12.6133C13.8145 12.6133 13.3862 12.6133 12.9578 12.6133C12.9578 12.1858 12.9578 11.7574 12.957 11.3299C13.3854 11.3299 13.8137 11.3299 14.2421 11.3291Z" fill="#FD5986"/>
<path d="M15.9303 15.9307C16.6367 15.9259 17.3431 15.921 18.0495 15.9146C18.2906 15.9122 18.4963 15.9805 18.4843 16.2586C18.473 16.5109 18.2721 16.5623 18.0495 16.5591C17.3431 16.5503 16.6367 16.5479 15.9303 16.5423C15.9295 16.3389 15.9295 16.1348 15.9303 15.9307Z" fill="#FC4085"/>
<path d="M12.9539 11.3299C12.9539 11.7574 12.9539 12.1858 12.9547 12.6133C12.5528 12.6133 12.1518 12.6133 11.75 12.6141C11.7508 12.1858 11.7508 11.7574 11.7516 11.3291C12.1518 11.3291 12.5528 11.3299 12.9539 11.3299Z" fill="#FD6087"/>
<path d="M4.60182 15.9276C4.5753 16.1333 4.54798 16.3382 4.52146 16.544C3.8255 16.544 3.12955 16.544 2.43359 16.5448C2.46011 16.339 2.48744 16.1325 2.51396 15.9268C3.20911 15.9268 3.90587 15.9276 4.60182 15.9276Z" fill="#FE928C"/>
<path d="M2.51318 15.9268C2.48666 16.1325 2.45934 16.3391 2.43282 16.5448C1.92572 16.5488 1.41942 16.5512 0.912325 16.5568C0.700164 16.5593 0.526577 16.4853 0.516129 16.2571C0.504878 16.0039 0.683287 15.9147 0.913129 15.9155C1.44675 15.9171 1.98037 15.9228 2.51318 15.9268Z" fill="#FEA28D"/>
<path d="M12.1545 15.929C12.1433 16.1364 12.034 16.3308 12.0741 16.5446C11.4585 16.5446 10.8422 16.5454 10.2266 16.5454C10.2266 16.3397 10.2266 16.134 10.2266 15.9282C10.8687 15.9282 11.5116 15.9282 12.1545 15.929Z" fill="#FD6988"/>
<path d="M6.77475 16.5444C6.75707 16.3331 6.7844 16.1274 6.85512 15.9272C7.41767 15.9272 7.97941 15.9272 8.54196 15.9272C8.54196 16.133 8.54196 16.3387 8.54196 16.5444C7.95289 16.5444 7.36382 16.5444 6.77475 16.5444Z" fill="#FD7D8A"/>
<path d="M15.9246 15.9306C15.9246 16.1347 15.9246 16.3389 15.9246 16.543C15.3356 16.543 14.7465 16.543 14.1574 16.5438C14.1397 16.3324 14.1687 16.1267 14.2378 15.9258C14.7995 15.9274 15.3621 15.929 15.9246 15.9306Z" fill="#FC4C86"/>
<path d="M8.53906 16.5444C8.53906 16.3387 8.53906 16.133 8.53906 15.9272C9.10161 15.9272 9.66416 15.9272 10.2267 15.9272C10.2267 16.133 10.2267 16.3387 10.2267 16.5444C9.66336 16.5444 9.10161 16.5444 8.53906 16.5444Z" fill="#FD758A"/>
</g>
<defs>
<clipPath id="clip0_1151_671">
<rect width="18" height="16.5599" fill="white" transform="translate(0.5)"/>
</clipPath>
</defs>
</svg>
