<svg width="29" height="25" viewBox="0 0 29 25" fill="none" xmlns="http://www.w3.org/2000/svg">
<g id="Frame" clip-path="url(#clip0_1093_38529)">
<path id="Vector" d="M18.5669 15.1638C17.9774 14.7089 17.7423 14.117 17.747 13.368C17.7659 9.84615 17.7541 6.32311 17.7564 2.80126C17.7576 1.39653 18.4476 0.714844 19.8641 0.713663C21.4177 0.7113 22.9725 0.710118 24.5272 0.713663C25.7985 0.717207 26.5333 1.40953 26.538 2.66067C26.5498 6.28176 26.6207 9.90522 26.5109 13.5216C26.4494 15.5359 26.9031 17.4581 27.1335 19.4217C27.1689 19.7229 27.2268 20.0159 27.6521 20.0975C27.9676 20.1577 28.7048 21.6286 28.667 21.9476C28.6386 22.1886 28.485 22.3339 28.2948 22.4497C27.1985 23.1148 26.0395 23.6418 24.8226 24.0435C24.4067 24.1805 24.1409 24.0328 23.9909 23.63C23.8396 23.2259 23.679 22.8242 23.5171 22.4237C23.4639 22.2926 23.3895 22.1378 23.4699 22.0279C23.9294 21.4029 23.432 21.045 23.0764 20.6941C22.0758 19.7052 20.9215 18.9255 19.655 18.3123C19.0182 18.004 18.3861 17.6873 17.8061 17.2774C17.5154 17.0718 17.2437 16.8462 17.0476 16.5437C16.8503 16.2413 16.803 15.9223 16.985 15.5974C17.1716 15.263 17.4823 15.1673 17.8403 15.2028C18.0353 15.2217 18.2278 15.2678 18.4216 15.302C18.5161 15.3292 18.6094 15.3564 18.7028 15.3835C19.1812 15.6446 19.6727 15.8727 20.2162 15.9565C20.4584 15.9943 20.6675 15.8975 20.6958 15.6458C20.7301 15.3386 20.4584 15.4568 20.319 15.4568C19.772 15.458 19.2285 15.4556 18.7075 15.2536C18.6602 15.2229 18.613 15.1933 18.5669 15.1638ZM21.5902 9.38894C21.9836 9.13375 22.3593 9.15501 22.7185 9.45982C22.7704 9.69729 22.8224 9.93594 22.8744 10.1734C22.878 10.2207 22.8827 10.2691 22.8862 10.3164C22.9087 10.9839 22.9536 11.6514 22.9453 12.3189C22.9406 12.7312 23.0374 12.9344 23.4994 12.8848C23.7817 12.8553 24.0109 13.0396 24.2248 13.2274C24.4918 13.4613 24.8734 13.4235 25.164 13.4153C25.3861 13.4082 25.2715 12.9781 25.2727 12.7395C25.281 9.59333 25.2786 6.44717 25.2774 3.301C25.2774 3.10489 25.2822 2.90641 25.2562 2.71265C25.2018 2.30033 24.9372 2.06995 24.5414 2.06286C24.1953 2.05695 23.7605 1.85257 23.6199 2.47164C23.5289 2.87451 23.1532 3.09425 22.7208 3.1167C22.3676 3.13442 22.0131 3.13206 21.6599 3.12733C21.1342 3.11906 20.7443 2.88987 20.5883 2.37358C20.5115 2.12075 20.391 2.04514 20.1311 2.03923C19.2982 2.02269 19.0407 2.25662 19.0395 3.10607C19.0371 6.35029 19.0383 9.59569 19.0383 12.8399C19.0383 13.9859 19.186 14.1111 20.3331 14.1017C20.7112 14.0993 20.7963 13.967 20.788 13.6208C20.7608 12.4796 20.84 11.3442 21.0822 10.2242L21.0692 10.2301C21.2417 9.95012 21.4165 9.67012 21.5902 9.38894ZM22.4184 11.102C22.403 10.7689 22.3912 10.4345 22.3699 10.1013C22.3605 9.94539 22.3569 9.76345 22.1703 9.71501C21.9588 9.65949 21.8501 9.81898 21.7603 9.97611C21.5607 10.3223 21.4862 10.7062 21.4165 11.0949C21.1566 12.5375 21.361 14.0001 21.2086 15.4473C21.1259 16.2271 20.6828 16.5862 19.9267 16.3842C19.4553 16.259 19.0147 16.0239 18.548 15.8762C18.1782 15.7592 17.6879 15.4202 17.4386 15.8821C17.1953 16.3322 17.7163 16.5992 18.0293 16.8391C18.7193 17.3672 19.5392 17.6755 20.2894 18.0997C21.7284 18.9125 23.158 19.7525 24.0617 21.2139C24.2248 21.4786 24.4091 21.3994 24.6147 21.3226C25.2774 21.0721 25.9142 20.7685 26.5416 20.4413C26.7613 20.3267 26.8476 20.2227 26.7731 19.9427C26.5014 18.9172 26.3833 17.861 26.2521 16.8095C26.1281 15.8183 26.2131 14.7527 25.177 14.1289C24.9384 13.9847 24.7234 13.4767 24.4741 14.1383C24.3819 14.3829 24.1858 14.2919 24.083 14.1017C24.0015 13.9493 23.9779 13.7638 23.8881 13.6173C23.7369 13.3716 23.4722 13.2735 23.2217 13.3751C22.9394 13.4897 23.2028 13.7094 23.2099 13.8796C23.2194 14.0662 23.3612 14.2978 23.0729 14.3604C22.8496 14.4089 22.7905 14.1856 22.7397 14.0213C22.4479 13.0679 22.4255 12.0862 22.4184 11.102ZM26.0442 8.06691C26.0442 6.27704 26.0466 4.48716 26.043 2.69847C26.0407 1.66708 25.561 1.19333 24.519 1.19096C22.9654 1.18742 21.4118 1.1886 19.857 1.18978C18.7323 1.19096 18.2337 1.68244 18.2337 2.79535C18.2326 6.29594 18.2326 9.79653 18.2337 13.2971C18.2337 14.5175 18.7181 15.0031 19.961 14.9807C20.2115 14.9759 20.684 15.1768 20.6817 14.768C20.6793 14.3699 20.2091 14.5683 19.9539 14.5601C18.9603 14.527 18.5775 14.156 18.5775 13.1435C18.5752 9.76109 18.5752 6.37864 18.5775 2.99501C18.5787 2.02151 19.0407 1.5643 20.0319 1.55839C21.3492 1.5513 22.6677 1.55603 23.985 1.55721C25.3696 1.55721 25.7748 1.96008 25.7748 3.34708C25.776 6.51333 25.776 9.67957 25.7736 12.8458C25.7736 13.0608 25.7429 13.2759 25.7311 13.4909C25.7205 13.6846 25.5315 14.0001 25.8552 14.0154C26.16 14.0308 26.0371 13.6799 26.0383 13.4944C26.0489 11.6856 26.0442 9.87687 26.0442 8.06691ZM24.7257 23.5673C25.548 23.2566 26.3667 22.94 27.1524 22.5383C28.3007 21.95 28.2936 21.9641 27.6651 20.8477C27.4915 20.5405 27.3166 20.5216 27.0602 20.6929C26.2072 21.2624 25.2562 21.6239 24.2969 21.957C23.998 22.061 23.985 22.2347 24.0511 22.4438C24.1504 22.7592 24.2921 23.0617 24.4268 23.3653C24.4788 23.4846 24.5367 23.63 24.7257 23.5673ZM21.9576 2.59096C22.3522 2.59096 22.5909 2.61577 22.8212 2.58269C22.9996 2.5567 23.1603 2.42438 23.1615 2.22944C23.1627 1.95181 22.9228 2.03214 22.7645 2.02387C22.5306 2.01088 22.2849 1.9778 22.0616 2.03096C21.7402 2.10657 21.1483 1.76041 21.1448 2.26016C21.1401 2.76227 21.7544 2.56025 21.9576 2.59096Z" fill="#D2D2D2"/>
<path id="Vector_2" d="M11.779 16.7186C11.7825 19.7797 9.26964 22.2856 6.21917 22.2631C3.14153 22.2419 0.660522 19.7561 0.664066 16.6986C0.667611 13.654 3.19352 11.1375 6.23807 11.147C9.30626 11.1553 11.7766 13.6398 11.779 16.7186ZM10.9591 14.9311C10.3967 13.4331 9.37124 12.4147 7.83656 11.9267C5.85765 11.2498 4.09141 11.6916 2.65242 13.1318C1.21343 14.572 0.764488 16.3359 1.44854 18.3159C1.92938 19.8258 2.92061 20.8513 4.39858 21.4125C6.19318 22.1686 8.34457 21.7386 9.77411 20.3386C11.2285 18.9149 11.6998 16.7624 10.9591 14.9311Z" fill="#C0C0C0"/>
<path id="Vector_3" d="M13.5675 7.71179C13.3017 7.68816 13.0347 7.6728 12.77 7.63854C12.6105 7.61728 12.444 7.56057 12.4841 7.34791C12.5148 7.18133 12.6602 7.15179 12.8055 7.16124C13.1386 7.18251 13.473 7.19314 13.8038 7.23685C14.144 7.28293 14.326 7.49795 14.3094 7.84647C14.2941 8.15955 14.2527 8.47145 14.2256 8.78453C14.2114 8.95466 14.17 9.11061 13.9633 9.10116C13.7471 9.09171 13.7518 8.91922 13.7435 8.755C13.7341 8.56951 13.8191 8.37812 13.7034 8.15483C12.9142 8.82352 12.1451 9.48276 11.3665 10.129C11.2188 10.2519 11.057 10.5354 10.8348 10.2897C10.6186 10.0498 10.8868 9.91162 11.0428 9.77812C11.7138 9.20276 12.3884 8.63331 13.0607 8.0615C13.2131 7.93036 13.3548 7.78031 13.5675 7.71179Z" fill="white"/>
<path id="Vector_4" d="M13.3446 14.433C13.6352 14.7461 13.9837 14.6079 14.2921 14.6823C14.461 14.7237 14.6843 14.7248 14.6642 14.9647C14.6442 15.1986 14.4374 15.1939 14.2543 15.1762C14.2153 15.1726 14.1763 15.1643 14.1373 15.1632C12.4845 15.1265 12.8342 14.7993 12.9133 13.5434C12.924 13.3709 12.9783 13.2173 13.1839 13.2386C13.3918 13.2599 13.3942 13.4324 13.3918 13.5966C13.3895 13.7726 13.3906 13.9475 13.3906 14.2216C14.1409 13.5871 14.8462 12.9893 15.5515 12.3915C15.6708 12.2899 15.7878 12.1848 15.9095 12.0867C16.0347 11.9851 16.1706 11.8752 16.3123 12.0501C16.4387 12.2072 16.3608 12.3395 16.2273 12.4529C15.8681 12.7566 15.5101 13.0626 15.151 13.3662C14.7918 13.671 14.435 13.9758 14.0735 14.2783C13.8727 14.4472 13.6872 14.7036 13.3446 14.433Z" fill="white"/>
<path id="Vector_5" d="M22.4144 11.1019C22.4215 12.0848 22.4439 13.0678 22.7346 14.0188C22.7854 14.1831 22.8433 14.4075 23.0677 14.3579C23.356 14.2953 23.2142 14.0649 23.2048 13.8771C23.1965 13.7069 22.9342 13.4872 23.2166 13.3726C23.467 13.271 23.7329 13.369 23.8829 13.6148C23.9727 13.7613 23.9963 13.9468 24.0778 14.0992C24.1806 14.2894 24.3756 14.3804 24.4689 14.1358C24.7182 13.4754 24.9332 13.9834 25.1719 14.1263C26.208 14.7501 26.1229 15.8158 26.247 16.807C26.3781 17.8585 26.4974 18.9135 26.768 19.9402C26.8424 20.2214 26.7562 20.3242 26.5364 20.4388C25.9091 20.766 25.2711 21.0696 24.6095 21.3201C24.4039 21.3981 24.2208 21.4761 24.0566 21.2114C23.1528 19.7488 21.7233 18.91 20.2843 18.0971C19.5329 17.673 18.7141 17.3647 18.0242 16.8366C17.7111 16.5967 17.1913 16.3297 17.4335 15.8796C17.6827 15.4177 18.173 15.7567 18.5428 15.8737C19.0095 16.0214 19.4502 16.2565 19.9216 16.3817C20.6777 16.5837 21.1207 16.2246 21.2034 15.4448C21.3558 13.9976 21.1514 12.5338 21.4114 11.0924C21.4811 10.7049 21.5567 10.3198 21.7551 9.9736C21.8461 9.81529 21.9536 9.65698 22.1651 9.71251C22.3518 9.76213 22.3553 9.94289 22.3648 10.0988C22.386 10.4344 22.399 10.7687 22.4144 11.1019Z" fill="#FC957A"/>
<path id="Vector_6" d="M26.0391 8.06725C26.0391 9.87603 26.0438 11.686 26.032 13.4948C26.0308 13.6802 26.1537 14.03 25.8489 14.0158C25.5252 14.0004 25.7142 13.685 25.7248 13.4912C25.7366 13.2762 25.7674 13.0612 25.7674 12.8462C25.7697 9.67991 25.7709 6.51367 25.7685 3.34742C25.7674 1.96042 25.3633 1.55755 23.9787 1.55755C22.6614 1.55755 21.3429 1.55282 20.0256 1.55873C19.0344 1.56346 18.5724 2.02185 18.5712 2.99535C18.5689 6.3778 18.5689 9.76025 18.5712 13.1439C18.5724 14.1552 18.9552 14.5262 19.9476 14.5604C20.2028 14.5687 20.6718 14.3702 20.6754 14.7684C20.6789 15.1783 20.2064 14.9775 19.9547 14.981C18.7118 15.0035 18.2274 14.5179 18.2274 13.2975C18.2263 9.79687 18.2263 6.29628 18.2274 2.79569C18.2274 1.68278 18.7272 1.1913 19.8507 1.19012C21.4043 1.18894 22.9579 1.18658 24.5127 1.1913C25.5559 1.19367 26.0344 1.66742 26.0367 2.69881C26.0426 4.48751 26.0391 6.27738 26.0391 8.06725Z" fill="white"/>
<path id="Vector_7" d="M24.724 23.5675C24.535 23.6301 24.4771 23.4848 24.4239 23.3643C24.2892 23.0607 24.1475 22.7582 24.0482 22.4428C23.9821 22.2348 23.9951 22.06 24.294 21.956C25.2533 21.624 26.2043 21.2625 27.0573 20.6919C27.3137 20.5206 27.4897 20.5383 27.6622 20.8466C28.2907 21.9631 28.2978 21.9489 27.1495 22.5373C26.365 22.939 25.5463 23.2568 24.724 23.5675Z" fill="white"/>
<path id="Vector_8" d="M21.0776 10.2243C20.7775 10.3177 20.6074 10.1381 20.4432 9.93252C19.7202 9.02873 19.8761 7.66417 20.7894 6.93286C21.7262 6.18147 23.0991 6.33151 23.8327 7.26366C24.5723 8.20527 24.4081 9.59463 23.4712 10.3059C23.2798 10.4512 23.0849 10.6189 22.8829 10.3165C22.8793 10.2692 22.8746 10.2208 22.8699 10.1735C22.9455 10.1109 23.0199 10.0471 23.0955 9.98451C23.8871 9.34181 24.0478 8.33759 23.4783 7.58501C22.9301 6.85843 21.8373 6.72257 21.1072 7.29084C20.3546 7.87565 20.2554 8.86214 20.8815 9.69978C21.0067 9.86636 21.1048 10.0188 21.0635 10.2314L21.0776 10.2243Z" fill="#FE546D"/>
<path id="Vector_9" d="M21.0629 10.2305C21.1055 10.0178 21.0062 9.86544 20.881 9.69885C20.2536 8.86122 20.3529 7.87472 21.1066 7.28991C21.8368 6.72282 22.9296 6.85869 23.4778 7.58409C24.046 8.33666 23.8866 9.34088 23.095 9.98358C23.0194 10.045 22.9438 10.1088 22.8693 10.1726C22.8174 9.93514 22.7654 9.69767 22.7134 9.45902L22.7228 9.44957C22.9154 9.42476 23.0914 9.40586 23.2001 9.18729C23.4081 8.76788 23.3112 8.1878 22.9367 7.83928C22.5645 7.49312 21.9478 7.43523 21.519 7.70577C21.0948 7.97278 20.8739 8.5375 21.0204 8.98054C21.0925 9.19911 21.1728 9.40468 21.4717 9.26763C21.5095 9.3078 21.5485 9.34679 21.5863 9.38696C21.4114 9.6705 21.2366 9.9505 21.0629 10.2305Z" fill="#FDF6F7"/>
<path id="Vector_10" d="M22.7144 9.46022C22.3564 9.15541 21.9795 9.13414 21.5861 9.38933C21.5483 9.34916 21.5093 9.31017 21.4715 9.27001C21.5696 9.11878 21.5034 8.97347 21.4703 8.8187C21.4042 8.51507 21.533 8.27169 21.7834 8.11574C22.0351 7.95979 22.3092 7.96688 22.5537 8.15119C22.7959 8.33431 22.9046 8.59068 22.8006 8.87777C22.7309 9.07034 22.7168 9.25465 22.7227 9.44958L22.7144 9.46022Z" fill="#FDF6F7"/>
<path id="Vector_11" d="M21.9535 2.59124C21.7503 2.56171 21.1359 2.76255 21.1407 2.25926C21.1454 1.75951 21.7373 2.10567 22.0574 2.03006C22.2807 1.97808 22.5265 2.01116 22.7604 2.02297C22.9187 2.03124 23.1585 1.95091 23.1574 2.22854C23.1562 2.42466 22.9955 2.55698 22.8171 2.58179C22.5867 2.61605 22.3481 2.59124 21.9535 2.59124Z" fill="white"/>
<path id="Vector_12" d="M1.44713 18.3163C0.761901 16.3362 1.21203 14.5723 2.65102 13.1321C4.09 11.6908 5.85625 11.2501 7.83515 11.9271C7.61895 12.0429 7.37203 12.1279 7.3354 12.4245C5.65186 12.109 4.16916 12.4764 2.98654 13.7595C1.91971 14.9173 1.65507 16.2996 1.94215 17.8153C1.64089 17.8484 1.56764 18.1048 1.44713 18.3163Z" fill="#F6D245"/>
<path id="Vector_13" d="M10.9589 14.9316C11.6997 16.7629 11.2283 18.9154 9.77515 20.3391C8.34443 21.7402 6.19422 22.1691 4.39844 21.413C4.66544 21.335 4.92181 21.2417 5.03523 20.9522C8.30308 21.8159 11.3535 18.9509 10.4639 15.4857C10.777 15.4326 10.8243 15.1431 10.9589 14.9316Z" fill="#F7D345"/>
<path id="Vector_14" d="M5.03605 20.9507C4.92264 21.2413 4.66627 21.3335 4.39926 21.4114C2.92247 20.8503 1.93006 19.8259 1.44922 18.3149C1.56973 18.1034 1.64297 17.8459 1.94424 17.814C2.45935 19.3699 3.45648 20.4474 5.03605 20.9507Z" fill="#F7E28E"/>
<path id="Vector_15" d="M10.9594 14.9311C10.8247 15.1426 10.7775 15.4321 10.4644 15.4841C9.95163 13.9222 8.88125 12.931 7.33594 12.4241C7.37256 12.1276 7.61948 12.0425 7.83568 11.9268C9.37155 12.4147 10.397 13.4319 10.9594 14.9311Z" fill="#F7E28E"/>
<path id="Vector_16" d="M22.7242 9.45056C22.7183 9.25563 22.7325 9.07132 22.8022 8.87875C22.905 8.59166 22.7975 8.33647 22.5553 8.15217C22.3107 7.96668 22.0366 7.95959 21.785 8.11672C21.5345 8.27267 21.4057 8.51605 21.4719 8.81968C21.505 8.97326 21.5723 9.11976 21.4731 9.27098C21.1742 9.40803 21.0938 9.20128 21.0218 8.98389C20.8753 8.54086 21.0962 7.97613 21.5203 7.70913C21.9492 7.43858 22.5659 7.49647 22.9381 7.84263C23.3114 8.18997 23.4094 8.77124 23.2015 9.19065C23.0928 9.40685 22.9168 9.42575 22.7242 9.45056Z" fill="#FE546D"/>
<path id="Vector_17" d="M7.33614 12.4244C8.88146 12.9313 9.95066 13.9225 10.4646 15.4844C11.353 18.9495 8.30374 21.8145 5.03589 20.9509C3.45631 20.4476 2.458 19.3701 1.94408 17.8153C1.65699 16.2996 1.92045 14.9161 2.98847 13.7595C4.1699 12.4764 5.6526 12.109 7.33614 12.4244ZM10.1267 16.6953C10.1243 14.5416 8.36045 12.7718 6.2315 12.7848C4.08956 12.7978 2.32214 14.5569 2.30678 16.6918C2.29024 18.8503 4.08011 20.6248 6.25631 20.6082C8.43724 20.5905 10.1291 18.8798 10.1267 16.6953Z" fill="white"/>
<path id="Vector_18" d="M10.1259 16.695C10.1283 18.8795 8.43645 20.5902 6.25434 20.6067C4.07813 20.6233 2.28826 18.8487 2.3048 16.6903C2.32134 14.5554 4.08759 12.7963 6.22953 12.7833C8.35965 12.7714 10.1224 14.5412 10.1259 16.695ZM6.1929 19.0472C6.39138 19.0496 6.46227 18.9338 6.46581 18.7849C6.47054 18.5676 6.55206 18.4317 6.7529 18.323C7.1664 18.1021 7.42041 17.7606 7.29636 17.2668C7.16404 16.7446 6.78362 16.4859 6.26261 16.4623C5.93299 16.4469 5.66598 16.3725 5.61518 16.0086C5.57856 15.7439 5.7156 15.5384 5.98024 15.4828C6.30159 15.4155 6.60759 15.4391 6.79071 15.7865C6.87932 15.9542 6.88995 16.3098 7.19358 16.1362C7.50193 15.9601 7.28337 15.6801 7.16759 15.4687C7.09552 15.3375 6.97147 15.2135 6.83915 15.1414C6.6194 15.0221 6.44691 14.9039 6.46109 14.6168C6.46818 14.4692 6.37721 14.3428 6.21062 14.351C6.04522 14.3593 5.96607 14.494 5.98024 14.6393C6.00624 14.9063 5.85619 15.0079 5.64944 15.1201C5.2702 15.3233 5.06345 15.6624 5.14261 16.0948C5.22885 16.5639 5.53957 16.8486 6.01923 16.9277C6.1551 16.9502 6.29332 16.9537 6.42801 16.9774C6.70565 17.0258 6.83324 17.2125 6.82379 17.4783C6.81316 17.776 6.64421 17.9426 6.3394 17.9639C5.95543 17.9898 5.69316 17.8457 5.59746 17.4523C5.55847 17.2928 5.45096 17.216 5.29265 17.2609C5.1237 17.3082 5.10716 17.4535 5.13906 17.5941C5.16387 17.7075 5.20995 17.8185 5.2643 17.9213C5.47223 18.3159 6.09248 18.401 6.06294 18.9799C6.06176 19.0023 6.15864 19.0295 6.1929 19.0472Z" fill="#FBB231"/>
<path id="Vector_19" d="M6.19323 19.0477C6.15897 19.0311 6.06209 19.0028 6.06209 18.9803C6.09162 18.4002 5.47019 18.3152 5.26344 17.9218C5.20909 17.819 5.16302 17.7079 5.13821 17.5945C5.10749 17.4539 5.12285 17.3074 5.29179 17.2613C5.4501 17.2176 5.5588 17.2944 5.5966 17.4527C5.6923 17.8461 5.95458 17.9903 6.33854 17.9643C6.64335 17.943 6.81112 17.7764 6.82293 17.4787C6.83238 17.2129 6.70479 17.0262 6.42715 16.9778C6.29247 16.9542 6.15424 16.9506 6.01838 16.9282C5.53871 16.849 5.228 16.5643 5.14175 16.0953C5.06259 15.6629 5.26935 15.3238 5.64859 15.1206C5.85652 15.0095 6.00538 14.9067 5.97939 14.6397C5.96521 14.4944 6.04437 14.3585 6.20977 14.3515C6.37517 14.3432 6.46732 14.4696 6.46023 14.6173C6.44724 14.9044 6.61973 15.0225 6.83829 15.1418C6.96943 15.2139 7.09466 15.338 7.16673 15.4691C7.28251 15.6794 7.50108 15.9594 7.19272 16.1366C6.88791 16.3103 6.87846 15.9547 6.78985 15.7869C6.60673 15.4407 6.30074 15.4159 5.97939 15.4833C5.71475 15.5388 5.5777 15.7444 5.61432 16.009C5.66513 16.3729 5.93331 16.4473 6.26175 16.4627C6.78394 16.4863 7.16437 16.745 7.29551 17.2672C7.42074 17.7611 7.16555 18.1025 6.75205 18.3234C6.5512 18.431 6.4685 18.5668 6.46496 18.7854C6.46259 18.9342 6.39171 19.0488 6.19323 19.0477Z" fill="white"/>
</g>
<defs>
<clipPath id="clip0_1093_38529">
<rect width="28" height="23.3818" fill="white" transform="translate(0.664062 0.711426)"/>
</clipPath>
</defs>
</svg>
