<svg width="136" height="136" viewBox="0 0 136 136" fill="none" xmlns="http://www.w3.org/2000/svg">
<g id="Frame" clip-path="url(#clip0_1095_42553)">
<path id="Vector" d="M121.06 112.177C116.647 112.571 116.614 112.571 116.661 117.208C116.675 118.685 116.352 120.196 116.894 121.65C116.889 121.65 116.956 121.607 116.956 121.607C112.124 121.636 107.297 121.664 102.465 121.688H102.532C102.579 120.904 102.565 120.115 102.688 119.346C103.002 117.379 102.232 116.828 100.261 116.871C98.5122 116.909 97.7758 117.303 98.0656 119.108C98.1986 119.954 98.1749 120.828 98.2224 121.693H98.2889C96.6783 121.688 95.0724 121.679 93.4619 121.674L93.5284 121.693C93.2528 116.947 93.2528 116.947 88.4258 116.947C87.7179 116.947 87.0005 117.032 86.3068 116.932C84.5537 116.676 83.7793 117.322 84.1166 119.108C84.511 121.199 83.6558 122.002 81.5891 121.622C79.988 121.332 79.3751 121.916 79.4796 123.626C79.6174 125.973 79.4749 128.335 79.4511 130.691L79.4891 130.629C77.1469 131.109 74.7761 130.862 72.4291 130.796C70.695 130.748 69.8683 131.185 70.2294 133.005C70.657 135.162 69.702 135.651 67.6734 135.542C64.4474 135.366 61.1977 135.361 57.9718 135.542C55.9241 135.656 56.3089 134.411 56.3327 133.285C56.3565 132.131 55.8243 130.492 58.0051 130.843C60.3283 131.219 61.3925 130.439 60.9222 127.988C60.6181 126.42 61.5066 126.007 62.8321 126.254C65.2266 126.696 65.7112 125.608 65.5972 123.413C65.4024 119.636 65.5164 115.844 65.5022 112.058L65.4546 112.11C67.013 112.319 68.5713 112.552 70.1106 111.991L70.0536 111.925C70.1106 114.6 70.3054 117.284 70.1867 119.954C70.0869 122.192 71.5644 121.541 72.6857 121.598C73.8592 121.655 75.2465 121.883 74.8806 119.921C74.4103 117.407 75.4983 116.519 77.907 116.942C79.3894 117.203 79.6839 116.353 79.4939 115.155C79.1566 113.013 79.7504 111.811 82.1972 112.286C83.7555 112.59 84.2592 111.901 84.1356 110.362C84.0073 108.713 84.2259 107.036 84.0739 105.392C83.9028 103.558 84.4682 102.732 86.3829 103.059C87.1478 103.188 87.9602 102.879 88.7061 103.283C88.7251 103.976 88.8439 104.694 88.7393 105.373C88.4305 107.388 89.3332 107.772 91.1956 107.782C93.0675 107.787 93.7184 107.231 93.4666 105.416C93.3763 104.741 93.5379 104.033 93.5854 103.344C94.3028 102.831 95.1247 103.197 95.8849 103.069C97.6285 102.774 98.2984 103.401 98.1321 105.235C97.9611 107.117 98.1369 109.027 98.0798 110.922C98.0513 111.901 98.3031 112.333 99.3864 112.314C103.102 112.257 106.822 112.257 110.537 112.314C111.682 112.333 112.029 111.949 112.01 110.818C111.948 107.183 111.929 103.544 112.015 99.9094C112.048 98.5364 111.421 98.3654 110.304 98.3986C108.252 98.4556 106.19 98.3606 104.137 98.4366C102.973 98.4794 102.622 98.0375 102.655 96.9258C102.717 94.7926 102.631 92.6546 102.688 90.5214C102.717 89.4952 102.37 89.1294 101.334 89.1579C99.1203 89.2197 96.9063 89.2054 94.6924 89.1674C93.7992 89.1532 93.4096 89.424 93.4381 90.3789C93.5759 94.7166 93.2196 99.0638 93.6329 103.397C91.97 102.884 90.3119 102.907 88.6443 103.363C88.6871 96.2512 88.8249 89.1389 88.7061 82.0314C88.6681 79.8982 89.5945 79.8697 91.2051 79.8222C92.887 79.7747 93.8134 80.0977 93.4476 81.9886C93.0438 84.0791 93.8704 84.7205 95.9846 84.5779C98.9778 84.3784 101.995 84.4164 104.993 84.5732C106.836 84.6682 107.639 84.1551 107.321 82.2499C107.192 81.4803 107.197 80.6868 107.14 79.9077C107.145 79.9077 107.078 79.9647 107.078 79.9647C107.625 79.9362 108.166 79.8839 108.713 79.8792C111.839 79.8507 111.91 79.8554 111.962 82.9958C111.981 84.2596 112.404 84.6349 113.601 84.5542C114.523 84.4924 115.459 84.6254 116.39 84.6729L116.338 84.6349C116.946 85.4046 116.509 86.3073 116.647 87.1387C116.937 88.8443 116.162 89.3432 114.542 89.2149C113.749 89.1531 112.475 88.7066 112.186 89.5855C111.81 90.721 111.787 92.1415 112.119 93.2913C112.395 94.2415 113.677 93.7901 114.457 93.7094C116.238 93.5241 116.989 94.156 116.642 95.9328C116.224 98.0803 117.174 98.7739 119.189 98.4176C120.823 98.1278 121.384 98.7787 121.289 100.461C121.06 104.375 121.536 108.314 121.027 112.229C121.022 112.219 121.06 112.177 121.06 112.177Z" fill="#F8F8F8"/>
<path id="Vector_2" d="M33.1735 75.1716C37.1881 75.1858 41.2122 75.3236 45.2173 75.1621C47.3077 75.0766 47.0559 76.2596 47.0132 77.5281C46.9752 78.7064 47.4645 80.1364 45.2838 79.9274C43.3312 79.7421 41.3452 79.9511 39.3831 79.8656C38.1716 79.8133 37.6917 80.1649 37.7582 81.4334C37.8532 83.3196 37.896 85.22 37.7487 87.0966C37.6204 88.7737 38.1953 89.3771 39.8439 89.1633C40.6136 89.0635 41.4165 89.1776 42.2004 89.1918L42.1672 89.1111C42.4902 95.3919 42.4997 101.668 42.1624 107.949L42.2004 107.868C37.7725 107.431 37.7725 107.431 37.7725 102.827C37.7725 100.618 37.7012 98.4088 37.7962 96.2043C37.8627 94.5747 37.7345 93.6103 35.5965 93.6768C33.7056 93.7385 32.7744 94.1044 33.1402 96.1236C33.4728 97.9812 32.7174 98.4753 30.855 98.4943C28.8833 98.5133 28.1089 97.9669 28.451 96.0095C28.7408 94.3467 28.2324 93.406 26.3463 93.7623C24.2796 94.1519 23.4054 93.349 23.7998 91.2395C24.1038 89.6147 23.4719 88.902 21.7758 89.1681C20.9301 89.3011 20.0607 89.3011 19.2055 89.3629V89.4246C19.196 86.7356 19.1485 84.0512 19.2055 81.3622C19.2293 80.2362 18.873 79.8418 17.7185 79.8703C15.1102 79.9369 12.4971 79.8703 9.88879 79.8608L9.95056 79.9226C9.94106 79.5283 9.93155 79.1339 9.9268 78.7349C9.9078 75.4662 9.91255 75.4662 13.167 75.2334C13.7609 75.1906 14.369 75.3711 14.6065 74.4399C15.3097 71.6796 14.521 70.5869 11.6799 70.5869C10.0171 70.5869 8.35422 70.6391 6.69612 70.5726C5.55588 70.5299 5.1948 70.9669 5.2138 72.0977C5.25181 74.7012 5.16629 77.3096 5.13304 79.9179L5.17579 79.8466C0.605324 79.9749 0.605323 79.9749 0.605323 75.3616C0.605323 72.7581 0.63858 70.1545 0.59107 67.551C0.572066 66.52 0.762107 66.0116 1.99262 65.9546C5.26606 65.8074 5.26606 65.7361 5.22806 62.5054C5.2233 62.1111 5.1853 61.7215 5.16154 61.3271L5.13304 61.3984C6.73888 61.3889 8.34472 61.3842 9.95531 61.3747C9.93631 61.997 9.99332 62.6289 9.88879 63.2371C9.51346 65.4463 10.2879 66.2207 12.6111 66.0829C14.312 65.9831 14.7776 65.451 14.6065 63.8974C14.5163 63.0518 14.6256 62.1871 14.6446 61.3319C16.2504 61.3509 17.8515 61.3699 19.4573 61.3889L19.3956 61.3271C19.3813 61.4982 19.3623 61.6645 19.3481 61.8355C19.3005 65.4653 19.3956 69.1093 19.1438 72.7248C18.9917 74.9103 19.7519 75.5422 21.7616 75.2191C23.1489 74.9958 24.1513 75.3379 23.795 77.053C23.2629 79.6233 24.5409 80.2362 26.7691 79.8751C28.1374 79.6518 28.5555 80.2504 28.4795 81.5855C28.375 83.4764 28.603 85.3958 28.413 87.2724C28.1849 89.5529 29.6672 89.0588 30.95 89.1633C32.4656 89.2868 33.2258 89.0065 33.1687 87.1727C33.0452 83.1485 33.183 79.1149 33.2163 75.0813L33.1735 75.1716Z" fill="#F8F8F8"/>
<path id="Vector_3" d="M0.579732 119.284C0.579732 114.462 0.61774 109.635 0.555977 104.813C0.536973 103.506 0.883797 103.036 2.27109 103.041C12.0012 103.098 21.7265 103.098 31.4565 103.041C32.8628 103.031 33.1479 103.525 33.1431 104.818C33.0956 114.467 33.0956 124.116 33.1431 133.761C33.1479 135.062 32.8438 135.542 31.447 135.533C21.717 135.476 11.9917 135.476 2.26159 135.533C0.860042 135.542 0.536973 135.053 0.551226 133.756C0.61774 128.934 0.579732 124.107 0.579732 119.284ZM16.8092 130.839C20.1301 130.839 23.4511 130.806 26.772 130.858C27.8933 130.877 28.4777 130.715 28.4634 129.347C28.3969 122.629 28.4111 115.906 28.4539 109.188C28.4634 108.048 28.1023 107.697 26.9716 107.701C20.2537 107.744 13.531 107.749 6.81306 107.701C5.55879 107.692 5.20721 108.119 5.21672 109.34C5.26898 115.982 5.26898 122.62 5.21197 129.261C5.20246 130.54 5.64431 130.877 6.85106 130.858C10.1673 130.791 13.4882 130.834 16.8092 130.839Z" fill="#F8F8F8"/>
<path id="Vector_4" d="M33.1144 17.3561C33.1144 22.1024 33.0431 26.8486 33.1524 31.5902C33.1904 33.2103 32.6488 33.5476 31.1379 33.5381C21.5694 33.4716 12.0009 33.4763 2.43233 33.5333C0.988022 33.5428 0.541427 33.1627 0.550929 31.6804C0.617443 22.1119 0.622194 12.5434 0.550929 2.97482C0.541427 1.36898 1.06404 1.01741 2.57961 1.03166C12.1481 1.09817 21.7167 1.09342 31.2852 1.03166C32.739 1.02216 33.1809 1.40699 33.1476 2.88455C33.0573 7.70683 33.1144 12.5291 33.1144 17.3561ZM5.22117 17.0663C5.22117 20.3825 5.28294 23.7035 5.19267 27.0149C5.15466 28.4117 5.49198 28.9486 7.00755 28.9343C13.5639 28.8583 20.1156 28.8726 26.672 28.9248C27.9358 28.9343 28.4869 28.6873 28.4679 27.2525C28.3919 20.6201 28.4109 13.9877 28.4584 7.3505C28.4679 6.1675 28.2161 5.68765 26.9095 5.7019C20.1964 5.76367 13.4832 5.75892 6.77 5.70665C5.48248 5.69715 5.17366 6.158 5.19742 7.36001C5.26868 10.5907 5.22592 13.8309 5.22117 17.0663Z" fill="#F8F8F8"/>
<path id="Vector_5" d="M118.76 33.5002C114.014 33.5002 109.273 33.4527 104.526 33.5287C103.111 33.5525 102.612 33.2056 102.621 31.6948C102.688 22.0503 102.678 12.4057 102.631 2.7564C102.621 1.39286 103.063 1.00803 104.393 1.03178C108.821 1.10305 113.249 1.07929 117.677 1.05079C120.542 1.03178 118.851 3.2125 119.24 4.33849C119.744 5.79705 118.594 5.74954 117.592 5.74004C114.746 5.72103 111.895 5.7923 109.054 5.70678C107.762 5.66877 107.263 5.98709 107.277 7.39814C107.348 13.9593 107.334 20.5204 107.287 27.0863C107.277 28.3311 107.486 28.9345 108.94 28.9155C115.582 28.8442 122.224 28.8442 128.866 28.9107C130.291 28.925 130.571 28.3786 130.538 27.1148C130.462 24.193 130.567 21.2616 130.5 18.3397C130.438 15.5081 132.614 17.0522 133.75 16.6674C135.156 16.1923 135.213 17.2232 135.208 18.2827C135.18 22.7914 135.142 27.2954 135.227 31.8041C135.251 33.1961 134.786 33.543 133.47 33.524C128.566 33.4622 123.663 33.5002 118.76 33.5002Z" fill="#F8F8F8"/>
<path id="Vector_6" d="M70.3136 33.2391C71.7294 33.6904 73.1547 33.5194 74.5847 33.3294C75.3306 36.4745 74.5325 39.691 75.0266 42.8456C70.2281 42.7601 70.2281 42.7601 70.2281 47.5824C70.2281 52.0294 70.2281 52.0294 74.637 52.0294C75.3496 52.0294 76.0766 52.1291 76.7702 52.0103C79.1315 51.6065 79.7586 52.6137 79.5923 54.8657C79.4878 56.291 79.1837 56.7756 77.7062 56.7281C74.2284 56.6236 70.7412 56.6378 67.2634 56.7234C65.9189 56.7566 65.4485 56.3528 65.5198 54.9845C65.6243 52.932 65.458 50.8654 65.5721 48.8177C65.6766 47.0123 64.4271 47.3924 63.5291 47.5016C62.5789 47.6157 60.9256 46.5942 60.9446 48.7702C60.9493 49.0885 60.8923 49.4115 60.9493 49.7156C61.3532 51.8298 60.2889 52.0484 58.4551 52.1386C56.2601 52.2431 56.2601 51.1742 56.2933 49.5921C56.3646 46.2711 56.4026 42.9454 56.2838 39.6245C56.2173 37.7241 57.4431 38.0709 58.4646 38.1612C59.448 38.2467 61.0776 37.3962 60.9446 39.5484C60.9208 39.9428 61.0016 40.3514 60.9303 40.7314C60.5645 42.7174 61.6762 42.8409 63.2488 42.8456C64.8262 42.8504 65.9094 42.7221 65.5483 40.741C65.1967 38.793 65.7669 37.6765 68.0188 38.1231C69.7482 38.47 70.4894 37.8191 70.2423 35.9804C70.1188 35.0635 70.3231 34.099 70.3753 33.1631C70.3801 33.1678 70.3136 33.2391 70.3136 33.2391Z" fill="#F8F8F8"/>
<path id="Vector_7" d="M37.9307 42.8837C38.4011 42.8552 38.8857 42.7364 39.3418 42.8125C41.7838 43.2306 42.8005 42.2899 42.3587 39.8098C42.1164 38.4415 42.7815 38.0377 44.0975 38.109C46.5206 38.242 49.7037 37.3393 51.1813 38.5556C52.7349 39.8336 51.5519 43.1308 51.6706 45.5443C51.7419 47.0409 51.5661 48.5517 51.7134 50.034C51.8892 51.7681 51.1765 52.1577 49.585 52.0817C47.3805 51.9724 45.9457 54.3764 47.0907 56.2008C47.6988 57.1653 48.8485 56.6854 49.718 56.6284C51.2431 56.5334 51.9129 56.9942 51.7039 58.5906C51.5994 59.365 51.6849 60.1632 51.6849 60.9518C51.6849 65.8169 51.6849 65.8169 46.9339 66.0829L46.9814 66.1494C46.9909 64.9664 46.9671 63.7787 47.0194 62.5957C47.0574 61.7215 46.7819 61.3937 45.8364 61.3129C42.3634 60.9993 42.3682 60.9518 42.3682 57.3553C42.3682 56.4859 42.2684 55.6022 42.3872 54.7518C42.6722 52.6566 42.0023 51.6778 39.7361 52.0057C38.9569 52.1197 37.6932 52.5235 37.7787 50.8559C37.9165 48.1859 37.5411 45.4968 37.9735 42.8315L37.9307 42.8837Z" fill="#F8F8F8"/>
<path id="Vector_8" d="M79.7149 66.054C84.0954 65.883 84.0954 65.883 84.0954 70.2064C84.0954 70.7623 84.0954 71.3134 84.0954 71.8692C84.0954 75.0334 84.0954 75.1427 80.9929 75.1854C78.6649 75.2187 79.6817 76.8483 79.5201 77.8793C79.3396 79.0385 79.3871 80.2073 81.126 79.8794C83.6583 79.4043 84.3091 80.5113 84.1429 82.9201C83.9291 85.9892 84.0383 89.0869 84.1144 92.1703C84.1429 93.3913 83.8198 93.8474 82.537 93.7857C80.4846 93.6811 78.4226 93.6764 76.3702 93.7857C75.0304 93.8569 74.6788 93.2773 74.8736 92.1275C75.2585 89.8328 74.5316 88.6736 72.0183 89.1677C70.6025 89.448 70.0609 88.9016 70.1749 87.3908C70.3174 85.5046 70.3079 83.59 70.1796 81.6991C70.0799 80.212 70.593 79.6039 72.0373 79.8937C74.5743 80.4021 75.2157 79.2 74.8974 76.9291C74.7644 75.9979 74.8784 75.0334 74.8736 74.0832C74.8736 70.8573 74.8689 70.8098 78.1233 70.615C79.121 70.5532 79.5154 70.2919 79.5249 69.2514C79.5344 68.173 79.2018 67.047 79.7719 66.0065C79.7672 66.0065 79.7149 66.054 79.7149 66.054Z" fill="#F8F8F8"/>
<path id="Vector_9" d="M14.6289 47.5966C19.1804 47.15 19.1804 47.15 19.1851 42.4227C19.1851 41.9476 19.1851 41.4773 19.1851 41.0022C19.1851 38.2324 20.3634 37.3962 23.0524 38.1231C23.9931 38.3749 23.7794 39.0163 23.7889 39.5864C23.8126 41.7196 23.8839 43.8528 23.7746 45.9765C23.6796 47.8817 24.9861 47.4921 25.9886 47.4161C26.9673 47.34 28.5494 48.1857 28.4638 46.024C28.3878 43.9763 28.5161 41.9191 28.4211 39.8715C28.3641 38.5697 28.7156 37.952 30.1172 38.1136C30.8964 38.2038 31.6945 38.1136 32.4832 38.1326C34.1318 38.1658 36.132 37.6622 37.334 38.4176C38.5645 39.1921 37.4147 41.3775 37.9231 42.8788L37.9564 42.8171C33.1151 42.7506 33.1151 42.7506 33.1151 47.4968C33.1151 47.5776 33.1151 47.6536 33.1151 47.7344C33.1151 52.0245 33.1151 52.0245 28.7774 52.0245C23.7889 52.0245 23.7889 52.0245 23.7889 57.1176C23.7889 61.175 23.7889 61.175 19.874 61.422C19.7125 61.3888 19.5462 61.3603 19.3847 61.327L19.4464 61.3888C18.824 59.9682 19.874 58.1201 18.9286 57.0796C17.9356 55.9821 16.1065 56.8753 14.6622 56.6473C14.6669 53.6209 14.6764 50.5992 14.6812 47.5728L14.6289 47.5966Z" fill="#F8F8F8"/>
<path id="Vector_10" d="M42.1564 24.2216C37.7617 24.4116 37.7617 24.4116 37.7617 20.0549C37.7617 14.9428 37.7617 14.9428 42.9546 14.9428C45.1685 14.9428 47.3873 15.0426 49.587 14.9096C51.2213 14.8098 51.8152 15.2802 51.7202 16.9858C51.5919 19.2995 53.6633 20.5158 55.768 19.5371C56.6945 19.1047 56.3714 18.2638 56.2764 17.6747C55.9011 15.2897 56.9368 14.5818 59.146 14.9238C59.9157 15.0426 60.7233 14.9428 61.512 14.9428C66.13 14.9428 66.13 14.9428 65.3176 19.7033L65.3841 19.6416C64.9137 19.6321 64.4291 19.6748 63.9683 19.5988C61.5738 19.195 60.4668 20.0502 60.9276 22.5777C61.1652 23.8842 60.6093 24.3926 59.2363 24.3118C57.3549 24.2026 55.4497 24.3926 53.5731 24.2501C51.9767 24.1313 51.4256 24.7299 51.6822 26.2312C52.0385 28.3359 51.2973 29.1579 49.0549 28.9631C46.7981 28.773 44.5034 28.9963 42.2229 29.0391L42.2799 29.0961C42.2894 27.4475 42.5935 25.7894 42.0994 24.1645C43.3584 24.2026 44.6127 24.2311 45.8669 24.2738C46.4751 24.2928 46.8504 24.174 47.0262 23.4471C47.7246 20.5063 46.9074 19.5181 43.9333 19.5656C42.6933 19.5846 42.2562 19.9646 42.3274 21.1952C42.3845 22.1976 42.2229 23.2143 42.1564 24.2216Z" fill="#F8F8F8"/>
<path id="Vector_11" d="M74.5391 33.3573C75.304 29.6278 74.7244 25.8602 74.8716 22.1117C74.9572 19.9215 77.1664 18.5959 79.0668 19.6744C79.6987 20.0308 79.5229 20.6199 79.5276 21.133C79.5514 23.2662 79.5704 25.3946 79.5229 27.5279C79.4991 28.5398 79.8697 28.9437 80.8959 28.9009C82.2357 28.8391 83.5802 28.8866 84.92 28.8866C89.1769 28.8914 89.1769 28.8914 88.5736 24.4112C88.5783 24.4064 88.5118 24.4682 88.5118 24.4682C91.3196 24.0264 94.1512 24.3827 96.9686 24.2639C98.4081 24.2021 98.2181 25.2996 98.0566 26.0503C97.8428 27.0242 99.021 28.5731 97.0494 28.8961C95.9139 29.0814 94.3223 28.345 93.7141 29.2477C92.9682 30.35 93.4766 31.9748 93.5098 33.3763L93.5336 33.3146C92.5264 33.3716 91.5097 33.5236 90.5072 33.4619C89.2339 33.3858 88.5023 33.7469 88.7778 35.1342C89.3195 37.8566 88.0224 38.5597 85.6042 38.1464C85.0721 38.0561 84.5114 38.0941 83.9698 38.0703L84.0268 38.1321C84.0601 37.3482 84.0221 36.5548 84.1361 35.7899C84.4212 33.9322 83.699 33.3478 81.8319 33.4524C79.4041 33.5854 76.9668 33.4049 74.5391 33.3573Z" fill="#F8F8F8"/>
<path id="Vector_12" d="M118.741 24.2786C117.007 24.2786 115.268 24.2073 113.538 24.3023C112.27 24.3736 111.923 23.8937 111.942 22.6775C112.009 19.0525 112.009 15.4274 111.942 11.8024C111.923 10.6384 112.327 10.2488 113.439 10.3439C114.223 10.4104 115.016 10.3819 115.805 10.3534C118.242 10.2583 120.708 9.93528 121.601 13.185C121.796 13.8976 122.808 14.3727 123.411 14.9856C124.114 15.703 125.696 15.4655 125.777 16.6627C125.939 19.0145 125.863 21.3852 125.763 23.7417C125.73 24.5161 124.912 24.2643 124.409 24.2738C122.523 24.2928 120.632 24.2786 118.741 24.2786Z" fill="#F8F8F8"/>
<path id="Vector_13" d="M46.939 66.0832C47.1908 70.6014 47.1908 70.6014 42.7771 70.5966C40.3446 70.5966 37.9073 70.7392 35.489 70.5586C33.4556 70.4066 32.838 71.1715 33.123 73.0576C33.2276 73.7465 33.1658 74.4639 33.1801 75.1718L33.2276 75.0958C32.7572 75.1386 32.2916 75.2051 31.8213 75.2146C28.6428 75.2574 28.5193 75.2526 28.5146 72.1122C28.5146 70.2498 27.3743 70.7249 26.3433 70.5634C25.4739 70.4303 24.2054 71.2998 23.8206 69.6844C23.1744 66.9668 23.8491 66.0642 26.6189 66.0024C27.5453 65.9834 28.4385 66.2257 28.5098 64.6816C28.6713 61.3369 28.7664 61.3417 32.0636 61.3417C33.0898 61.3417 34.1302 61.4652 35.1327 61.3179C37.3372 60.9901 38.1544 61.8738 37.7743 64.007C37.4607 65.7648 38.3539 66.0832 39.9075 66.0309C42.2592 65.9501 44.6252 66.0974 46.9817 66.1449C46.9865 66.1497 46.939 66.0832 46.939 66.0832Z" fill="#F8F8F8"/>
<path id="Vector_14" d="M125.801 47.5775C125.825 51.6111 125.791 55.6447 125.896 59.6783C125.934 61.0656 125.454 61.5835 124.143 61.3459C121.815 60.9278 120.774 61.7545 121.235 64.1965C121.615 66.23 120.223 66.0209 118.917 66.0257C117.596 66.0304 116.261 66.2062 116.608 64.1823C116.764 63.2748 116.285 62.2914 116.917 61.4314C117.933 61.3982 118.959 61.3222 119.981 61.3554C120.869 61.3839 121.397 61.1036 121.211 60.1629C120.983 59.0132 122 57.2363 120.523 56.8515C119.416 56.5617 117.349 55.621 116.722 57.6069C116.361 58.7471 116.251 60.2437 116.993 61.4885C115.391 61.0561 113.097 62.1631 112.284 60.9421C111.472 59.7258 111.975 57.6021 111.966 55.8728C111.942 52.0244 111.961 52.0244 115.81 52.0244C116.441 52.0244 117.073 52.0244 117.705 52.0244C120.936 52.0244 120.983 52.0292 121.188 48.8128C121.249 47.815 121.525 47.3494 122.565 47.4397C123.658 47.5347 124.76 47.568 125.853 47.6298C125.848 47.6298 125.801 47.5775 125.801 47.5775Z" fill="#F8F8F8"/>
<path id="Vector_15" d="M5.15649 61.3317C0.595524 61.403 0.595524 61.403 0.595524 56.8135C0.595524 54.3668 0.704797 51.9152 0.557516 49.478C0.457744 47.7819 1.05162 47.1595 2.67647 47.4398C4.65764 47.7819 5.56983 47.1452 5.25627 44.9645C5.05672 43.5725 5.34653 42.1139 5.18975 40.7124C4.96645 38.7122 5.50332 37.9805 7.71254 38.028C9.71746 38.0708 10.0928 38.7739 9.95026 40.4938C9.86475 41.5533 9.4324 43.1354 11.4848 42.7743C14.1264 42.3087 15.0624 43.3872 14.6063 45.9432C14.5112 46.4753 14.6158 47.0455 14.63 47.5966L14.6918 47.5776C12.1025 47.5396 9.50842 47.5681 6.92387 47.435C5.56033 47.3638 5.204 47.8246 5.22301 49.1502C5.26577 53.2313 5.1755 57.3171 5.13274 61.3983C5.12799 61.3983 5.15649 61.3317 5.15649 61.3317Z" fill="#F8F8F8"/>
<path id="Vector_16" d="M56.6737 116.724C51.6614 117.565 51.6614 117.565 51.6614 112.752C51.6614 112.515 51.6614 112.282 51.6614 112.044C51.6614 107.412 51.6614 107.412 46.9531 107.863L46.9769 107.93C46.9864 107.616 46.9959 107.303 47.0006 106.989C47.0339 103.464 47.0244 103.402 50.4594 103.103C51.5901 103.003 51.6804 102.476 51.6804 101.597C51.6756 98.9362 51.7184 96.2709 51.7421 93.6104L51.6899 93.6769C56.3459 93.8717 56.3459 93.8717 56.3459 98.6464C56.3459 103.925 56.3316 109.203 56.3601 114.482C56.3649 115.242 56.0941 116.059 56.6214 116.767L56.6737 116.724Z" fill="#F8F8F8"/>
<path id="Vector_17" d="M126.02 75.2329C123.412 75.2329 120.799 75.1141 118.205 75.2709C116.376 75.3849 116.523 74.2827 116.651 73.1995C116.775 72.159 115.82 70.4961 118.143 70.5531C121.697 70.6387 125.25 70.5199 128.804 70.6054C130.13 70.6339 130.619 70.2681 130.548 68.8903C130.439 66.8426 130.581 64.7854 130.505 62.733C130.424 60.5428 132.04 61.4455 132.995 61.3742C133.959 61.3029 135.289 60.8183 135.237 62.771C135.137 66.4008 135.161 70.0353 135.237 73.6698C135.266 74.9431 134.814 75.2994 133.603 75.2614C131.08 75.1806 128.548 75.2329 126.02 75.2329Z" fill="#F8F8F8"/>
<path id="Vector_18" d="M56.5967 121.779C56.5159 122.074 56.3734 122.368 56.3592 122.668C56.2024 125.993 56.2119 126.05 52.9669 126.245C51.8932 126.307 51.6509 126.692 51.6747 127.661C51.7269 129.789 51.6367 131.923 51.7127 134.051C51.7554 135.196 51.3516 135.548 50.2256 135.529C46.5198 135.472 42.8093 135.443 39.1035 135.533C37.3076 135.576 37.6972 134.35 37.8112 133.467C37.9348 132.512 36.899 130.858 39.0465 130.839C41.1749 130.82 43.3081 130.768 45.4366 130.858C46.6861 130.911 47.0804 130.497 47.0234 129.257C46.9284 127.21 47.0139 125.157 46.9902 123.105C46.9807 122.245 47.0044 121.532 48.1874 121.599C51.0095 121.755 53.8506 121.328 56.6585 121.841C56.6585 121.836 56.5967 121.779 56.5967 121.779Z" fill="#F8F8F8"/>
<path id="Vector_19" d="M69.7456 93.6388C69.356 93.6816 68.9522 93.8098 68.5816 93.7481C66.1063 93.3205 65.1181 94.3182 65.5647 96.7792C65.9305 98.8032 64.4815 98.4278 63.3602 98.4041C62.2057 98.3803 60.6949 98.9409 60.8897 96.727C61.0417 95.0024 60.8089 93.2492 60.9515 91.5246C61.094 89.7525 60.6569 88.9258 58.6805 89.1348C56.9654 89.3154 55.198 89.0256 53.4829 89.2109C51.4542 89.4294 51.5967 88.2274 51.6727 86.9209C51.7393 85.7616 51.1691 84.3743 53.3736 84.4836C56.9179 84.6546 60.4716 84.5834 64.0206 84.5026C65.2796 84.4741 65.7832 84.8779 65.5694 86.1037C65.1466 88.5172 66.035 89.6147 68.5531 89.1444C69.8929 88.8925 70.4202 89.4674 70.2444 90.8167C70.1447 91.5959 70.1732 92.3893 70.1447 93.1732C70.0069 93.33 69.8786 93.4868 69.7456 93.6388Z" fill="#F8F8F8"/>
<path id="Vector_20" d="M93.4932 33.3767C98.0969 33.6713 98.0969 33.6713 98.0969 38.4365C98.0969 40.8786 98.0304 43.3206 98.1254 45.7578C98.1776 47.1214 97.6978 47.5205 96.3723 47.492C92.9895 47.4112 89.5926 47.3494 86.2146 47.511C84.3332 47.6012 83.8534 46.9028 84.0672 45.2115C84.1622 44.4418 84.0481 43.6389 84.0291 42.855L83.9531 42.8787C86.6279 42.855 89.3028 42.7837 91.9728 42.8265C93.1036 42.8455 93.4694 42.4559 93.4551 41.3347C93.4124 38.6646 93.4884 35.9898 93.5169 33.3149L93.4932 33.3767Z" fill="#F8F8F8"/>
<path id="Vector_21" d="M60.735 70.8094C60.7873 70.4198 60.8775 70.0302 60.8918 69.6407C61.0058 66.2864 60.9963 66.1819 64.2365 66.0251C65.8043 65.9491 65.6476 64.9989 65.5098 64.1152C65.1534 61.83 65.9801 61.0983 68.3034 61.2694C71.2918 61.4927 74.3134 61.4262 77.3113 61.2836C79.0549 61.1981 79.8008 61.6447 79.5585 63.4834C79.4492 64.3195 79.6583 65.1985 79.7248 66.0584C79.7248 66.0584 79.7771 66.0061 79.7771 66.0014C77.2685 66.0014 74.7505 66.1154 72.2467 65.9681C70.5601 65.8684 69.933 66.429 70.2275 68.0586C70.5886 70.0683 69.8997 70.8427 67.7427 70.6669C65.41 70.4768 63.044 70.7001 60.6875 70.7477C60.6875 70.7524 60.735 70.8094 60.735 70.8094Z" fill="#F8F8F8"/>
<path id="Vector_22" d="M102.656 45.0449C102.656 43.7052 102.656 42.3654 102.656 41.0256C102.656 38.1512 103.621 37.4623 106.495 38.1085C107.759 38.3935 107.393 39.339 107.284 39.9566C106.837 42.4984 108.011 43.0923 110.272 42.8167C111.593 42.6552 112.961 42.9165 114.282 42.7597C116.315 42.5127 116.748 43.3488 116.719 45.254C116.691 46.9881 116.306 47.7198 114.481 47.4965C113.317 47.3539 112.12 47.468 110.937 47.468C107.635 47.468 107.545 47.4632 107.355 50.7937C107.241 52.8033 105.844 51.9767 104.965 52.0052C104.053 52.0337 102.58 52.6941 102.647 50.7129C102.708 48.8267 102.661 46.9358 102.656 45.0449Z" fill="#F8F8F8"/>
<path id="Vector_23" d="M88.9533 14.6956C88.7395 14.7811 88.5257 14.9189 88.3072 14.9379C84.0978 15.2514 84.0978 15.2467 84.0978 11.0325C84.0978 8.2722 84.131 5.51662 84.0835 2.75628C84.0645 1.65404 84.2118 1.00315 85.5896 1.03166C89.2906 1.11243 93.0011 1.10293 96.7022 1.04591C98.8544 1.01266 97.9945 2.57574 98.0705 3.5497C98.1512 4.54741 98.5361 5.86344 96.6357 5.76842C94.512 5.6639 92.3788 5.79693 90.2503 5.72566C89.1338 5.68765 88.711 6.03923 88.7585 7.19372C88.863 9.70701 88.8583 12.2298 88.8963 14.7478C88.8915 14.7526 88.9533 14.6956 88.9533 14.6956Z" fill="#F8F8F8"/>
<path id="Vector_24" d="M44.3749 10.3728C42.9543 10.3728 41.5148 10.235 40.1132 10.4061C38.056 10.6531 37.6664 9.78368 37.6759 7.89753C37.6855 6.14915 38.0988 5.37474 39.9042 5.71206C41.8758 6.07789 42.6835 5.25596 42.3272 3.29855C41.9614 1.30787 42.9638 1.02756 44.7074 0.994306C46.5366 0.961048 47.368 1.42665 47.0117 3.32705C46.6316 5.35573 47.5533 6.07314 49.468 5.70731C51.5014 5.31773 51.6772 6.3867 51.7389 8.07806C51.8102 9.99272 51.1973 10.5723 49.3539 10.4061C47.7053 10.254 46.033 10.3728 44.3749 10.3728Z" fill="#F8F8F8"/>
<path id="Vector_25" d="M65.306 19.7032C70.209 19.3421 70.1995 19.3421 70.2138 24.2404C70.2233 27.243 70.2613 30.2409 70.2898 33.2388C70.2945 33.234 70.3563 33.1675 70.3611 33.1628C67.5722 33.9182 64.7216 33.4954 61.9185 33.4288C59.9563 33.3813 61.1631 31.5854 60.9303 30.6115C60.7355 29.7801 60.7593 28.9676 62.1228 28.8489C65.534 28.5496 65.5435 28.4735 65.5198 25.0766C65.5055 23.2664 65.4295 21.4515 65.3772 19.6414C65.3772 19.6462 65.306 19.7032 65.306 19.7032Z" fill="#F8F8F8"/>
<path id="Vector_26" d="M117.226 121.707C118.333 121.707 119.445 121.707 120.552 121.707C120.732 121.849 120.913 121.992 121.093 122.134C121.345 126.41 121.326 130.681 121.098 134.957C120.917 135.104 120.732 135.256 120.552 135.404C117.862 135.394 115.169 135.389 112.48 135.38C112.347 135.237 112.214 135.1 112.081 134.957C111.928 133.432 111.852 131.912 112.171 130.396L112.123 130.463C113.273 131.247 114.551 130.752 115.767 130.8C116.874 130.843 116.613 129.888 116.627 129.227C116.679 126.861 116.703 124.495 116.741 122.134C116.898 121.996 117.064 121.854 117.226 121.707Z" fill="#F8F8F8"/>
<path id="Vector_27" d="M93.5871 61.3272C93.1928 61.3367 92.8032 61.3557 92.4088 61.3557C89.0166 61.3653 88.9073 61.3652 88.8028 58.0728C88.7458 56.3434 87.6911 56.7283 86.7409 56.7045C84.3559 56.657 83.2156 54.8564 84.1326 52.6329C84.4271 51.9202 84.9688 52.0295 85.4914 52.0248C87.6151 52.0105 89.7388 52.0723 91.8577 51.9963C93.0787 51.9535 93.5158 52.3478 93.4873 53.6021C93.4256 56.1914 93.5063 58.7854 93.5301 61.3795L93.5871 61.3272Z" fill="#F8F8F8"/>
<path id="Vector_28" d="M70.0352 5.92531C72.7765 5.44546 75.5416 5.8493 78.2924 5.70677C79.1999 5.65926 79.5609 6.02508 79.5419 6.94678C79.5039 9.16075 79.5182 11.37 79.5324 13.5839C79.5419 15.9167 77.7746 14.7384 76.7673 14.9285C75.7601 15.1185 74.5676 15.1565 74.8764 13.5032C75.3658 10.8806 74.3016 9.89716 71.717 10.3628C70.3867 10.6051 70.1064 9.85915 70.1872 8.69515C70.2489 7.7592 70.1349 6.809 70.0969 5.86355C70.1017 5.86355 70.0352 5.92531 70.0352 5.92531Z" fill="#F8F8F8"/>
<path id="Vector_29" d="M9.92887 89.3532C7.48685 89.2914 5.04008 89.0776 2.61232 89.2202C0.536124 89.3437 0.574132 88.2367 0.578883 86.7591C0.583634 85.3623 0.545626 84.3836 2.49354 84.4786C5.34415 84.6212 5.3489 84.4692 5.17311 79.8369L5.13035 79.9082C6.73619 79.9082 8.33728 79.9082 9.94312 79.9082L9.88136 79.8464C9.88136 83.0391 9.88611 86.227 9.88611 89.4197L9.92887 89.3532Z" fill="#F8F8F8"/>
<path id="Vector_30" d="M130.775 93.4915C130.21 93.8954 129.549 93.6721 128.936 93.7623C126.618 94.1139 125.359 93.444 125.824 90.812C125.943 90.1278 126.147 89.3059 124.841 89.1349C120.964 88.6217 120.974 88.5505 121.387 84.6214L121.33 84.6594C124.466 84.5216 127.606 84.3411 130.737 84.7639L130.67 84.7069C130.452 87.6525 130.352 90.5934 130.718 93.539C130.708 93.539 130.775 93.4915 130.775 93.4915Z" fill="#F8F8F8"/>
<path id="Vector_31" d="M107.061 75.0524C107.46 74.4822 107.203 73.8266 107.298 73.2185C107.588 71.2991 107.094 70.1493 104.847 70.6054C102.766 71.0283 102.652 69.831 102.595 68.1824C102.533 66.4103 103.027 65.8069 104.828 65.9494C107.018 66.1252 109.674 65.2795 111.318 66.2487C113.085 67.2892 111.836 70.1161 111.94 72.1447C112.097 75.2519 111.983 75.2709 108.847 75.2139C108.23 75.2044 107.612 75.0714 106.994 74.9954L107.061 75.0524Z" fill="#F8F8F8"/>
<path id="Vector_32" d="M125.842 130.774C125.847 126.255 125.847 126.255 130.408 126.255C131.04 126.255 131.667 126.255 132.299 126.255C135.097 126.255 135.957 127.405 135.178 130.08C134.807 131.353 133.738 130.907 133.04 130.812C130.902 130.522 130.132 131.358 130.527 133.406C130.888 135.292 129.971 135.615 128.298 135.548C126.73 135.487 125.448 135.539 125.818 133.363C125.966 132.527 125.842 131.638 125.842 130.774Z" fill="#F8F8F8"/>
<path id="Vector_33" d="M46.9524 107.869C46.9715 110.392 46.9239 112.924 47.038 115.442C47.0997 116.772 46.5439 117.034 45.3799 116.976C43.8025 116.896 42.2252 116.957 40.6431 116.957C37.8448 116.957 37.0418 115.85 37.7687 113.128C37.954 112.425 38.3626 112.368 38.9517 112.292C42.6243 111.831 42.6243 111.817 42.2014 107.869L42.1634 107.95C43.7693 107.555 45.3704 107.56 46.9762 107.935L46.9524 107.869Z" fill="#F8F8F8"/>
<path id="Vector_34" d="M60.7324 70.8101C60.7324 70.8101 60.6849 70.7531 60.6849 70.7483C61.2313 73.3946 60.7752 76.0742 60.9272 78.7348C60.9842 79.7087 60.4663 79.9035 59.6207 79.894C57.4162 79.8608 55.2022 79.8085 53.0025 79.9083C51.2114 79.989 51.5867 78.7253 51.7102 77.8416C51.8433 76.9009 50.7838 75.0527 52.917 75.2713C55.6251 75.5516 56.8651 74.7534 56.3377 71.9076C56.1429 70.8481 56.7416 70.4965 57.7155 70.5868C58.7132 70.6818 59.7489 70.3587 60.7324 70.8101Z" fill="#F8F8F8"/>
<path id="Vector_35" d="M19.1929 89.4194V89.3576C19.1929 91.9422 19.1264 94.5315 19.2119 97.1113C19.2642 98.6601 18.2284 98.5793 17.3685 98.3655C16.4231 98.1327 14.8885 99.406 14.5702 97.3726C14.3849 96.1943 15.2258 94.6027 14.0238 93.9186C13.1259 93.4102 11.7291 93.7856 10.5603 93.738C10.261 93.7238 9.96644 93.586 9.67188 93.5052L9.73839 93.5623C9.80015 92.1607 9.86667 90.7544 9.92843 89.3529L9.88092 89.4241C12.9833 88.968 16.0905 88.9918 19.1929 89.4194Z" fill="#F8F8F8"/>
<path id="Vector_36" d="M98.201 134.963C97.9824 130.687 98.0014 126.416 98.1915 122.14C98.3672 121.997 98.543 121.859 98.7188 121.717C99.8258 121.717 100.928 121.717 102.035 121.717C102.206 121.859 102.377 121.997 102.553 122.14C102.748 126.416 102.757 130.687 102.548 134.963C102.377 135.11 102.211 135.257 102.04 135.404C100.933 135.404 99.8258 135.404 98.7141 135.4C98.543 135.252 98.372 135.105 98.201 134.963Z" fill="#F8F8F8"/>
<path id="Vector_37" d="M9.66313 93.5098C9.73439 93.6475 9.85792 93.7853 9.87217 93.9326C10.2903 98.4318 10.2903 98.4318 5.83856 98.4318C4.89311 98.4318 3.93341 98.3273 3.00696 98.4556C1.0543 98.7216 0.49843 98.0042 0.507932 96.0278C0.517434 94.1131 1.09706 93.6095 2.92144 93.7046C5.18768 93.8233 7.46341 93.6333 9.73439 93.5763C9.72489 93.5668 9.66313 93.5098 9.66313 93.5098Z" fill="#F8F8F8"/>
<path id="Vector_38" d="M130.495 116.965C130.505 114.357 130.605 111.749 130.491 109.145C130.405 107.197 131.735 107.649 132.705 107.729C133.669 107.805 135.303 106.907 135.218 109.083C135.17 110.186 135.208 111.297 135.208 112.4C135.208 117.079 135.208 117.079 130.434 116.908C130.438 116.908 130.495 116.965 130.495 116.965Z" fill="#F8F8F8"/>
<path id="Vector_39" d="M65.4845 112.063C64.4393 112.595 63.3228 112.196 62.2444 112.319C61.2229 112.438 60.8523 111.987 60.8761 110.965C60.9283 108.765 60.8903 106.561 60.8903 104.361C60.8903 102.204 62.5389 103.216 63.4844 103.116C64.3301 103.026 65.6508 102.518 65.5748 104.347C65.4655 106.936 65.4798 109.526 65.4418 112.115C65.437 112.115 65.4845 112.063 65.4845 112.063Z" fill="#F8F8F8"/>
<path id="Vector_40" d="M79.497 130.639L79.459 130.701C81.0601 130.701 82.666 130.701 84.267 130.701L84.4048 130.663L84.5331 130.725C83.9155 131.475 84.1008 132.388 84.1815 133.205C84.3526 134.934 83.8917 135.58 81.9486 135.618C79.7821 135.666 79.1597 134.958 79.4495 132.967C79.5588 132.207 79.4875 131.418 79.497 130.639Z" fill="#F8F8F8"/>
<path id="Vector_41" d="M121.336 84.6586L121.393 84.6205C119.706 84.6253 118.015 84.6348 116.328 84.6396C116.328 84.6396 116.38 84.6776 116.38 84.6728C116.789 83.6038 116.623 82.4826 116.566 81.3994C116.499 80.1308 116.979 79.8268 118.195 79.8173C121.274 79.7935 121.269 79.727 121.288 82.7677C121.288 83.3995 121.317 84.0267 121.336 84.6586Z" fill="#F8F8F8"/>
<path id="Vector_42" d="M42.3201 123.775C42.5909 125.414 42.4483 126.449 40.2486 126.354C38.4195 126.274 37.5881 126.055 37.6831 123.941C37.7638 122.202 38.0157 121.423 39.9921 121.546C41.6217 121.646 42.8474 121.689 42.3201 123.775Z" fill="#F8F8F8"/>
<path id="Vector_43" d="M58.5263 10.3154C56.4549 10.857 56.3694 9.69298 56.2506 8.02062C56.0986 5.86366 57.0203 5.73539 58.8114 5.63086C61.0064 5.50259 60.9018 6.59057 61.0111 8.1584C61.1536 10.1918 60.3175 10.6954 58.5263 10.3154Z" fill="#F8F8F8"/>
<path id="Vector_44" d="M93.3906 72.8724C93.9132 74.9581 92.9535 75.2716 91.1766 75.3144C89.2429 75.3572 88.7061 74.844 88.6728 72.8676C88.6395 70.7154 89.509 70.5301 91.2858 70.5016C93.2528 70.4636 93.9369 71.0907 93.3906 72.8724Z" fill="#F8F8F8"/>
<path id="Vector_45" d="M130.543 98.4131C130.604 96.774 130.234 95.1112 130.78 93.4911C130.785 93.4863 130.723 93.5338 130.728 93.5338C131.721 93.9567 132.761 93.7001 133.773 93.7144C134.7 93.7286 135.165 93.9091 135.256 95.0066C135.522 98.3513 135.493 98.4511 132.144 98.4321C131.593 98.4274 131.041 98.3846 130.49 98.3608C130.49 98.3561 130.543 98.4131 130.543 98.4131Z" fill="#F8F8F8"/>
<path id="Vector_46" d="M130.752 84.7593C130.277 83.8708 130.662 82.9016 130.5 81.9847C130.182 80.1413 131.014 79.7137 132.719 79.823C134.919 79.9608 136.197 82.0607 135.152 84.0514C134.871 84.5835 134.415 84.536 133.954 84.555C132.862 84.6025 131.769 84.6453 130.676 84.6928C130.686 84.7023 130.752 84.7593 130.752 84.7593Z" fill="#F8F8F8"/>
<path id="Vector_47" d="M42.1562 89.1111C42.1562 89.1111 42.1943 89.1919 42.1895 89.1919C42.2418 88.4174 42.4176 87.624 42.3273 86.8686C42.1182 85.087 42.6599 84.4503 44.5935 84.4646C46.4939 84.4788 47.3491 84.8684 47.0165 86.8876C46.8788 87.7285 46.9595 88.6075 46.9453 89.4674L46.9738 89.3534C45.3679 89.2726 43.7621 89.1918 42.1562 89.1111Z" fill="#F8F8F8"/>
<path id="Vector_48" d="M107.272 59.0135C107.691 60.8283 107.068 61.465 105.116 61.4365C103.258 61.408 102.55 61.0659 102.555 59.0135C102.559 56.9753 103.248 56.6094 105.111 56.5857C107.068 56.5524 107.681 57.1986 107.272 59.0135Z" fill="#F8F8F8"/>
<path id="Vector_49" d="M130.483 98.3564C130.502 99.3732 130.459 100.395 130.564 101.402C130.702 102.732 130.208 103.141 128.863 103.141C125.884 103.136 125.053 102.105 125.837 99.1974C126.032 98.4705 126.45 98.3992 127.024 98.3992C128.198 98.404 129.371 98.4087 130.545 98.4135C130.535 98.4135 130.483 98.3564 130.483 98.3564Z" fill="#F8F8F8"/>
<path id="Vector_50" d="M70.0891 5.86385C69.1532 5.82584 68.2077 5.70232 67.2765 5.77358C65.9937 5.8686 65.4854 5.49327 65.4806 4.09172C65.4664 1.04632 66.3643 0.305167 69.4097 1.02732C70.1556 1.20311 70.2554 1.60694 70.2174 2.18657C70.1366 3.43133 70.4407 4.69035 70.0274 5.92086C70.0226 5.92561 70.0891 5.86385 70.0891 5.86385Z" fill="#F8F8F8"/>
<path id="Vector_51" d="M74.9043 105.308C74.3865 103.336 75.3604 103.037 77.1325 102.994C79.1042 102.946 79.5603 103.54 79.6221 105.479C79.6886 107.735 78.6339 107.688 76.952 107.807C74.8188 107.954 74.5717 106.975 74.9043 105.308Z" fill="#F8F8F8"/>
<path id="Vector_52" d="M88.6985 19.5565C88.7745 17.9364 88.8553 16.321 88.936 14.7009C88.9408 14.6962 88.879 14.758 88.8838 14.7532C90.3851 15.1048 91.8912 14.9432 93.3972 14.8387L93.3307 14.777C93.3497 14.853 93.3877 14.929 93.3877 15.005C93.3355 20.4117 94.6182 19.7038 88.6367 19.4995L88.6985 19.5565Z" fill="#F8F8F8"/>
<path id="Vector_53" d="M88.6305 19.4939C88.7683 21.152 89.0248 22.8196 88.4927 24.4635C88.488 24.4682 88.5545 24.4064 88.5497 24.4112C87.6898 24.3779 86.8204 24.2259 85.9842 24.3257C84.3831 24.5157 84.1218 23.8173 84.003 22.3445C83.8225 20.064 84.5446 19.1803 86.8204 19.5699C87.4285 19.6744 88.0699 19.5699 88.6923 19.5604C88.6923 19.5557 88.6305 19.4939 88.6305 19.4939Z" fill="#F8F8F8"/>
<path id="Vector_54" d="M125.677 42.9646C124.741 42.9218 123.801 42.7698 122.879 42.8553C121.468 42.9883 121.188 42.3565 121.188 41.0879C121.178 38.2516 122.428 37.2919 125.174 38.1138C125.763 38.2896 125.92 38.6222 125.882 39.1115C125.777 40.418 126.19 41.7578 125.611 43.0263C125.615 43.0263 125.677 42.9646 125.677 42.9646Z" fill="#F8F8F8"/>
<path id="Vector_55" d="M130.596 42.9403C130.563 42.3132 130.501 41.6908 130.496 41.0637C130.477 38.2606 131.893 37.1536 134.454 38.1798C136.036 38.8117 134.943 40.3843 135.181 41.5008C135.352 42.2989 135.067 42.8643 134.069 42.8358C132.891 42.8025 131.713 42.8595 130.534 42.8786L130.596 42.9403Z" fill="#F8F8F8"/>
<path id="Vector_56" d="M125.714 116.956C121.547 116.994 121.547 116.994 121.039 112.176C121.039 112.176 121.001 112.219 120.996 112.219C121.305 112.238 121.614 112.267 121.927 112.271C126.374 112.366 126.374 112.366 125.652 117.008L125.714 116.956Z" fill="#F8F8F8"/>
<path id="Vector_57" d="M74.9278 42.8213C76.5336 42.8213 78.1394 42.826 79.7453 42.826C79.674 43.6717 79.484 44.5269 79.56 45.3583C79.6978 46.9119 79.2702 47.52 77.5408 47.539C75.5406 47.5628 74.4146 47.2017 74.8327 44.9165C74.9563 44.2371 74.8993 43.5197 74.9278 42.8213Z" fill="#F8F8F8"/>
<path id="Vector_58" d="M125.676 117.013C127.282 116.999 128.892 116.98 130.498 116.966L130.436 116.909C130.474 117.693 130.441 118.486 130.565 119.256C130.883 121.256 130.042 121.712 128.113 121.721C126.179 121.731 125.595 121.113 125.823 119.303C125.923 118.534 125.776 117.735 125.738 116.951C125.733 116.956 125.676 117.013 125.676 117.013Z" fill="#F8F8F8"/>
<path id="Vector_59" d="M130.547 42.8787C130.414 44.4941 130.817 46.1379 130.295 47.7343L130.361 47.6773C128.85 47.2924 127.325 47.4777 125.805 47.5727L125.857 47.625C125.796 46.0667 125.739 44.5083 125.672 42.9548C125.667 42.9595 125.605 43.0213 125.605 43.026C127.259 42.5652 128.931 42.7505 130.604 42.9358C130.604 42.9405 130.547 42.8787 130.547 42.8787Z" fill="#F8F8F8"/>
<path id="Vector_60" d="M93.455 121.674C93.4407 125.94 93.4407 125.94 88.6992 126.434L88.7562 126.448C88.7372 121.393 88.7372 121.393 93.5215 121.697L93.455 121.674Z" fill="#F8F8F8"/>
<path id="Vector_61" d="M93.523 61.3793C94.0694 61.3603 94.6205 61.3223 95.1669 61.3176C98.1315 61.3033 98.8299 62.1395 98.0792 65.0661C97.5899 66.9713 95.9793 65.7075 94.9103 65.9831C94.0979 66.1921 93.3235 66.0021 93.4042 64.8286C93.4898 63.6646 93.523 62.4911 93.58 61.3223C93.58 61.3271 93.523 61.3793 93.523 61.3793Z" fill="#F8F8F8"/>
<path id="Vector_62" d="M107.004 75.0005C107.57 76.6443 107.427 78.3024 107.076 79.9653C107.071 79.9653 107.137 79.9083 107.133 79.9083C106.425 79.9083 105.702 79.8133 105.014 79.9178C103.009 80.2219 102.586 79.3524 102.567 77.452C102.548 75.5088 103.194 74.9482 104.985 75.1715C105.669 75.257 106.377 75.1003 107.076 75.0527C107.071 75.0527 107.004 75.0005 107.004 75.0005Z" fill="#F8F8F8"/>
<path id="Vector_63" d="M93.4087 14.8339C93.4135 14.0452 93.5275 13.2328 93.404 12.4631C93.0952 10.5675 93.9931 10.3204 95.656 10.2681C97.6181 10.2064 98.2073 10.7718 98.1692 12.7529C98.136 14.4965 97.7464 15.2662 95.9268 14.9716C95.0811 14.8339 94.2117 14.8339 93.347 14.7674C93.3422 14.7721 93.4087 14.8339 93.4087 14.8339Z" fill="#F8F8F8"/>
<path id="Vector_64" d="M56.6026 116.775C57.0634 116.832 57.5243 116.927 57.9899 116.936C61.0733 116.984 60.983 116.979 60.9688 120.01C60.964 121.445 60.4034 121.754 59.1444 121.659C58.2939 121.592 57.4245 121.725 56.5693 121.778C56.5741 121.782 56.6358 121.839 56.6406 121.844C56.1037 120.143 56.0895 118.438 56.6548 116.732C56.6596 116.723 56.6026 116.775 56.6026 116.775Z" fill="#F8F8F8"/>
<path id="Vector_65" d="M58.3839 61.3506C56.6355 61.7877 56.2744 60.8802 56.2364 59.0653C56.1937 57.0747 56.8113 56.6376 58.745 56.5806C60.8639 56.5188 61.0302 57.4358 60.9542 59.0844C60.8497 61.3458 60.9162 61.3506 58.3839 61.3506Z" fill="#F8F8F8"/>
<path id="Vector_66" d="M46.9531 89.467C48.0364 88.8066 49.2241 89.2865 50.3548 89.144C51.3336 89.0204 51.7659 89.391 51.6994 90.4267C51.6281 91.51 51.6851 92.598 51.6851 93.6812L51.7374 93.6147C47.0339 94.0945 47.0339 94.0945 46.9959 89.5858C46.9959 89.5098 46.9911 89.429 46.9864 89.353L46.9531 89.467Z" fill="#F8F8F8"/>
<path id="Vector_67" d="M79.6903 42.8836C79.0536 38.1563 79.0536 38.1563 83.9994 38.1326L83.9424 38.0708C84.1847 39.6719 84.1752 41.2777 83.9424 42.8788L84.0184 42.8551C82.5741 42.8646 81.1298 42.8741 79.6903 42.8836Z" fill="#F8F8F8"/>
<path id="Vector_68" d="M112.168 130.4C110.9 131.346 109.289 131.127 108.144 130.733C106.32 130.101 107.137 128.03 107.46 126.908C107.864 125.497 109.622 126.462 110.767 126.262C111.631 126.11 112.05 126.5 112.012 127.445C111.974 128.453 112.073 129.469 112.121 130.472C112.121 130.467 112.168 130.4 112.168 130.4Z" fill="#F8F8F8"/>
<path id="Vector_69" d="M130.293 47.7391C130.925 47.2925 131.647 47.4636 132.341 47.4493C135.134 47.4066 135.918 48.504 135.206 51.2549C135.015 51.996 134.583 52.0626 134.018 52.0436C133.011 52.0103 132.003 51.9438 130.996 51.8915C130.868 51.7252 130.735 51.5637 130.607 51.3974C130.531 50.1574 130.45 48.9126 130.369 47.6774C130.359 47.6821 130.293 47.7391 130.293 47.7391Z" fill="#F8F8F8"/>
<path id="Vector_70" d="M84.5086 130.724L84.3803 130.662L84.2426 130.7C83.7485 126.025 83.7485 126.025 88.2572 126.367C88.3949 126.543 88.5375 126.714 88.6752 126.89C88.6752 127.997 88.6753 129.104 88.6705 130.216C88.5327 130.387 88.3902 130.558 88.2524 130.734C87.0029 130.938 85.7534 130.943 84.5086 130.724Z" fill="#F8F8F8"/>
<path id="Vector_71" d="M70.1117 111.997C70.1497 111.299 70.2875 110.586 70.1972 109.902C69.9739 108.22 70.468 107.517 72.3209 107.65C74.6252 107.812 75.8224 109.617 74.8532 111.774C74.6442 112.24 74.2973 112.32 73.9363 112.287C72.644 112.178 71.2947 112.681 70.0547 111.935C70.0547 111.931 70.1117 111.997 70.1117 111.997Z" fill="#F8F8F8"/>
<path id="Vector_72" d="M42.2286 29.0443C42.2713 29.6715 42.2523 30.3081 42.3711 30.921C42.8034 33.211 41.6965 33.6766 39.6583 33.5436C38.3518 33.458 37.8149 33.3393 37.7009 31.7762C37.5203 29.3532 38.2947 28.4505 40.6607 28.8923C41.1976 28.9921 41.744 29.0301 42.2856 29.1014L42.2286 29.0443Z" fill="#F8F8F8"/>
<path id="Vector_73" d="M130.618 51.397C130.746 51.5633 130.879 51.7248 131.008 51.8911C130.618 51.9386 130.537 51.7295 130.618 51.397Z" fill="#F8F8F8"/>
<path id="Vector_74" d="M69.7344 93.6386C69.8627 93.4866 69.9957 93.3298 70.124 93.1777C70.2142 93.5151 70.1192 93.7003 69.7344 93.6386Z" fill="#F8F8F8"/>
<path id="Vector_75" d="M98.707 121.718C98.5313 121.86 98.3555 121.998 98.1797 122.14C98.2129 121.993 98.2414 121.841 98.2747 121.694H98.2082C98.3745 121.703 98.5408 121.708 98.707 121.718Z" fill="#F8F8F8"/>
<path id="Vector_76" d="M102.526 122.14C102.355 121.998 102.184 121.86 102.008 121.718C102.174 121.708 102.34 121.703 102.507 121.694H102.44C102.488 121.789 102.549 121.874 102.583 121.974C102.597 122.022 102.549 122.083 102.526 122.14Z" fill="#F8F8F8"/>
<path id="Vector_77" d="M117.216 121.707C117.054 121.85 116.888 121.997 116.727 122.14C116.798 121.964 116.864 121.788 116.94 121.612C116.945 121.612 116.879 121.655 116.883 121.655C117.007 121.589 117.116 121.603 117.216 121.707Z" fill="#F8F8F8"/>
<path id="Vector_78" d="M121.1 122.135C120.92 121.993 120.739 121.85 120.559 121.708C120.91 121.632 121.148 121.703 121.1 122.135Z" fill="#F8F8F8"/>
<path id="Vector_79" d="M88.6837 126.89C88.5459 126.715 88.4034 126.543 88.2656 126.368C88.4272 126.396 88.5934 126.42 88.755 126.448L88.698 126.434C88.6885 126.586 88.6837 126.738 88.6837 126.89Z" fill="#F8F8F8"/>
<path id="Vector_80" d="M88.2539 130.728C88.3917 130.557 88.5342 130.386 88.672 130.21C88.748 130.557 88.6625 130.776 88.2539 130.728Z" fill="#F8F8F8"/>
<path id="Vector_81" d="M98.1892 134.963C98.3602 135.11 98.5312 135.257 98.6975 135.4C98.3364 135.481 98.1321 135.376 98.1892 134.963Z" fill="#F8F8F8"/>
<path id="Vector_82" d="M102.027 135.405C102.198 135.257 102.365 135.11 102.536 134.963C102.597 135.376 102.393 135.485 102.027 135.405Z" fill="#F8F8F8"/>
<path id="Vector_83" d="M112.074 134.957C112.207 135.1 112.34 135.237 112.473 135.38C112.122 135.451 111.993 135.304 112.074 134.957Z" fill="#F8F8F8"/>
<path id="Vector_84" d="M120.559 135.405C120.739 135.258 120.924 135.106 121.105 134.958C121.157 135.4 120.92 135.481 120.559 135.405Z" fill="#F8F8F8"/>
<path id="Vector_85" d="M19.8689 61.4314C19.6884 61.5692 19.5126 61.707 19.332 61.8448C19.3463 61.6737 19.3653 61.5075 19.3795 61.3364C19.5458 61.3697 19.7074 61.3982 19.8689 61.4314Z" fill="#F7F7F7"/>
<path id="Vector_86" d="M105.075 103.107C106.994 102.632 107.379 103.502 107.398 105.312C107.417 107.222 106.937 107.796 104.951 107.82C102.828 107.844 102.638 106.998 102.571 105.217C102.495 103.155 103.36 102.77 105.075 103.107Z" fill="#F8F8F8"/>
<path id="Vector_87" d="M14.6956 61.3982C13.0897 61.3982 11.4887 61.3982 9.88281 61.3982C9.93032 56.8325 9.93032 56.8325 14.6956 56.5854C14.6956 58.1865 14.6956 59.7924 14.6956 61.3982Z" fill="#F8F8F8"/>
<path id="Vector_88" d="M10.1031 119.184C10.1031 116.984 9.23846 114.034 10.3264 112.78C11.614 111.297 14.6404 112.323 16.9018 112.338C19.1538 112.347 22.1707 111.273 23.4535 112.818C24.5605 114.143 23.7813 117.051 23.8098 119.26C23.8336 120.923 23.7385 122.586 23.8383 124.244C23.9286 125.693 23.6293 126.377 21.9332 126.31C18.5362 126.168 15.1297 126.201 11.7327 126.306C10.2409 126.353 9.80383 125.84 9.8941 124.41C10.0034 122.676 9.92261 120.932 9.92261 119.193C9.97962 119.184 10.0414 119.184 10.1031 119.184Z" fill="#F8F8F8"/>
<path id="Vector_89" d="M17.0249 10.3673C18.7637 10.3673 20.5026 10.4481 22.2367 10.3388C23.5337 10.2581 23.8236 10.7664 23.7998 11.9637C23.7285 15.5174 23.7095 19.0712 23.8093 22.625C23.8473 24.0598 23.2819 24.3163 22.0134 24.2878C18.5404 24.2165 15.0627 24.2308 11.5897 24.2783C10.4637 24.2926 9.85084 24.1215 9.8841 22.758C9.96962 19.1282 9.96962 15.4937 9.8841 11.8639C9.85084 10.4956 10.4637 10.3103 11.585 10.3483C13.3903 10.4101 15.21 10.3673 17.0249 10.3673Z" fill="#F8F8F8"/>
</g>
<defs>
<clipPath id="clip0_1095_42553">
<rect width="135" height="134.848" fill="white" transform="translate(0.5 0.775391)"/>
</clipPath>
</defs>
</svg>
