<svg width="19" height="18" viewBox="0 0 19 18" fill="none" xmlns="http://www.w3.org/2000/svg">
<g id="Frame" clip-path="url(#clip0_1151_827)">
<path id="Vector" d="M12.7344 13.5634C12.5333 13.7259 12.2985 13.7709 12.0468 13.7709C11.1103 13.7687 10.1745 13.7702 9.23806 13.7702C8.63904 13.7702 8.3768 13.9347 8.38453 14.3059C8.39227 14.6673 8.64467 14.8226 9.22119 14.8241C10.3679 14.8269 11.5146 14.8311 12.6613 14.8346C12.6613 15.8815 12.6613 16.9283 12.6613 17.9752C10.8636 17.9759 9.0644 18.0146 7.26806 17.9633C6.29571 17.9358 5.32196 17.7847 4.40234 17.4191C4.68287 17.0338 4.76513 16.5986 4.76161 16.129C4.75177 14.8901 4.75458 13.6513 4.76021 12.4125C4.76232 12.0054 4.69271 11.623 4.47406 11.275C6.10166 10.0811 7.71521 10.098 9.32594 11.3298C9.6142 11.5506 9.93129 11.668 10.2976 11.6638C10.8811 11.6581 11.4654 11.6638 12.0489 11.6616C12.2999 11.6609 12.5341 11.7073 12.7351 11.8683C12.6086 12.4329 12.6086 12.9982 12.7344 13.5634Z" fill="#FDC378"/>
<path id="Vector_2" d="M4.47152 11.2743C4.69018 11.6223 4.75978 12.0048 4.75767 12.4118C4.75134 13.6506 4.74924 14.8895 4.75908 16.1283C4.76259 16.5979 4.68033 17.0331 4.39981 17.4184C4.00468 17.8332 3.52449 18.0111 2.94938 17.9907C2.34122 17.9689 1.73166 17.9893 1.1228 17.9844C0.693224 17.9809 0.499177 17.7903 0.498474 17.3615C0.495662 15.3127 0.494959 13.2647 0.498474 11.2159C0.499177 10.8074 0.695334 10.6134 1.10241 10.6092C1.72322 10.6028 2.34403 10.6232 2.96414 10.6028C3.58425 10.5832 4.08483 10.7906 4.47152 11.2743Z" fill="#18ACE7"/>
<path id="Vector_3" d="M12.6602 17.975C12.6602 16.9281 12.6602 15.8812 12.6602 14.8343C13.4174 14.8962 13.9749 14.5658 14.4509 13.9949C15.1329 13.1772 15.8486 12.3877 16.5573 11.5925C16.9904 11.1067 17.5057 10.9949 17.9606 11.2677C18.4577 11.5651 18.625 12.1388 18.3944 12.7476C18.3227 12.9361 18.213 13.1013 18.0928 13.2602C17.2716 14.3408 16.461 15.4305 15.6236 16.4992C14.8748 17.4547 13.9011 17.9918 12.6602 17.975Z" fill="#FDB757"/>
<path id="Vector_4" d="M12.6559 0.00865683C15.2713 -0.124926 17.8094 1.90976 18.3746 4.66298C19.122 8.29996 16.271 11.513 12.8302 11.5903C12.7719 11.5917 12.7135 11.5833 12.6552 11.5798C12.6545 11.2332 12.653 10.8866 12.6523 10.5399C15.3549 10.521 17.4135 8.35832 17.4297 5.86453C17.4466 3.18583 15.3444 1.08014 12.6523 1.0492C12.6545 0.702587 12.6552 0.355973 12.6559 0.00865683Z" fill="#FECB34"/>
<path id="Vector_5" d="M12.6545 10.5399C12.6553 10.8866 12.6567 11.2332 12.6574 11.5798C9.96179 11.6937 7.48839 9.61118 6.94281 6.76867C6.29387 3.38831 9.05413 0.0156823 12.483 -0.000488281C12.5414 -0.000488281 12.5997 0.00583935 12.6581 0.00865163C12.6574 0.355265 12.656 0.701879 12.6553 1.04849L12.6581 1.05341C10.0574 1.02529 7.9489 3.2723 7.92219 5.74078C7.89406 8.31472 10.0743 10.566 12.6581 10.5343L12.6545 10.5399Z" fill="#FDDA42"/>
<path id="Vector_6" d="M12.7353 13.5635C12.6094 12.9982 12.6087 12.4329 12.7353 11.8677C13.3533 12.3683 13.3533 13.0657 12.7353 13.5635Z" fill="#FDB758"/>
<path id="Vector_7" d="M12.6562 1.04932C15.3483 1.08025 17.4505 3.18665 17.4336 5.86464C17.4174 8.35843 15.3589 10.5211 12.6562 10.5401L12.6591 10.5351C12.6584 10.1864 12.6584 9.83699 12.6577 9.48827C13.1027 9.48194 13.2018 9.17118 13.1814 8.60029C13.1744 8.40695 13.2159 8.32539 13.3685 8.25016C14.2178 7.83113 14.2979 7.07955 14.1742 6.42218C14.0385 5.70294 13.27 5.21782 12.6577 5.26282C12.6577 4.9148 12.6577 4.56678 12.6577 4.21876C12.9185 4.20329 13.0844 4.38679 13.2728 4.51826C13.5203 4.69052 13.8079 4.67364 13.9928 4.45358C14.1868 4.22368 14.1812 3.98393 13.9865 3.75473C13.888 3.63872 13.7826 3.5192 13.6335 3.4735C13.2342 3.35187 13.095 3.09314 13.1463 2.68395C13.1899 2.33875 13.0261 2.1229 12.6577 2.10041C12.6584 1.75168 12.6584 1.40226 12.6591 1.05353C12.6591 1.05424 12.6562 1.04932 12.6562 1.04932Z" fill="#FD9923"/>
<path id="Vector_8" d="M12.6587 1.05397C12.658 1.40269 12.658 1.75212 12.6573 2.10084V2.10998C12.4 2.10225 12.232 2.22529 12.1757 2.47277C12.1349 2.65275 12.1033 2.83907 12.104 3.02257C12.1047 3.19974 12.0379 3.29044 11.8846 3.3734C11.1028 3.79665 11.0135 4.49198 11.1422 5.1599C11.2716 5.83063 11.9444 6.31364 12.6573 6.31645V6.32559C12.6573 6.67361 12.6573 7.02233 12.6573 7.37035V7.37949C12.3416 7.357 12.1328 7.14889 11.9191 6.95062C11.7075 6.75376 11.4712 6.74111 11.2596 6.91969C11.048 7.09827 10.9496 7.32114 11.1387 7.59604C11.2674 7.78235 11.4009 7.97429 11.6104 8.04952C12.0632 8.21123 12.1476 8.56698 12.1617 8.97546C12.1722 9.29606 12.3234 9.47605 12.6566 9.47886V9.488C12.6573 9.83672 12.6573 10.1861 12.658 10.5349C10.0735 10.5665 7.89402 8.31528 7.92214 5.74134C7.94956 3.27216 10.0581 1.02585 12.6587 1.05397Z" fill="#FDA832"/>
<path id="Vector_9" d="M12.6562 5.26314C13.2679 5.21814 14.0371 5.70396 14.1728 6.4225C14.2965 7.07987 14.2171 7.83145 13.3671 8.25048C13.2145 8.32571 13.173 8.40727 13.18 8.60061C13.2004 9.1715 13.1013 9.48226 12.6562 9.48859V9.47945C12.6562 8.77989 12.6562 8.08034 12.6562 7.38008V7.37094C12.9417 7.31048 13.1505 7.17971 13.1505 6.84856C13.1505 6.51742 12.9417 6.38664 12.6562 6.32618V6.31704C12.6562 5.96902 12.6562 5.6203 12.6562 5.27228V5.26314Z" fill="#FECB33"/>
<path id="Vector_10" d="M12.657 2.10107C13.0261 2.12287 13.1892 2.33941 13.1456 2.68462C13.0943 3.09381 13.2328 3.35254 13.6328 3.47417C13.7819 3.51987 13.8873 3.63939 13.9858 3.7554C14.1805 3.9846 14.1854 4.22364 13.9921 4.45425C13.8072 4.67431 13.5196 4.69048 13.2721 4.51893C13.0837 4.38746 12.9178 4.20466 12.657 4.21942L12.6562 4.21028C12.6562 3.51073 12.6562 2.81118 12.6562 2.11162L12.657 2.10107Z" fill="#FECB33"/>
<path id="Vector_11" d="M12.6553 4.21883C12.6553 4.56685 12.6553 4.91487 12.6553 5.26289L12.6546 5.27203C12.3326 5.25234 12.1659 5.08571 12.1603 4.75808C12.1547 4.4185 12.3108 4.23078 12.6546 4.20898L12.6553 4.21883Z" fill="#FDA932"/>
<path id="Vector_12" d="M12.6576 4.20914C12.3138 4.23094 12.157 4.41866 12.1633 4.75824C12.169 5.08517 12.3356 5.2518 12.6576 5.27219C12.6576 5.62091 12.6576 5.96893 12.6576 6.31765C11.9447 6.31484 11.2718 5.83183 11.1425 5.1611C11.0131 4.49319 11.1031 3.79785 11.8849 3.3746C12.0375 3.29164 12.1043 3.20094 12.1043 3.02377C12.1036 2.84027 12.1352 2.65395 12.176 2.47397C12.2322 2.22649 12.4003 2.10345 12.6576 2.11118C12.6576 2.81003 12.6576 3.50959 12.6576 4.20914Z" fill="#FDD941"/>
<path id="Vector_13" d="M12.6577 7.37979C12.6577 8.07935 12.6577 8.7796 12.6577 9.47916C12.3244 9.47635 12.1739 9.29566 12.1627 8.97576C12.1486 8.56728 12.0643 8.21152 11.6115 8.04982C11.402 7.97459 11.2684 7.78265 11.1397 7.59634C10.9506 7.32144 11.049 7.09856 11.2607 6.91998C11.4723 6.7414 11.7078 6.75476 11.9201 6.95092C12.1332 7.14918 12.342 7.35729 12.6577 7.37979Z" fill="#FDD941"/>
<path id="Vector_14" d="M12.6562 6.32568C12.9417 6.38615 13.1505 6.51692 13.1505 6.84806C13.1505 7.17921 12.9417 7.30998 12.6562 7.37045C12.6562 7.02243 12.6562 6.67441 12.6562 6.32568Z" fill="#FD9923"/>
</g>
<defs>
<clipPath id="clip0_1151_827">
<rect width="18" height="17.993" fill="white" transform="translate(0.5)"/>
</clipPath>
</defs>
</svg>
