<svg width="20" height="20" viewBox="0 0 20 20" fill="none" xmlns="http://www.w3.org/2000/svg">
<path d="M10.2817 12.8594C11.8601 12.8594 13.1397 11.5798 13.1397 10.0015C13.1397 8.42309 11.8601 7.14355 10.2817 7.14355C8.70336 7.14355 7.42383 8.42309 7.42383 10.0015C7.42383 11.5798 8.70336 12.8594 10.2817 12.8594Z" fill="white"/>
<path d="M19.2789 9.20997C17.0821 6.55533 13.7568 4 10.2819 4C6.80629 4 3.48015 6.55712 1.28481 9.20997C0.905064 9.66867 0.905064 10.3346 1.28481 10.7933C1.83674 11.4602 2.99384 12.7477 4.53925 13.8727C8.43134 16.706 12.1238 16.7122 16.0245 13.8727C17.5699 12.7477 18.727 11.4602 19.2789 10.7933C19.6576 10.3355 19.6595 9.67017 19.2789 9.20997ZM10.2819 6.00054C12.4882 6.00054 14.2829 7.79531 14.2829 10.0016C14.2829 12.2079 12.4882 14.0027 10.2819 14.0027C8.07556 14.0027 6.28079 12.2079 6.28079 10.0016C6.28079 7.79531 8.07556 6.00054 10.2819 6.00054Z" fill="white"/>
</svg>
