<svg width="25" height="24" viewBox="0 0 25 24" fill="none" xmlns="http://www.w3.org/2000/svg">
<g id="google-symbol 1" clip-path="url(#clip0_1102_52085)">
<g id="Group">
<path id="Vector" d="M24.3073 9.91638C24.414 9.91638 24.5005 10.0029 24.5005 10.1096V12.1377C24.5005 12.8968 24.43 13.639 24.2947 14.359C23.2486 19.9516 18.3216 24.1781 12.4159 24.1374C5.78919 24.0917 0.485847 18.7374 0.500519 12.1106C0.515097 5.49579 5.88219 0.137695 12.5005 0.137695C15.743 0.137695 18.6849 1.42404 20.8449 3.51354C20.9229 3.58896 20.9249 3.71327 20.8482 3.78996L17.9789 6.65923C17.905 6.7331 17.7857 6.73502 17.71 6.66298C16.3543 5.37255 14.5201 4.58032 12.5005 4.58032C8.32996 4.58032 4.9716 7.91482 4.94328 12.0852C4.91483 16.283 8.30933 19.695 12.5005 19.695C15.901 19.695 18.7772 17.4486 19.7256 14.359H12.6936C12.587 14.359 12.5005 14.2725 12.5005 14.1658V10.1095C12.5005 10.0028 12.587 9.91634 12.6936 9.91634H24.3073V9.91638Z" fill="#2196F3"/>
<g id="Group_2">
<path id="Vector_2" d="M24.3064 9.9165H22.8577C22.9644 9.9165 23.0509 10.003 23.0509 10.1097V12.1378C23.0509 12.8969 22.9804 13.6391 22.8451 14.3591C21.8471 19.6945 17.3169 23.7865 11.7744 24.1162C11.9865 24.1287 12.1999 24.136 12.4149 24.1375C18.3207 24.1782 23.2477 19.9517 24.2938 14.3591C24.429 13.6391 24.4995 12.8969 24.4995 12.1378V10.1096C24.4995 10.003 24.413 9.9165 24.3064 9.9165Z" fill="#1E88E5"/>
</g>
<path id="Vector_3" d="M5.63614 8.97279L1.9917 6.33954C4.03629 2.64152 7.97623 0.137695 12.5005 0.137695C15.743 0.137695 18.685 1.42404 20.8449 3.51354C20.9229 3.58896 20.9249 3.71327 20.8482 3.78996L17.9789 6.65923C17.9052 6.73296 17.7859 6.73526 17.7103 6.66335C16.3547 5.3727 14.5203 4.58037 12.5005 4.58037C9.45682 4.58037 6.83323 6.37962 5.63614 8.97279Z" fill="#F44336"/>
<path id="Vector_4" d="M4.5835 8.21282L5.63561 8.973C6.72826 6.60609 9.00957 4.90143 11.7138 4.62182C11.7341 4.61961 11.7537 4.61694 11.7744 4.61497C11.5364 4.59238 11.2952 4.58057 11.0513 4.58057C8.30176 4.58057 5.90551 6.03008 4.5835 8.21282Z" fill="#E53935"/>
<path id="Vector_5" d="M19.3956 3.51354C19.4736 3.58896 19.4756 3.71327 19.3989 3.79001L17.07 6.1189C17.2931 6.28859 17.5067 6.47009 17.7093 6.66302C17.785 6.73507 17.9044 6.73315 17.9783 6.65927L20.8475 3.79001C20.9243 3.71327 20.9222 3.58901 20.8442 3.51354C18.6843 1.42404 15.7423 0.137695 12.4998 0.137695C12.2565 0.137695 12.0151 0.145805 11.7754 0.160102C14.7304 0.336117 17.3976 1.58079 19.3956 3.51354Z" fill="#E53935"/>
<path id="Vector_6" d="M21.3022 20.2931C19.1108 22.6578 15.9778 24.1379 12.4995 24.1379C7.80138 24.1379 3.73394 21.438 1.76416 17.5048L5.48486 14.9551C6.60138 17.7332 9.32154 19.6952 12.4995 19.6952C14.4938 19.6952 16.3076 18.9226 17.6578 17.6603L21.3022 20.2931Z" fill="#4CAF50"/>
<path id="Vector_7" d="M5.48534 14.9551L4.38818 15.7069C5.66248 18.0808 8.16837 19.6952 11.0512 19.6952C11.295 19.6952 11.536 19.6832 11.7739 19.6607C8.91223 19.3879 6.51575 17.5191 5.48534 14.9551Z" fill="#43A047"/>
<path id="Vector_8" d="M12.4999 24.1376C15.9782 24.1376 19.1112 22.6576 21.3026 20.2928L20.41 19.6479C18.3524 22.2087 15.2656 23.9075 11.7773 24.1158C12.0164 24.13 12.2573 24.1376 12.4999 24.1376Z" fill="#43A047"/>
<path id="Vector_9" d="M4.94267 12.1375C4.94267 13.1332 5.13533 14.0841 5.48544 14.9547L1.76469 17.5044C0.955391 15.8896 0.5 14.0667 0.5 12.1375C0.5 10.0345 1.04084 8.05798 1.99119 6.33936L5.63562 8.97261C5.19088 9.935 4.94267 11.0075 4.94267 12.1375Z" fill="#FFC107"/>
<path id="Vector_10" d="M4.38846 15.7066L5.48562 14.9547C5.13551 14.0841 4.94285 13.1332 4.94285 12.1375C4.94285 11.0075 5.19105 9.93497 5.6358 8.97258L4.58369 8.2124C3.90049 9.34045 3.50398 10.6642 3.49432 12.0851C3.48541 13.3954 3.81012 14.6292 4.38846 15.7066Z" fill="#FFB300"/>
</g>
</g>
<defs>
<clipPath id="clip0_1102_52085">
<rect width="24" height="24" fill="white" transform="translate(0.5 0.137695)"/>
</clipPath>
</defs>
</svg>
