<svg width="19" height="18" viewBox="0 0 19 18" fill="none" xmlns="http://www.w3.org/2000/svg">
<g id="Frame">
<g id="Group">
<path id="Vector" d="M16.2503 7.59375L17.9362 5.90625L12.8756 0.5625L5.90625 7.59375" fill="#F2C351"/>
<path id="Vector_2" d="M10.8828 7.78523L14.6448 4.02295L15.0428 4.42092L11.2805 8.18292L10.8828 7.78523ZM13.8016 6.55448L15.4888 4.86698L15.8863 5.26523L14.199 6.95245L13.8016 6.55448Z" fill="#F9D18B"/>
<path id="Vector_3" d="M8.67081 5.98871L7.87543 6.78409C7.84929 6.81018 7.82855 6.84118 7.8144 6.8753C7.80025 6.90942 7.79297 6.94599 7.79297 6.98293C7.79297 7.01987 7.80025 7.05644 7.8144 7.09056C7.82855 7.12468 7.84929 7.15568 7.87543 7.18178L9.06849 8.37484C9.09459 8.40098 9.12559 8.42172 9.15971 8.43587C9.19383 8.45002 9.2304 8.4573 9.26734 8.4573C9.30428 8.4573 9.34085 8.45002 9.37497 8.43587C9.40909 8.42172 9.44009 8.40098 9.46618 8.37484L10.2616 7.57946C10.2877 7.55337 10.3084 7.52237 10.3226 7.48825C10.3367 7.45413 10.344 7.41756 10.344 7.38062C10.344 7.34368 10.3367 7.30711 10.3226 7.27299C10.3084 7.23887 10.2877 7.20787 10.2616 7.18178L9.86387 6.78409L9.46618 7.18178L9.66503 7.38062L9.26734 7.77831L8.47196 6.98293L8.86965 6.58524L9.06849 6.78409L9.46618 6.3864L9.06849 5.98871C9.0424 5.96257 9.0114 5.94183 8.97728 5.92768C8.94316 5.91353 8.90659 5.90625 8.86965 5.90625C8.83271 5.90625 8.79614 5.91353 8.76202 5.92768C8.7279 5.94183 8.6969 5.96257 8.67081 5.98871Z" fill="#C16B3F"/>
<g id="Group_2">
<path id="Vector_4" d="M12.8453 2.60767L13.243 2.2097L12.845 1.81201L11.6517 3.00536L12.0496 3.40304L12.4473 3.00564L13.6407 4.1987L14.0386 3.80073L12.8453 2.60767ZM11.0554 5.30936H10.6501L10.7255 5.08323C10.742 5.03371 10.7444 4.98056 10.7325 4.92975C10.7205 4.87893 10.6946 4.83245 10.6577 4.79551L10.26 4.39754L9.86206 4.79523L10.1371 5.07029L9.938 5.66682L9.46438 5.1932L9.06641 5.59117L10.6574 7.1822L11.0554 6.78423L10.3827 6.11148L10.4625 5.87214H10.9387L11.4528 6.38654L11.8508 5.98886L11.2543 5.39204C11.2282 5.3658 11.1972 5.34498 11.1631 5.33078C11.129 5.31659 11.0924 5.30931 11.0554 5.30936ZM12.0496 4.99407L11.8508 4.79523L12.4473 4.1987L12.0493 3.80073L11.4528 4.39726L11.2543 4.19842L11.8508 3.60189L11.4528 3.20392L10.6574 3.99957C10.6048 4.0524 10.5752 4.12396 10.5752 4.19856C10.5752 4.27316 10.6048 4.34472 10.6574 4.39754L11.8505 5.59089C11.8766 5.617 11.9076 5.63771 11.9417 5.6518C11.9758 5.66589 12.0124 5.6731 12.0493 5.67301C12.0863 5.67312 12.1229 5.66593 12.1571 5.65183C12.1913 5.63774 12.2223 5.61703 12.2485 5.59089L13.0441 4.79523L12.6462 4.39726L12.0496 4.99407Z" fill="#C16B3F"/>
</g>
<path id="Vector_5" d="M6.12533 14.9062H17.9378V7.59375H6.12533C6.12533 7.87809 5.9577 8.12503 5.7102 8.26538C5.56481 8.34758 5.44707 8.47108 5.3719 8.62024C5.29673 8.76939 5.2675 8.93749 5.28792 9.10327C5.30834 9.26904 5.37748 9.42503 5.4866 9.55149C5.59571 9.67794 5.73989 9.76918 5.90089 9.81366C6.02942 9.84881 6.12533 9.95512 6.12533 10.0884V10.1616C6.12533 10.2949 6.02942 10.4009 5.90089 10.4363C5.72279 10.4855 5.56573 10.5917 5.4538 10.7386C5.34187 10.8856 5.28125 11.0653 5.28125 11.25C5.28125 11.4347 5.34187 11.6144 5.4538 11.7614C5.56573 11.9083 5.72279 12.0145 5.90089 12.0637C6.02942 12.0988 6.12533 12.2051 6.12533 12.3384V12.4116C6.12533 12.5449 6.02942 12.6509 5.90089 12.6863C5.73989 12.7308 5.59571 12.8221 5.4866 12.9485C5.37748 13.075 5.30834 13.231 5.28792 13.3967C5.2675 13.5625 5.29673 13.7306 5.3719 13.8798C5.44707 14.0289 5.56481 14.1524 5.7102 14.2346C5.9577 14.375 6.12533 14.6219 6.12533 14.9062Z" fill="#F7D881"/>
<path id="Vector_6" d="M8.94577 14.9062L6.41452 17.4375C6.21343 17.2364 6.15718 16.9433 6.23312 16.6691C6.27768 16.5082 6.27352 16.3376 6.22115 16.179C6.16877 16.0205 6.07055 15.881 5.9389 15.7782C5.80724 15.6755 5.64807 15.6141 5.48152 15.6018C5.31497 15.5895 5.14851 15.6269 5.00321 15.7092C4.88733 15.775 4.74446 15.7677 4.65024 15.6735L4.59849 15.6217C4.50427 15.5275 4.49696 15.3847 4.56277 15.2688C4.6269 15.1563 4.6629 15.032 4.67077 14.9062" fill="#C66B60"/>
<path id="Vector_7" d="M1.0625 14.9062C1.0625 14.6219 1.23013 14.375 1.47763 14.2346C1.62302 14.1524 1.74075 14.0289 1.81592 13.8798C1.89109 13.7306 1.92032 13.5625 1.8999 13.3967C1.87949 13.231 1.81034 13.075 1.70123 12.9485C1.59211 12.8221 1.44793 12.7308 1.28694 12.6863C1.15841 12.6512 1.0625 12.5449 1.0625 12.4116V12.3384C1.0625 12.2051 1.15841 12.0991 1.28694 12.0637C1.46503 12.0145 1.6221 11.9083 1.73403 11.7614C1.84596 11.6144 1.90658 11.4347 1.90658 11.25C1.90658 11.0653 1.84596 10.8856 1.73403 10.7386C1.6221 10.5917 1.46503 10.4855 1.28694 10.4363C1.15841 10.4012 1.0625 10.2949 1.0625 10.1616V10.0884C1.0625 9.95512 1.15841 9.84909 1.28694 9.81366C1.44793 9.76918 1.59211 9.67794 1.70123 9.55149C1.81034 9.42503 1.87949 9.26904 1.8999 9.10327C1.92032 8.93749 1.89109 8.76939 1.81592 8.62024C1.74075 8.47108 1.62302 8.34758 1.47763 8.26538C1.23013 8.12503 1.0625 7.87809 1.0625 7.59375H6.125C6.125 7.87809 5.95738 8.12503 5.70988 8.26538C5.56448 8.34758 5.44675 8.47108 5.37158 8.62024C5.29641 8.76939 5.26718 8.93749 5.2876 9.10327C5.30801 9.26904 5.37715 9.42503 5.48627 9.55149C5.59539 9.67794 5.73957 9.76918 5.90056 9.81366C6.02909 9.84881 6.125 9.95512 6.125 10.0884V10.1616C6.125 10.2949 6.02909 10.4009 5.90056 10.4363C5.72247 10.4855 5.5654 10.5917 5.45347 10.7386C5.34154 10.8856 5.28092 11.0653 5.28092 11.25C5.28092 11.4347 5.34154 11.6144 5.45347 11.7614C5.5654 11.9083 5.72247 12.0145 5.90056 12.0637C6.02909 12.0988 6.125 12.2051 6.125 12.3384V12.4116C6.125 12.5449 6.02909 12.6509 5.90056 12.6863C5.73957 12.7308 5.59539 12.8221 5.48627 12.9485C5.37715 13.075 5.30801 13.231 5.2876 13.3967C5.26718 13.5625 5.29641 13.7306 5.37158 13.8798C5.44675 14.0289 5.56448 14.1524 5.70988 14.2346C5.95738 14.375 6.125 14.6219 6.125 14.9062H1.0625Z" fill="#E47C6E"/>
<path id="Vector_8" d="M2.75 8.71875H4.43722V9.28125H2.75V8.71875ZM2.75 9.84375H4.43722V10.4062H2.75V9.84375ZM2.75 10.9688H4.43722V11.5312H2.75V10.9688ZM2.75 12.0938H4.43722V12.6562H2.75V12.0938ZM2.75 13.2188H4.43722V13.7812H2.75V13.2188Z" fill="#C66B60"/>
<g id="Group_3">
<path id="Vector_9" d="M6.96875 8.99972H7.53125V10.6872H8.09347V8.99972H8.65597V8.4375H6.96875V8.99972ZM17.0938 8.4375H15.4065V8.99972H15.969V10.6872H16.5312V8.99972H17.0938V8.4375ZM8.9375 8.4375H9.49972V10.6875H8.9375V8.4375ZM11.1872 8.4375H10.0625C9.98791 8.4375 9.91637 8.46713 9.86363 8.51988C9.81088 8.57262 9.78125 8.64416 9.78125 8.71875V10.4062C9.78125 10.4808 9.81088 10.5524 9.86363 10.6051C9.91637 10.6579 9.98791 10.6875 10.0625 10.6875H11.1872C11.2618 10.6875 11.3333 10.6579 11.3861 10.6051C11.4388 10.5524 11.4685 10.4808 11.4685 10.4062V9.84375H10.906V10.125H10.3438V9H10.906V9.28125H11.4685V8.71875C11.4685 8.64416 11.4388 8.57262 11.3861 8.51988C11.3333 8.46713 11.2618 8.4375 11.1872 8.4375ZM12.8747 8.82591L12.3122 9.10716V8.4375H11.75V10.6875H12.3122V9.73631L12.5381 9.62353L12.875 9.96047V10.6875H13.4372V9.84375C13.4373 9.80679 13.4301 9.77017 13.416 9.73601C13.4019 9.70184 13.3812 9.67078 13.3551 9.64462L13.0685 9.35803L13.2817 9.25144C13.3284 9.2281 13.3677 9.19221 13.3952 9.1478C13.4226 9.1034 13.4372 9.05222 13.4372 9V8.4375H12.8747V8.82591ZM13.7188 8.71875V10.4062C13.7188 10.4808 13.7484 10.5524 13.8011 10.6051C13.8539 10.6579 13.9254 10.6875 14 10.6875H15.1247V10.125H14.2812V9.84375H15.1247V9.28125H14.2812V9H15.1247V8.4375H14C13.9254 8.4375 13.8539 8.46713 13.8011 8.51988C13.7484 8.57262 13.7188 8.64416 13.7188 8.71875Z" fill="#C16B3F"/>
</g>
<path id="Vector_10" d="M6.96875 11.25H17.0935V11.8125H6.96875V11.25ZM13.1562 12.375H17.0935V12.9375H13.1562V12.375Z" fill="#F2C351"/>
<path id="Vector_11" d="M7.25 12.6562H11.75V13.7812H7.25V12.6562Z" fill="#C16B3F"/>
<path id="Vector_12" d="M7.25 12.6562V13.7812H10.2616C10.6229 13.4791 10.9042 13.0928 11.0809 12.6562H7.25Z" fill="#E39854"/>
</g>
</g>
</svg>
