<svg width="25" height="25" viewBox="0 0 25 25" fill="none" xmlns="http://www.w3.org/2000/svg">
<g id="Frame" clip-path="url(#clip0_1093_38505)">
<path id="Vector" d="M0.332281 12.4C0.332281 8.81789 0.332281 5.2348 0.333282 1.65271C0.333282 0.530059 0.86159 0.000750438 1.98124 0.000750438C5.6794 -0.000250146 9.37856 -0.000250146 13.0767 0.000750438C14.2004 0.000750438 14.7307 0.529059 14.7317 1.64571C14.7327 3.47878 14.7437 5.31185 14.7227 7.14492C14.7187 7.51714 14.8097 7.61419 15.1859 7.61119C17.6844 7.59318 20.1839 7.60118 22.6833 7.60218C23.802 7.60218 24.3313 8.13249 24.3313 9.25415C24.3323 11.5035 24.3333 13.7528 24.3313 16.0031C24.3303 17.0547 23.783 17.602 22.7313 17.603C20.2159 17.605 17.6994 17.613 15.1839 17.594C14.8027 17.591 14.7187 17.6951 14.7237 18.0623C14.7447 19.7783 14.7347 21.4953 14.7317 23.2113C14.7297 24.2589 14.1814 24.8032 13.1237 24.8042C9.39157 24.8062 5.65939 24.8062 1.92821 24.8042C0.8786 24.8032 0.333282 24.2549 0.333282 23.1993C0.331281 19.5992 0.332281 15.9991 0.332281 12.4ZM13.9322 12.398C13.9322 8.8329 13.9322 5.26682 13.9322 1.70174C13.9322 0.963312 13.7671 0.802218 13.0197 0.801217C12.5034 0.800217 11.9871 0.797215 11.4708 0.802218C11.0725 0.80622 10.5793 0.683149 10.3051 0.872259C10.063 1.03836 10.0439 1.55566 9.9659 1.92587C9.88986 2.29009 9.69174 2.41216 9.33453 2.40615C8.43501 2.39114 7.53548 2.40115 6.63596 2.40115C5.28817 2.40115 5.28317 2.40215 4.90595 1.10439C4.84091 0.879263 4.74686 0.78921 4.49971 0.794213C3.68224 0.811223 2.86576 0.799216 2.05028 0.800217C1.29784 0.801217 1.13275 0.961311 1.13275 1.69674C1.13275 8.8279 1.13275 15.9581 1.13275 23.0892C1.13275 23.8377 1.29484 24.0028 2.03227 24.0028C5.69741 24.0038 9.36155 24.0038 13.0267 24.0028C13.7671 24.0028 13.9312 23.8377 13.9312 23.0942C13.9322 19.5291 13.9322 15.9631 13.9322 12.398ZM18.9481 16.8026C20.2139 16.8026 21.4806 16.8066 22.7464 16.8006C23.3187 16.7985 23.5278 16.5894 23.5298 16.0161C23.5348 14.6993 23.5178 13.3836 23.5398 12.0668C23.5458 11.6896 23.4338 11.5915 23.0625 11.5935C20.5301 11.6095 17.9976 11.5975 15.4661 11.6045C14.6456 11.6065 14.7557 11.4594 14.7257 12.351C14.7147 12.6892 14.8017 12.8382 15.1649 12.8082C15.5121 12.7792 15.8643 12.8052 16.2135 12.8012C16.5668 12.7972 16.7338 12.9663 16.7318 13.3195C16.7278 14.0359 16.7258 14.7524 16.7328 15.4688C16.7359 15.851 16.5527 16.0131 16.1805 16.0041C15.8313 15.9951 15.4801 16.0181 15.1309 15.9981C14.8347 15.9811 14.7237 16.0711 14.7207 16.3863C14.7177 16.7165 14.8227 16.8136 15.1479 16.8086C16.4157 16.7925 17.6814 16.8026 18.9481 16.8026ZM19.0912 10.8021C20.438 10.8021 21.7858 10.79 23.1326 10.8101C23.4678 10.8151 23.5488 10.711 23.5418 10.3928C23.5358 10.1056 23.4908 9.99258 23.1636 9.99458C20.469 10.0096 17.7745 10.0106 15.0809 9.99358C14.7247 9.99158 14.7347 10.1547 14.7247 10.4118C14.7127 10.701 14.7717 10.8161 15.0999 10.8111C16.4297 10.79 17.7604 10.8021 19.0912 10.8021ZM19.1383 9.20112C20.454 9.20112 21.7688 9.20412 23.0846 9.19611C23.2326 9.19511 23.4548 9.29517 23.5118 9.06804C23.5688 8.83991 23.4488 8.64779 23.2567 8.51372C23.1136 8.41366 22.9495 8.39965 22.7804 8.39965C20.2329 8.40165 17.6854 8.40465 15.1379 8.39565C14.8518 8.39465 14.7217 8.45368 14.7217 8.77787C14.7227 9.09906 14.8077 9.21112 15.1429 9.20712C16.4747 9.19111 17.8065 9.20112 19.1383 9.20112ZM7.53248 0.800217C7.0502 0.800217 6.56792 0.78821 6.08764 0.808222C5.95956 0.813224 5.68941 0.671142 5.71642 0.953306C5.73844 1.18444 5.6764 1.57367 6.03761 1.58668C7.03319 1.6207 8.03177 1.6207 9.02735 1.58668C9.38857 1.57467 9.32653 1.18444 9.34854 0.953306C9.37556 0.671142 9.1064 0.813224 8.97732 0.808222C8.49704 0.78921 8.01376 0.800217 7.53248 0.800217ZM14.7327 14.3151C14.7327 14.4372 14.7457 14.5222 14.7307 14.6023C14.6366 15.1026 14.8377 15.2216 15.334 15.2246C15.8383 15.2276 16.0124 15.0956 15.9384 14.5993C15.9024 14.3561 15.9334 14.104 15.9314 13.8558C15.9304 13.7438 15.9534 13.6057 15.7773 13.6077C15.4491 13.6107 15.0849 13.5396 14.8047 13.6597C14.6106 13.7418 14.7717 14.114 14.7327 14.3151Z" fill="white"/>
<path id="Vector_2" d="M13.9323 12.3981C13.9323 15.9632 13.9323 19.5292 13.9323 23.0943C13.9323 23.8388 13.7682 24.0028 13.0278 24.0028C9.36261 24.0038 5.69848 24.0038 2.03334 24.0028C1.29591 24.0028 1.13381 23.8378 1.13381 23.0893C1.13281 15.9582 1.13281 8.828 1.13281 1.69684C1.13281 0.961407 1.29791 0.801314 2.05035 0.800313C2.86682 0.799313 3.6833 0.81132 4.49878 0.793309C4.74692 0.788306 4.83998 0.878359 4.90501 1.10349C5.28223 2.40125 5.28724 2.40025 6.63502 2.40025C7.53455 2.40025 8.43407 2.39024 9.3336 2.40525C9.6908 2.41125 9.88892 2.28918 9.96496 1.92497C10.042 1.55475 10.062 1.03845 10.3042 0.871355C10.5793 0.682245 11.0716 0.805316 11.4698 0.801314C11.9861 0.796311 12.5024 0.799313 13.0187 0.800313C13.7662 0.801314 13.9313 0.962408 13.9313 1.70084C13.9323 5.26692 13.9323 8.832 13.9323 12.3981ZM12.3323 12.3981C12.3353 9.78055 10.1871 7.61229 7.57757 7.60128C4.89801 7.59027 2.72774 9.74153 2.73175 12.4061C2.73575 15.0556 4.887 17.2039 7.53555 17.2019C10.1821 17.2009 12.3293 15.0496 12.3323 12.3981ZM7.53755 22.8031C7.03926 22.8031 6.53997 22.8051 6.04168 22.8021C5.75251 22.8001 5.53438 22.9072 5.54539 23.2224C5.55539 23.5056 5.76351 23.6056 6.03067 23.6046C7.02825 23.6026 8.02583 23.6026 9.02342 23.6046C9.31258 23.6056 9.53071 23.4996 9.5197 23.1844C9.5107 22.9002 9.30158 22.8011 9.03442 22.8021C8.53513 22.8051 8.03684 22.8031 7.53755 22.8031Z" fill="#F6F6F6"/>
<path id="Vector_3" d="M18.9482 16.8028C17.6824 16.8028 16.4157 16.7928 15.15 16.8098C14.8248 16.8138 14.7197 16.7167 14.7227 16.3876C14.7257 16.0724 14.8368 15.9813 15.133 15.9993C15.4812 16.0193 15.8324 15.9973 16.1826 16.0053C16.5558 16.0143 16.7389 15.8522 16.7349 15.47C16.7289 14.7536 16.7309 14.0372 16.7339 13.3208C16.7359 12.9686 16.5688 12.7985 16.2156 12.8025C15.8654 12.8065 15.5142 12.7804 15.167 12.8095C14.8028 12.8395 14.7157 12.6904 14.7277 12.3522C14.7577 11.4607 14.6477 11.6078 15.4682 11.6058C18.0006 11.5988 20.5331 11.6108 23.0646 11.5948C23.4358 11.5928 23.5489 11.6908 23.5419 12.068C23.5189 13.3838 23.5369 14.7006 23.5319 16.0173C23.5299 16.5907 23.3207 16.7998 22.7484 16.8018C21.4797 16.8068 20.2139 16.8028 18.9482 16.8028ZM20.4821 13.6019C21.0634 13.6019 21.6448 13.6009 22.2261 13.6019C22.5143 13.6019 22.7334 13.4919 22.7184 13.1777C22.7054 12.8945 22.4923 12.8005 22.2271 12.8015C21.0974 12.8035 19.9688 12.8025 18.8391 12.8025C18.551 12.8025 18.3318 12.9115 18.3468 13.2267C18.3598 13.5099 18.573 13.6049 18.8381 13.6039C19.3854 13.5999 19.9338 13.6019 20.4821 13.6019ZM20.5291 14.8026C21.0774 14.8026 21.6247 14.7996 22.1731 14.8036C22.4722 14.8066 22.7304 14.7296 22.7174 14.3804C22.7054 14.0652 22.4572 13.9992 22.1801 14.0002C21.0844 14.0042 19.9878 14.0042 18.8922 14.0002C18.593 13.9992 18.3348 14.0742 18.3478 14.4224C18.3598 14.7376 18.608 14.8056 18.8851 14.8026C19.4325 14.7986 19.9808 14.8026 20.5291 14.8026ZM21.5187 15.2039C21.2705 15.2039 21.0214 15.1989 20.7732 15.2049C20.5241 15.2109 20.352 15.3359 20.344 15.5911C20.336 15.8472 20.5021 15.9923 20.7502 15.9973C21.2635 16.0093 21.7778 16.0053 22.2911 15.9993C22.5393 15.9963 22.7164 15.8682 22.7204 15.6141C22.7244 15.3309 22.5353 15.2069 22.2651 15.2039C22.016 15.2009 21.7668 15.2029 21.5187 15.2039Z" fill="#E1E2E2"/>
<path id="Vector_4" d="M19.0904 10.8022C17.7596 10.8022 16.4289 10.7902 15.0991 10.8102C14.7719 10.8152 14.7129 10.7001 14.7239 10.4109C14.7339 10.1538 14.7239 9.99069 15.0801 9.99269C17.7746 10.0097 20.4692 10.0077 23.1628 9.99369C23.49 9.99169 23.535 10.1058 23.541 10.3919C23.547 10.7111 23.466 10.8142 23.1318 10.8092C21.785 10.7902 20.4382 10.8022 19.0904 10.8022Z" fill="#F6F6F6"/>
<path id="Vector_5" d="M19.1402 9.20145C17.8085 9.20145 16.4757 9.19145 15.1439 9.20846C14.8097 9.21246 14.7237 9.09939 14.7227 8.77921C14.7217 8.45502 14.8517 8.39598 15.1389 8.39699C17.6864 8.40499 20.2339 8.40199 22.7814 8.40099C22.9515 8.40099 23.1156 8.415 23.2576 8.51505C23.4498 8.65013 23.5688 8.84224 23.5128 9.06938C23.4558 9.29651 23.2336 9.19645 23.0855 9.19745C21.7718 9.20546 20.456 9.20145 19.1402 9.20145Z" fill="#E1E2E2"/>
<path id="Vector_6" d="M7.53279 0.800247C8.01508 0.800247 8.49736 0.78824 8.97764 0.808252C9.10571 0.813255 9.37587 0.671172 9.34885 0.953336C9.32684 1.18447 9.38888 1.5747 9.02767 1.58671C8.03209 1.62073 7.0335 1.62073 6.03792 1.58671C5.67671 1.5747 5.73875 1.18447 5.71674 0.953336C5.68972 0.671172 5.95888 0.813255 6.08795 0.808252C6.56823 0.789241 7.05051 0.800247 7.53279 0.800247Z" fill="#8C8C8C"/>
<path id="Vector_7" d="M14.7325 14.3154C14.7716 14.1153 14.6115 13.7431 14.8046 13.6591C15.0847 13.539 15.449 13.61 15.7772 13.607C15.9533 13.605 15.9302 13.7431 15.9312 13.8552C15.9342 14.1033 15.9022 14.3555 15.9382 14.5986C16.0123 15.0949 15.8372 15.227 15.3339 15.224C14.8376 15.221 14.6365 15.1029 14.7305 14.6016C14.7455 14.5226 14.7325 14.4375 14.7325 14.3154Z" fill="#F6F6F6"/>
<path id="Vector_8" d="M12.334 12.3979C12.331 15.0495 10.1827 17.2007 7.53818 17.2017C4.88964 17.2027 2.73838 15.0545 2.73438 12.4059C2.73038 9.74236 4.90064 7.59011 7.58021 7.60112C10.1887 7.61112 12.338 9.77939 12.334 12.3979ZM7.50816 8.40258C5.31789 8.41259 3.51884 10.2407 3.53585 12.4399C3.55186 14.6092 5.35991 16.4002 7.53518 16.4012C9.72646 16.4023 11.5395 14.5822 11.5325 12.3889C11.5255 10.1946 9.70645 8.39258 7.50816 8.40258Z" fill="#BCBCBC"/>
<path id="Vector_9" d="M7.53653 22.8033C8.03482 22.8033 8.53411 22.8053 9.0324 22.8023C9.29956 22.8003 9.50868 22.9003 9.51769 23.1845C9.52769 23.4997 9.31056 23.6057 9.0214 23.6047C8.02381 23.6027 7.02623 23.6027 6.02865 23.6047C5.76149 23.6057 5.55337 23.5057 5.54337 23.2225C5.53236 22.9073 5.75049 22.8013 6.03966 22.8023C6.53895 22.8053 7.03824 22.8033 7.53653 22.8033Z" fill="#A5A5A5"/>
<path id="Vector_10" d="M20.4835 13.6018C19.9352 13.6018 19.3879 13.5998 18.8396 13.6028C18.5744 13.6038 18.3613 13.5087 18.3483 13.2255C18.3343 12.9114 18.5524 12.8013 18.8406 12.8013C19.9702 12.8023 21.0989 12.8023 22.2286 12.8003C22.4937 12.8003 22.7068 12.8943 22.7198 13.1765C22.7339 13.4907 22.5157 13.6008 22.2276 13.6008C21.6452 13.6018 21.0639 13.6018 20.4835 13.6018Z" fill="white"/>
<path id="Vector_11" d="M20.5294 14.8024C19.9811 14.8024 19.4338 14.7984 18.8854 14.8044C18.6073 14.8074 18.3601 14.7384 18.3481 14.4242C18.3351 14.075 18.5923 14.001 18.8924 14.002C19.9881 14.006 21.0847 14.006 22.1804 14.002C22.4585 14.001 22.7067 14.068 22.7177 14.3822C22.7307 14.7304 22.4735 14.8074 22.1734 14.8054C21.625 14.7984 21.0767 14.8024 20.5294 14.8024Z" fill="white"/>
<path id="Vector_12" d="M21.5197 15.2036C21.7679 15.2036 22.017 15.2006 22.2651 15.2036C22.5353 15.2076 22.7244 15.3307 22.7204 15.6139C22.7164 15.868 22.5403 15.9971 22.2912 15.9991C21.7779 16.0051 21.2636 16.0081 20.7503 15.9971C20.5021 15.9911 20.336 15.847 20.344 15.5908C20.352 15.3357 20.5251 15.2116 20.7733 15.2046C21.0224 15.1986 21.2716 15.2036 21.5197 15.2036Z" fill="white"/>
<path id="Vector_13" d="M7.50759 8.40287C9.70587 8.39287 11.5249 10.1949 11.5319 12.3882C11.5389 14.5815 9.72489 16.4015 7.53461 16.4005C5.35934 16.3995 3.55229 14.6085 3.53528 12.4392C3.51827 10.2409 5.31731 8.41288 7.50759 8.40287ZM10.3282 11.1825C10.3142 11.0174 10.2222 10.9023 10.0761 10.8383C9.87497 10.7492 9.72589 10.8493 9.58881 10.9874C8.85938 11.7188 8.12095 12.4412 7.40153 13.1827C7.18741 13.4038 7.02431 13.4518 6.77517 13.2367C6.486 12.9875 6.16081 12.7804 5.85663 12.5483C5.62349 12.3712 5.39736 12.3262 5.21025 12.5913C5.03315 12.8415 5.17523 13.0336 5.37635 13.1867C5.85363 13.5489 6.34191 13.8981 6.81519 14.2643C7.08435 14.4724 7.29147 14.4084 7.5116 14.1862C8.3791 13.3097 9.25361 12.4402 10.1251 11.5687C10.2342 11.4607 10.3402 11.3526 10.3282 11.1825Z" fill="#FF3D48"/>
<path id="Vector_14" d="M10.3254 11.1822C10.3374 11.3523 10.2313 11.4604 10.1243 11.5664C9.25276 12.4389 8.37825 13.3075 7.51074 14.184C7.29061 14.4071 7.08249 14.4701 6.81433 14.262C6.34006 13.8958 5.85277 13.5466 5.37549 13.1844C5.17438 13.0323 5.03229 12.8402 5.2094 12.589C5.39651 12.3239 5.62264 12.3679 5.85577 12.546C6.15995 12.7781 6.48514 12.9853 6.77431 13.2344C7.02346 13.4495 7.18555 13.4015 7.40068 13.1804C8.1201 12.4389 8.85753 11.7155 9.58795 10.9851C9.72503 10.847 9.87512 10.747 10.0752 10.836C10.2203 10.9021 10.3114 11.0171 10.3254 11.1822Z" fill="white"/>
</g>
<defs>
<clipPath id="clip0_1093_38505">
<rect width="24" height="24.8045" fill="white" transform="translate(0.332031)"/>
</clipPath>
</defs>
</svg>
