<svg width="24" height="21" viewBox="0 0 24 21" fill="none" xmlns="http://www.w3.org/2000/svg">
<g id="Frame" clip-path="url(#clip0_1093_38522)">
<path id="Vector" d="M16.1054 8.2022C15.5289 8.89016 15.1672 9.63905 15.0537 10.4957C15.0247 10.7132 14.9272 10.8481 14.7491 10.9765C13.9215 11.5745 13.5119 12.3984 13.5035 13.4172C13.496 14.3067 13.4941 15.1971 13.5072 16.0866C13.511 16.3275 13.4491 16.4006 13.1989 16.4006C9.53036 16.3922 5.86184 16.4043 2.19332 16.3865C0.998292 16.3809 0.0291438 15.3911 0.0178964 14.1933C-0.000849184 12.2897 0.01321 10.3851 0.00852362 8.48057C0.00852362 8.27624 0.00383724 8.14409 0.29252 8.14502C5.52254 8.15533 10.7516 8.15346 15.9817 8.15533C16.0088 8.15533 16.0351 8.17502 16.1054 8.2022ZM4.57308 10.4001C4.09038 10.4001 3.60768 10.3954 3.12498 10.4011C2.59073 10.4067 2.2505 10.7132 2.26081 11.1668C2.27112 11.6036 2.6001 11.8951 3.11186 11.8979C4.04633 11.9035 4.9808 11.9045 5.91526 11.8979C6.42327 11.8941 6.75132 11.5952 6.756 11.1565C6.76069 10.7179 6.43077 10.4104 5.92839 10.402C5.47662 10.3936 5.02485 10.4001 4.57308 10.4001ZM3.76702 14.1474C4.01633 14.1474 4.26565 14.1586 4.51403 14.1446C4.94987 14.1202 5.25448 13.8071 5.25729 13.4013C5.25917 12.9964 4.95549 12.6683 4.52153 12.6533C4.00884 12.6355 3.49427 12.6337 2.98064 12.6543C2.55324 12.6712 2.24956 13.0151 2.26081 13.4172C2.27112 13.8024 2.56636 14.1136 2.97408 14.1417C3.23652 14.1605 3.50177 14.1455 3.76702 14.1474Z" fill="white"/>
<path id="Vector_2" d="M19.4931 20.1417C18.5248 20.1417 17.5576 20.1463 16.5894 20.1407C15.6268 20.1342 15.0044 19.5193 15.0007 18.5623C14.9941 16.8612 14.995 15.16 15.0007 13.4588C15.0035 12.6912 15.4234 12.1063 16.147 11.9554C16.4797 11.8861 16.5181 11.7474 16.5013 11.4662C16.4375 10.3658 16.7974 9.4351 17.6954 8.76588C18.6533 8.05261 19.7086 7.93545 20.7818 8.45283C21.8691 8.97771 22.4342 9.88499 22.4914 11.0969C22.4961 11.1906 22.5045 11.2862 22.4905 11.3771C22.4371 11.7324 22.5364 11.9048 22.9357 11.9901C23.5618 12.1251 23.9779 12.6818 23.9836 13.3229C23.9995 15.1178 24.0032 16.9127 23.9826 18.7076C23.9733 19.5221 23.3218 20.1267 22.4886 20.1379C21.4913 20.152 20.4913 20.1417 19.4931 20.1417ZM19.4631 11.9001C19.7124 11.9001 19.9617 11.9001 20.211 11.9001C21.0574 11.9001 21.0574 11.9001 20.9918 11.0463C20.944 10.4333 20.5484 9.92905 19.9617 9.73222C19.3768 9.53633 18.7638 9.71254 18.3552 10.1812C17.9972 10.5926 17.9897 11.0847 17.9915 11.589C17.9925 11.8214 18.0384 11.9208 18.2961 11.9058C18.6832 11.8833 19.0732 11.9001 19.4631 11.9001Z" fill="white"/>
<path id="Vector_3" d="M10.0929 3.6566C6.893 3.6566 3.69312 3.65004 0.492308 3.66504C0.12302 3.66691 -0.00632485 3.60974 0.000236109 3.19921C0.02648 1.55335 0.904712 0.65918 2.55714 0.65918C7.6147 0.65918 12.6723 0.65918 17.7298 0.65918C19.4113 0.65918 20.372 1.72299 20.2558 3.41385C20.2305 3.78407 19.9952 3.65098 19.8331 3.65098C16.5863 3.65848 13.3396 3.6566 10.0929 3.6566Z" fill="white"/>
<path id="Vector_4" d="M10.1769 5.15544C13.3927 5.15544 16.6085 5.162 19.8243 5.147C20.173 5.14513 20.2639 5.22574 20.2573 5.57815C20.2358 6.65415 20.2526 6.65509 19.1682 6.65509C12.939 6.65509 6.71079 6.65134 0.481629 6.66446C0.0935951 6.66446 -0.010443 6.57729 0.000804374 6.18551C0.0307973 5.15638 0.0101772 5.15544 1.044 5.15544C4.08828 5.15544 7.13257 5.15544 10.1769 5.15544Z" fill="white"/>
</g>
<defs>
<clipPath id="clip0_1093_38522">
<rect width="24" height="19.4861" fill="white" transform="translate(0 0.65918)"/>
</clipPath>
</defs>
</svg>
