<svg width="16" height="16" viewBox="0 0 16 16" fill="none" xmlns="http://www.w3.org/2000/svg">
<g clip-path="url(#clip0_2811_4191)">
<path d="M7.99124 16.002C3.56954 15.9978 0.000833956 12.4262 1.45234e-07 8.00408C-0.000833666 3.56524 3.58872 -0.0121812 8.0296 0.00199511C12.4488 0.0161714 16.0092 3.59776 16 8.02076C15.9908 12.4413 12.4138 16.0062 7.99124 16.002ZM5.58403 7.99908C5.58403 8.99725 5.57903 9.99543 5.5857 10.9936C5.58904 11.5006 5.88087 11.6841 6.30945 11.4356C8.03377 10.4349 9.75392 9.42754 11.4699 8.41269C11.8643 8.18003 11.876 7.8298 11.4899 7.60298C9.76059 6.58479 8.02543 5.57577 6.28443 4.57509C5.8717 4.33826 5.5857 4.52589 5.58403 5.00372C5.58153 6.00272 5.58403 7.0009 5.58403 7.99908Z" fill="#3A8712"/>
<path d="M5.58527 7.99816C5.58527 7.00009 5.58277 6.00202 5.58611 5.00394C5.58777 4.52617 5.87377 4.33856 6.28651 4.57537C8.02667 5.5751 9.76183 6.58402 11.492 7.60293C11.878 7.82973 11.8664 8.17993 11.472 8.41256C9.75599 9.42648 8.03584 10.4346 6.31152 11.4351C5.88378 11.6836 5.59111 11.5002 5.58777 10.9932C5.5811 9.99514 5.58527 8.99623 5.58527 7.99816Z" fill="#F1F5F9"/>
</g>
<defs>
<clipPath id="clip0_2811_4191">
<rect width="16" height="16" rx="8" fill="white"/>
</clipPath>
</defs>
</svg>
