<svg width="56" height="55" viewBox="0 0 56 55" fill="none" xmlns="http://www.w3.org/2000/svg">
<g clip-path="url(#clip0_2899_10702)">
<path d="M5.99123 9.56174C7.82209 9.4009 7.83589 9.4009 7.81618 7.50962C7.81027 6.90698 7.94428 6.29076 7.71961 5.6978C7.72158 5.6978 7.69399 5.71524 7.69399 5.71524C9.69828 5.70362 11.7006 5.69199 13.7049 5.6823L13.6773 5.6823C13.6576 6.00203 13.6635 6.3237 13.6123 6.63762C13.4822 7.43986 13.8015 7.66465 14.6193 7.64721C15.3446 7.63171 15.6501 7.47087 15.5299 6.73451C15.4747 6.38959 15.4845 6.03304 15.4648 5.68036L15.4372 5.68036C16.1053 5.6823 16.7715 5.68617 17.4395 5.68811L17.412 5.68036C17.5263 7.6162 17.5263 7.6162 19.5286 7.6162C19.8222 7.6162 20.1198 7.58132 20.4076 7.62202C21.1348 7.72666 21.456 7.46312 21.3161 6.73451C21.1525 5.88189 21.5073 5.55441 22.3646 5.70943C23.0287 5.82763 23.2829 5.58929 23.2396 4.89169C23.1824 3.93442 23.2416 2.97134 23.2514 2.0102L23.2356 2.0354C24.2072 1.83968 25.1907 1.94044 26.1642 1.96757C26.8836 1.98695 27.2265 1.80867 27.0767 1.06651C26.8993 0.186753 27.2955 -0.0128379 28.137 0.0317311C29.4752 0.103428 30.8232 0.105366 32.1613 0.0317307C33.0108 -0.0147762 32.8511 0.492922 32.8413 0.952177C32.8314 1.42306 33.0521 2.09159 32.1476 1.9482C31.1838 1.79511 30.7424 2.11291 30.9375 3.1128C31.0636 3.75227 30.6951 3.92086 30.1452 3.8201C29.152 3.63988 28.9509 4.08363 28.9982 4.97888C29.079 6.51942 29.0317 8.06577 29.0376 9.61018L29.0574 9.58886C28.4109 9.5036 27.7645 9.40865 27.126 9.63731L27.1496 9.66444C27.126 8.57347 27.0452 7.47862 27.0944 6.38959C27.1358 5.47689 26.5229 5.74237 26.0578 5.71912C25.571 5.69586 24.9956 5.60285 25.1473 6.40315C25.3424 7.42824 24.8911 7.7906 23.8919 7.61814C23.277 7.51156 23.1548 7.85843 23.2337 8.34675C23.3736 9.22068 23.1272 9.71094 22.1123 9.51716C21.4659 9.39315 21.257 9.67412 21.3082 10.302C21.3614 10.9744 21.2708 11.6584 21.3338 12.3289C21.4048 13.0769 21.1703 13.414 20.376 13.2803C20.0587 13.228 19.7217 13.354 19.4123 13.1893C19.4044 12.9063 19.3552 12.6137 19.3985 12.3366C19.5266 11.515 19.1522 11.3581 18.3796 11.3542C17.6031 11.3522 17.3331 11.579 17.4376 12.3192C17.475 12.5944 17.408 12.8831 17.3883 13.1641C17.0907 13.3733 16.7498 13.2241 16.4344 13.2765C15.7112 13.3966 15.4333 13.1408 15.5023 12.3928C15.5732 11.6255 15.5003 10.8465 15.5239 10.0733C15.5358 9.67413 15.4313 9.49779 14.982 9.50554C13.4408 9.52879 11.8977 9.52879 10.3565 9.50554C9.88157 9.49779 9.7377 9.65475 9.74558 10.1159C9.7712 11.5983 9.77909 13.0827 9.74361 14.5651C9.72982 15.1251 9.98996 15.1949 10.4531 15.1813C11.3045 15.158 12.1598 15.1968 13.0112 15.1658C13.494 15.1484 13.6399 15.3286 13.6261 15.782C13.6004 16.6521 13.6359 17.5241 13.6123 18.3941C13.6005 18.8127 13.7443 18.9619 14.1739 18.9503C15.0923 18.9251 16.0107 18.9309 16.9291 18.9464C17.2996 18.9522 17.4612 18.8418 17.4494 18.4523C17.3922 16.6831 17.5401 14.91 17.3686 13.1428C18.0584 13.352 18.7462 13.3423 19.4379 13.1563C19.4202 16.0572 19.363 18.958 19.4123 21.8569C19.4281 22.727 19.0438 22.7386 18.3757 22.758C17.678 22.7774 17.2937 22.6456 17.4455 21.8744C17.613 21.0218 17.2701 20.7602 16.3931 20.8183C15.1515 20.8997 13.9 20.8842 12.6564 20.8202C11.8918 20.7815 11.5587 20.9908 11.6908 21.7678C11.744 22.0817 11.742 22.4053 11.7656 22.7231C11.7637 22.7231 11.7913 22.6999 11.7913 22.6999C11.5646 22.7115 11.34 22.7328 11.1133 22.7348C9.81653 22.7464 9.78697 22.7445 9.76529 21.4636C9.75741 20.9481 9.58201 20.795 9.08537 20.828C8.70304 20.8532 8.31479 20.7989 7.92851 20.7795L7.95019 20.795C7.69793 20.4811 7.87925 20.1129 7.82209 19.7738C7.70187 19.0782 8.02311 18.8747 8.69515 18.927C9.02427 18.9522 9.55245 19.1344 9.67266 18.7759C9.82836 18.3128 9.83821 17.7334 9.70025 17.2644C9.58595 16.8769 9.05384 17.0609 8.73063 17.0939C7.99158 17.1695 7.68019 16.9117 7.82406 16.187C7.99749 15.3111 7.60333 15.0282 6.76772 15.1735C6.08976 15.2918 5.85721 15.0263 5.89663 14.3403C5.99123 12.7436 5.79415 11.1372 6.00502 9.54042C6.00699 9.5443 5.99123 9.56174 5.99123 9.56174Z" fill="#F8F8F8"/>
<path d="M42.4448 24.658C40.7794 24.6522 39.1102 24.596 37.4488 24.6619C36.5817 24.6968 36.6861 24.2142 36.7038 23.6969C36.7196 23.2163 36.5166 22.633 37.4212 22.7183C38.2312 22.7939 39.055 22.7086 39.8689 22.7435C40.3715 22.7648 40.5705 22.6214 40.5429 22.104C40.5035 21.3347 40.4858 20.5596 40.5469 19.7942C40.6001 19.1101 40.3616 18.864 39.6778 18.9512C39.3585 18.9919 39.0254 18.9454 38.7003 18.9396L38.7141 18.9726C38.58 16.4108 38.5761 13.851 38.716 11.2893L38.7003 11.3222C40.537 11.5005 40.537 11.5005 40.537 13.3782C40.537 14.2793 40.5666 15.1803 40.5272 16.0794C40.4996 16.7441 40.5528 17.1375 41.4397 17.1103C42.224 17.0852 42.6103 16.9359 42.4586 16.1124C42.3206 15.3547 42.634 15.1532 43.4065 15.1454C44.2244 15.1377 44.5456 15.3605 44.4037 16.1589C44.2835 16.8371 44.4944 17.2208 45.2768 17.0755C46.1341 16.9166 46.4967 17.2441 46.3331 18.1044C46.207 18.7671 46.4691 19.0578 47.1727 18.9493C47.5235 18.895 47.8841 18.895 48.2389 18.8698L48.2389 18.8447C48.2428 19.9414 48.2625 21.0363 48.2389 22.1331C48.229 22.5923 48.3768 22.7532 48.8557 22.7415C49.9377 22.7144 51.0216 22.7415 52.1036 22.7454L52.078 22.7202C52.0819 22.8811 52.0859 23.0419 52.0878 23.2047C52.0957 24.5379 52.0937 24.5379 50.7437 24.6328C50.4974 24.6502 50.2451 24.5766 50.1466 24.9564C49.8549 26.0823 50.1821 26.528 51.3606 26.528C52.0504 26.528 52.7402 26.5066 53.428 26.5338C53.901 26.5512 54.0507 26.3729 54.0429 25.9117C54.0271 24.8498 54.0626 23.786 54.0764 22.7222L54.0586 22.7512C55.9545 22.6989 55.9545 22.6989 55.9545 24.5805C55.9545 25.6424 55.9407 26.7043 55.9604 27.7662C55.9683 28.1867 55.8895 28.394 55.379 28.4173C54.0212 28.4774 54.0212 28.5064 54.0369 29.8241C54.0389 29.985 54.0547 30.1439 54.0645 30.3047L54.0764 30.2756C53.4102 30.2795 52.7441 30.2814 52.076 30.2853C52.0839 30.0315 52.0602 29.7737 52.1036 29.5257C52.2593 28.6246 51.938 28.3088 50.9743 28.365C50.2688 28.4057 50.0757 28.6227 50.1466 29.2563C50.184 29.6013 50.1387 29.9539 50.1308 30.3027C49.4647 30.295 48.8006 30.2872 48.1344 30.2795L48.16 30.3047C48.166 30.2349 48.1738 30.1671 48.1798 30.0973C48.1995 28.6169 48.16 27.1306 48.2645 25.656C48.3276 24.7646 48.0122 24.5069 47.1786 24.6386C46.6031 24.7297 46.1873 24.5902 46.3351 23.8906C46.5558 22.8423 46.0257 22.5923 45.1014 22.7396C44.5338 22.8307 44.3604 22.5865 44.3919 22.042C44.4353 21.2708 44.3407 20.4879 44.4195 19.7225C44.5141 18.7923 43.8992 18.9939 43.3671 18.9512C42.7384 18.9009 42.4231 19.0152 42.4467 19.7632C42.498 21.4045 42.4408 23.0496 42.427 24.6948L42.4448 24.658Z" fill="#F8F8F8"/>
<path d="M55.9685 6.66374C55.9685 8.63059 55.9527 10.5994 55.9783 12.5662C55.9862 13.0991 55.8423 13.2909 55.2669 13.289C51.2307 13.2658 47.1965 13.2658 43.1603 13.289C42.5769 13.2929 42.4587 13.0914 42.4607 12.5643C42.4804 8.62865 42.4804 4.69302 42.4607 0.759325C42.4587 0.228374 42.5848 0.0326559 43.1642 0.0365316C47.2004 0.0597837 51.2346 0.0597834 55.2708 0.0365306C55.8522 0.0326548 55.9862 0.23225 55.9803 0.761264C55.9527 2.72811 55.9685 4.69689 55.9685 6.66374ZM49.2362 1.95106C47.8587 1.95106 46.4811 1.96463 45.1035 1.94331C44.6384 1.93556 44.396 2.00144 44.4019 2.55952C44.4295 5.29954 44.4236 8.0415 44.4058 10.7815C44.4019 11.2466 44.5517 11.39 45.0207 11.388C47.8074 11.3706 50.5961 11.3687 53.3828 11.388C53.9031 11.3919 54.0489 11.2175 54.045 10.7195C54.0233 8.0105 54.0233 5.30342 54.0469 2.5944C54.0509 2.07314 53.8676 1.93556 53.367 1.94331C51.9914 1.97044 50.6138 1.953 49.2362 1.95106Z" fill="#F8F8F8"/>
<path d="M42.4726 48.2362C42.4726 46.3003 42.5022 44.3645 42.4568 42.4306C42.4411 41.7698 42.6658 41.6322 43.2925 41.6361C47.2616 41.6632 51.2308 41.6613 55.2 41.638C55.7991 41.6341 55.9843 41.7892 55.9804 42.3937C55.9528 46.2964 55.9508 50.1991 55.9804 54.1018C55.9843 54.7568 55.7676 54.9002 55.1389 54.8944C51.1697 54.8672 47.2005 54.8692 43.2314 54.8944C42.6283 54.8982 42.445 54.7413 42.4588 54.1386C42.4963 52.1718 42.4726 50.2049 42.4726 48.2362ZM54.0431 48.3544C54.0431 47.0018 54.0175 45.6473 54.0549 44.2966C54.0707 43.7269 53.9308 43.508 53.3021 43.5138C50.5824 43.5448 47.8647 43.539 45.145 43.5177C44.6208 43.5138 44.3922 43.6146 44.4 44.1998C44.4316 46.9049 44.4237 49.61 44.404 52.3171C44.4 52.7996 44.5045 52.9953 45.0465 52.9895C47.8312 52.9643 50.6159 52.9663 53.4006 52.9876C53.9347 52.9915 54.0628 52.8035 54.053 52.3132C54.0234 50.9956 54.0411 49.674 54.0431 48.3544Z" fill="#F8F8F8"/>
<path d="M6.94189 41.6533C8.91071 41.6533 10.8776 41.6727 12.8464 41.6417C13.4337 41.632 13.6406 41.7734 13.6367 42.3896C13.6091 46.3233 13.613 50.257 13.6327 54.1927C13.6367 54.7488 13.4534 54.9058 12.9016 54.8961C11.0648 54.867 9.22801 54.8767 7.39123 54.8883C6.20285 54.8961 6.90445 54.0066 6.74284 53.5474C6.53394 52.9525 7.01087 52.9719 7.42671 52.9757C8.60721 52.9835 9.78968 52.9544 10.9682 52.9893C11.5043 53.0048 11.7112 52.875 11.7053 52.2994C11.6757 49.6234 11.6816 46.9473 11.7013 44.2693C11.7053 43.7616 11.6186 43.5155 11.0155 43.5232C8.26035 43.5523 5.50519 43.5523 2.75002 43.5252C2.15879 43.5194 2.04251 43.7422 2.05631 44.2577C2.08784 45.4494 2.04448 46.645 2.07207 47.8367C2.09769 48.9917 1.19507 48.3619 0.724052 48.5188C0.140699 48.7126 0.117048 48.2921 0.119019 47.86C0.130843 46.021 0.146614 44.184 0.111139 42.3451C0.101285 41.7773 0.294419 41.6358 0.840327 41.6436C2.87418 41.6688 4.90804 41.6533 6.94189 41.6533Z" fill="#F8F8F8"/>
<path d="M27.0425 41.76C26.4552 41.5759 25.8639 41.6457 25.2707 41.7232C24.9613 40.4404 25.2924 39.1285 25.0874 37.8418C27.0779 37.8767 27.0779 37.8767 27.0779 35.9099C27.0779 34.0961 27.0779 34.0961 25.249 34.0961C24.9534 34.0961 24.6519 34.0554 24.3642 34.1038C23.3847 34.2686 23.1245 33.8577 23.1935 32.9392C23.2369 32.3579 23.363 32.1603 23.9759 32.1796C25.4185 32.2223 26.8651 32.2164 28.3077 32.1816C28.8654 32.168 29.0606 32.3327 29.031 32.8908C28.9876 33.7279 29.0566 34.5708 29.0093 35.406C28.966 36.1424 29.4843 35.9874 29.8568 35.9428C30.2509 35.8963 30.9367 36.3129 30.9289 35.4254C30.9269 35.2956 30.9505 35.1638 30.9269 35.0398C30.7594 34.1775 31.2008 34.0883 31.9616 34.0515C32.8721 34.0089 32.8721 34.4449 32.8583 35.0902C32.8287 36.4447 32.8129 37.8011 32.8622 39.1556C32.8898 39.9307 32.3813 39.7893 31.9576 39.7525C31.5497 39.7176 30.8737 40.0645 30.9289 39.1866C30.9387 39.0258 30.9052 38.8592 30.9348 38.7041C31.0865 37.8941 30.6254 37.8438 29.973 37.8418C29.3187 37.8399 28.8694 37.8922 29.0192 38.7003C29.165 39.4947 28.9285 39.9501 27.9944 39.768C27.277 39.6265 26.9695 39.892 27.072 40.6419C27.1233 41.0159 27.0385 41.4093 27.0168 41.791C27.0149 41.7891 27.0425 41.76 27.0425 41.76Z" fill="#F8F8F8"/>
<path d="M40.4751 37.8252C40.28 37.8368 40.079 37.8852 39.8898 37.8542C38.8768 37.6837 38.4551 38.0674 38.6384 39.0789C38.7389 39.637 38.463 39.8017 37.9171 39.7726C36.912 39.7184 35.5915 40.0866 34.9786 39.5905C34.3342 39.0692 34.8249 37.7244 34.7756 36.74C34.7461 36.1296 34.819 35.5134 34.7579 34.9088C34.685 34.2015 34.9806 34.0426 35.6408 34.0736C36.5552 34.1182 37.1504 33.1377 36.6755 32.3936C36.4232 32.0002 35.9463 32.1959 35.5856 32.2192C34.953 32.2579 34.6751 32.07 34.7618 31.4189C34.8052 31.103 34.7697 30.7775 34.7697 30.4558C34.7697 28.4715 34.7697 28.4715 36.7405 28.363L36.7208 28.3359C36.7169 28.8184 36.7267 29.3028 36.705 29.7853C36.6893 30.1419 36.8036 30.2756 37.1958 30.3085C38.6364 30.4364 38.6344 30.4558 38.6344 31.9227C38.6344 32.2773 38.6758 32.6377 38.6265 32.9846C38.5083 33.8391 38.7862 34.2383 39.7262 34.1046C40.0495 34.0581 40.5737 33.8934 40.5382 34.5736C40.4811 35.6626 40.6368 36.7594 40.4574 37.8465L40.4751 37.8252Z" fill="#F8F8F8"/>
<path d="M23.1381 28.3753C21.321 28.445 21.321 28.445 21.321 26.6816C21.321 26.4549 21.321 26.2301 21.321 26.0034C21.321 24.7129 21.321 24.6683 22.608 24.6508C23.5736 24.6373 23.1519 23.9726 23.2189 23.5521C23.2938 23.0793 23.2741 22.6026 22.5528 22.7363C21.5023 22.9301 21.2324 22.4786 21.3013 21.4961C21.39 20.2443 21.3447 18.9809 21.3132 17.7233C21.3013 17.2253 21.4353 17.0392 21.9675 17.0644C22.8188 17.1071 23.6742 17.109 24.5255 17.0644C25.0813 17.0354 25.2271 17.2718 25.1463 17.7407C24.9867 18.6767 25.2882 19.1495 26.3308 18.948C26.9181 18.8336 27.1427 19.0565 27.0955 19.6727C27.0363 20.442 27.0403 21.2229 27.0935 21.9941C27.1349 22.6007 26.922 22.8487 26.3229 22.7305C25.2705 22.5232 25.0044 23.0134 25.1365 23.9397C25.1917 24.3195 25.1444 24.7129 25.1463 25.1004C25.1463 26.4162 25.1483 26.4355 23.7983 26.515C23.3845 26.5402 23.2209 26.6468 23.2169 27.0711C23.213 27.511 23.351 27.9703 23.1145 28.3946C23.1164 28.3946 23.1381 28.3753 23.1381 28.3753Z" fill="#F8F8F8"/>
<path d="M50.1406 35.9036C48.2526 36.0858 48.2526 36.0858 48.2506 38.0139C48.2506 38.2076 48.2506 38.3995 48.2506 38.5933C48.2506 39.723 47.7619 40.064 46.6464 39.7676C46.2562 39.6649 46.3449 39.4033 46.3409 39.1707C46.3311 38.3007 46.3015 37.4306 46.3469 36.5644C46.3863 35.7874 45.8443 35.9463 45.4285 35.9773C45.0225 36.0083 44.3662 35.6633 44.4017 36.545C44.4332 37.3802 44.38 38.2193 44.4194 39.0545C44.4431 39.5854 44.2972 39.8373 43.7159 39.7714C43.3926 39.7346 43.0616 39.7714 42.7344 39.7637C42.0505 39.7501 41.2208 39.9555 40.7222 39.6474C40.2118 39.3316 40.6887 38.4402 40.4778 37.8278L40.4641 37.853C42.4723 37.8802 42.4723 37.8802 42.4723 35.9443C42.4723 35.9114 42.4723 35.8804 42.4723 35.8474C42.4723 34.0976 42.4723 34.0976 44.2716 34.0976C46.3409 34.0976 46.3409 34.0976 46.3409 32.0203C46.3409 30.3655 46.3409 30.3654 47.9649 30.2647C48.0319 30.2782 48.1009 30.2899 48.1679 30.3034L48.1422 30.2782C48.4004 30.8576 47.9649 31.6114 48.3571 32.0358C48.769 32.4834 49.5277 32.1191 50.1268 32.2122C50.1249 33.4465 50.1209 34.6789 50.1189 35.9133L50.1406 35.9036Z" fill="#F8F8F8"/>
<path d="M38.7239 45.4364C40.5469 45.3589 40.5469 45.3589 40.5469 47.1359C40.5469 49.2209 40.5469 49.2209 38.3928 49.2209C37.4744 49.2209 36.5541 49.1802 35.6416 49.2345C34.9636 49.2752 34.7173 49.0833 34.7567 48.3877C34.8099 47.444 33.9506 46.9479 33.0776 47.3471C32.6933 47.5234 32.8273 47.8664 32.8667 48.1067C33.0224 49.0795 32.5928 49.3682 31.6764 49.2287C31.3571 49.1802 31.0221 49.2209 30.6949 49.2209C28.7793 49.2209 28.7793 49.2209 29.1163 47.2793L29.0887 47.3044C29.2838 47.3083 29.4848 47.2909 29.676 47.3219C30.6693 47.4866 31.1285 47.1378 30.9373 46.1069C30.8388 45.574 31.0694 45.3667 31.6389 45.3996C32.4193 45.4442 33.2096 45.3667 33.9881 45.4248C34.6503 45.4732 34.8789 45.2291 34.7725 44.6167C34.6247 43.7583 34.9321 43.4231 35.8623 43.5025C36.7984 43.58 37.7503 43.489 38.6963 43.4715L38.6727 43.4483C38.6687 44.1207 38.5426 44.797 38.7475 45.4597C38.2253 45.4442 37.705 45.4325 37.1847 45.4151C36.9324 45.4074 36.7768 45.4558 36.7038 45.7523C36.4141 46.9518 36.7531 47.3548 37.9868 47.3354C38.5012 47.3277 38.6825 47.1727 38.6529 46.6708C38.6293 46.2619 38.6963 45.8472 38.7239 45.4364Z" fill="#F8F8F8"/>
<path d="M25.2891 41.7105C24.9718 43.2316 25.2122 44.7683 25.1511 46.2972C25.1156 47.1905 24.1992 47.7312 23.4109 47.2913C23.1488 47.1459 23.2217 46.9057 23.2197 46.6964C23.2099 45.8263 23.202 44.9582 23.2217 44.0881C23.2316 43.6754 23.0778 43.5107 22.6521 43.5281C22.0964 43.5533 21.5386 43.5339 20.9829 43.5339C19.2171 43.532 19.2171 43.532 19.4673 45.3593C19.4654 45.3613 19.493 45.3361 19.493 45.3361C18.3282 45.5163 17.1536 45.3709 15.985 45.4194C15.3878 45.4446 15.4666 44.997 15.5337 44.6908C15.6223 44.2935 15.1336 43.6618 15.9515 43.5301C16.4225 43.4545 17.0827 43.7548 17.335 43.3867C17.6444 42.9371 17.4335 42.2744 17.4197 41.7027L17.4098 41.7279C17.8277 41.7047 18.2494 41.6427 18.6652 41.6678C19.1934 41.6989 19.4969 41.5516 19.3826 40.9857C19.1579 39.8754 19.696 39.5886 20.6991 39.7572C20.9198 39.794 21.1524 39.7785 21.377 39.7882L21.3534 39.763C21.3396 40.0827 21.3554 40.4064 21.3081 40.7183C21.1898 41.476 21.4894 41.7144 22.2639 41.6717C23.271 41.6175 24.282 41.6911 25.2891 41.7105Z" fill="#F8F8F8"/>
<path d="M6.94903 45.413C7.66837 45.413 8.38967 45.442 9.10704 45.4033C9.63324 45.3742 9.77711 45.5699 9.76923 46.066C9.74164 47.5445 9.74164 49.023 9.76923 50.5016C9.77711 50.9763 9.6096 51.1352 9.14843 51.0965C8.82325 51.0693 8.49413 51.081 8.16698 51.0926C7.15596 51.1313 6.13312 51.2631 5.76261 49.9377C5.68181 49.647 5.26203 49.4532 5.01174 49.2033C4.72006 48.9107 4.06379 49.0075 4.03029 48.5192C3.96328 47.56 3.99481 46.5931 4.0362 45.6319C4.04999 45.3161 4.38897 45.4188 4.59787 45.4149C5.38028 45.4071 6.16465 45.413 6.94903 45.413Z" fill="#F8F8F8"/>
<path d="M36.7379 28.3633C36.6335 26.5205 36.6335 26.5205 38.4643 26.5224C39.4734 26.5224 40.4844 26.4643 41.4875 26.5379C42.331 26.5999 42.5872 26.2879 42.469 25.5186C42.4256 25.2377 42.4512 24.9451 42.4453 24.6563L42.4256 24.6873C42.6207 24.6699 42.8139 24.6428 43.009 24.6389C44.3274 24.6214 44.3787 24.6234 44.3807 25.9043C44.3807 26.6639 44.8536 26.4701 45.2813 26.536C45.642 26.5902 46.1682 26.2356 46.3278 26.8945C46.5958 28.0029 46.316 28.371 45.167 28.3962C44.7827 28.404 44.4122 28.3052 44.3826 28.9349C44.3156 30.2991 44.2762 30.2972 42.9085 30.2972C42.4828 30.2972 42.0512 30.2468 41.6353 30.3069C40.7209 30.4406 40.3819 30.0802 40.5396 29.2101C40.6697 28.4931 40.2991 28.3633 39.6547 28.3846C38.6792 28.4176 37.6977 28.3575 36.7202 28.3381C36.7182 28.3362 36.7379 28.3633 36.7379 28.3633Z" fill="#F8F8F8"/>
<path d="M4.02095 35.912C4.0111 34.2668 4.0249 32.6216 3.98154 30.9764C3.96578 30.4106 4.16482 30.1994 4.70876 30.2963C5.67445 30.4668 6.10605 30.1296 5.91489 29.1336C5.75722 28.3042 6.33466 28.3895 6.87663 28.3876C7.42451 28.3856 7.9783 28.3139 7.83443 29.1394C7.7694 29.5095 7.96845 29.9107 7.70633 30.2614C7.28458 30.275 6.85889 30.306 6.43517 30.2924C6.06664 30.2808 5.84788 30.3951 5.92474 30.7788C6.01933 31.2477 5.59759 31.9725 6.2105 32.1294C6.6697 32.2476 7.52699 32.6313 7.78714 31.8213C7.93692 31.3563 7.98224 30.7458 7.6748 30.2382C8.33895 30.4145 9.29085 29.963 9.62785 30.461C9.96486 30.9571 9.75595 31.8233 9.75989 32.5286C9.76975 34.0982 9.76187 34.0982 8.16553 34.0982C7.90341 34.0982 7.6413 34.0982 7.37918 34.0982C6.03904 34.0982 6.01934 34.0963 5.93459 35.4081C5.90897 35.8151 5.79466 36.005 5.36306 35.9682C4.90978 35.9294 4.45256 35.9158 3.99928 35.8907C4.00125 35.8907 4.02095 35.912 4.02095 35.912Z" fill="#F8F8F8"/>
<path d="M54.0683 30.301C55.9603 30.2719 55.9603 30.2719 55.9603 32.1438C55.9603 33.1417 55.915 34.1416 55.9761 35.1357C56.0174 35.8275 55.7711 36.0813 55.0971 35.967C54.2753 35.8275 53.8969 36.0872 54.0269 36.9766C54.1097 37.5444 53.9895 38.1393 54.0545 38.7109C54.1472 39.5267 53.9245 39.8251 53.008 39.8058C52.1764 39.7883 52.0207 39.5015 52.0798 38.8001C52.1153 38.3679 52.2946 37.7226 51.4432 37.8699C50.3475 38.0598 49.9592 37.6199 50.1484 36.5774C50.1878 36.3604 50.1445 36.1279 50.1386 35.9031L50.113 35.9108C51.187 35.9263 52.2631 35.9147 53.3352 35.969C53.9008 35.998 54.0486 35.8101 54.0407 35.2694C54.023 33.6049 54.0604 31.9384 54.0782 30.2738C54.0802 30.2738 54.0683 30.301 54.0683 30.301Z" fill="#F8F8F8"/>
<path d="M32.6982 7.70747C34.7774 7.36448 34.7774 7.36448 34.7774 9.32745C34.7774 9.42434 34.7774 9.51929 34.7774 9.61618C34.7774 11.5055 34.7774 11.5055 36.7305 11.3214L36.7206 11.2943C36.7167 11.4222 36.7127 11.5501 36.7108 11.678C36.697 13.1158 36.7009 13.141 35.276 13.2631C34.807 13.3038 34.7695 13.5189 34.7695 13.8774C34.7715 14.9625 34.7538 16.0496 34.7439 17.1348L34.7656 17.1076C32.8342 17.0282 32.8342 17.0282 32.8342 15.0807C32.8342 12.9278 32.8401 10.775 32.8283 8.6221C32.8263 8.31205 32.9387 7.97876 32.7199 7.69003L32.6982 7.70747Z" fill="#F8F8F8"/>
<path d="M3.9307 24.6324C5.01267 24.6324 6.0966 24.6808 7.17265 24.6169C7.9314 24.5704 7.87031 25.0199 7.8171 25.4617C7.76586 25.8861 8.16198 26.5643 7.19827 26.5411C5.72412 26.5062 4.24997 26.5547 2.77582 26.5198C2.22597 26.5082 2.02298 26.6574 2.05254 27.2193C2.09787 28.0545 2.03874 28.8936 2.07028 29.7307C2.10378 30.624 1.43371 30.2558 1.03758 30.2849C0.637514 30.314 0.0856929 30.5116 0.107371 29.7152C0.148758 28.2347 0.138904 26.7523 0.107371 25.2699C0.0955462 24.7506 0.282772 24.6053 0.785323 24.6208C1.83181 24.6537 2.88224 24.6324 3.9307 24.6324Z" fill="#F8F8F8"/>
<path d="M32.7301 5.64691C32.7636 5.52677 32.8227 5.40663 32.8286 5.28454C32.8937 3.9281 32.8897 3.90485 34.2358 3.8254C34.6812 3.80021 34.7817 3.64324 34.7718 3.24794C34.7502 2.37981 34.7876 1.50975 34.7561 0.641626C34.7383 0.174621 34.9059 0.0312224 35.3729 0.0389733C36.9102 0.0622266 38.4493 0.0738513 39.9866 0.0370336C40.7315 0.0195932 40.5699 0.519542 40.5226 0.879969C40.4714 1.26946 40.901 1.94381 40.0102 1.95156C39.1273 1.95931 38.2424 1.98063 37.3595 1.94381C36.8412 1.9225 36.6776 2.09108 36.7012 2.59685C36.7407 3.43203 36.7052 4.26915 36.715 5.10627C36.719 5.457 36.7091 5.74767 36.2184 5.72055C35.0478 5.6566 33.8692 5.831 32.7045 5.62172C32.7045 5.62365 32.7301 5.64691 32.7301 5.64691Z" fill="#F8F8F8"/>
<path d="M27.2772 17.1248C27.4388 17.1073 27.6064 17.055 27.7601 17.0802C28.7869 17.2546 29.1968 16.8476 29.0115 15.8439C28.8598 15.0184 29.4609 15.1715 29.926 15.1812C30.4049 15.1908 31.0316 14.9622 30.9508 15.8652C30.8877 16.5686 30.9843 17.2837 30.9252 17.9871C30.866 18.7099 31.0474 19.047 31.8672 18.9618C32.5787 18.8881 33.3118 19.0063 34.0232 18.9308C34.8648 18.8416 34.8057 19.3319 34.7741 19.8648C34.7465 20.3376 34.983 20.9034 34.0686 20.8589C32.5984 20.7891 31.1242 20.8182 29.652 20.8511C29.1298 20.8627 28.9209 20.698 29.0096 20.1981C29.185 19.2137 28.8164 18.7661 27.7719 18.9579C27.2161 19.0606 26.9974 18.8261 27.0703 18.2758C27.1117 17.958 27.0999 17.6344 27.1117 17.3147C27.1688 17.2507 27.2221 17.1868 27.2772 17.1248Z" fill="#F8F8F8"/>
<path d="M17.4255 41.7033C15.5158 41.5832 15.5158 41.5832 15.5158 39.6396C15.5158 38.6436 15.5434 37.6476 15.5039 36.6535C15.4823 36.0973 15.6813 35.9346 16.2312 35.9462C17.6344 35.9791 19.0435 36.0043 20.4447 35.9384C21.2251 35.9016 21.4242 36.1865 21.3355 36.8763C21.2961 37.1902 21.3434 37.5177 21.3513 37.8375L21.3828 37.8278C20.2733 37.8375 19.1637 37.8665 18.0561 37.8491C17.5871 37.8413 17.4353 38.0002 17.4412 38.4575C17.459 39.5466 17.4274 40.6375 17.4156 41.7285L17.4255 41.7033Z" fill="#F8F8F8"/>
<path d="M31.0154 26.4371C30.9938 26.596 30.9563 26.7549 30.9504 26.9138C30.9031 28.2819 30.9071 28.3245 29.563 28.3885C28.9126 28.4195 28.9777 28.807 29.0348 29.1675C29.1826 30.0995 28.8397 30.398 27.876 30.3282C26.6364 30.2371 25.3829 30.2642 24.1394 30.3224C23.4161 30.3573 23.1067 30.1751 23.2072 29.4252C23.2525 29.0841 23.1658 28.7256 23.1382 28.3749C23.1382 28.3749 23.1165 28.3962 23.1165 28.3982C24.1571 28.3982 25.2016 28.3517 26.2402 28.4117C26.9399 28.4524 27.2 28.2238 27.0778 27.5591C26.928 26.7394 27.2138 26.4236 28.1085 26.4953C29.0762 26.5728 30.0576 26.4817 31.0352 26.4623C31.0352 26.4604 31.0154 26.4371 31.0154 26.4371Z" fill="#F8F8F8"/>
<path d="M13.6241 36.9429C13.6241 37.4893 13.6241 38.0358 13.6241 38.5822C13.6241 39.7546 13.224 40.0356 12.0317 39.772C11.5074 39.6558 11.6592 39.2702 11.7045 39.0182C11.8898 37.9815 11.403 37.7393 10.4649 37.8517C9.91701 37.9176 9.34942 37.811 8.80154 37.875C7.95804 37.9757 7.7787 37.6347 7.79052 36.8576C7.80235 36.1503 7.96198 35.8519 8.71877 35.943C9.20161 36.0011 9.69825 35.9546 10.189 35.9546C11.5587 35.9546 11.5961 35.9566 11.675 34.5982C11.7223 33.7785 12.3017 34.1157 12.6663 34.104C13.0447 34.0924 13.6556 33.8231 13.628 34.6311C13.6024 35.4004 13.6221 36.1716 13.6241 36.9429Z" fill="#F8F8F8"/>
<path d="M19.3075 49.3231C19.3961 49.2882 19.4848 49.232 19.5755 49.2242C21.3216 49.0963 21.3216 49.0983 21.3216 50.8171C21.3216 51.9429 21.3078 53.0669 21.3275 54.1927C21.3354 54.6423 21.2743 54.9077 20.7028 54.8961C19.1675 54.8632 17.6283 54.8671 16.0931 54.8903C15.2003 54.9039 15.557 54.2663 15.5255 53.8691C15.492 53.4622 15.3324 52.9254 16.1207 52.9642C17.0016 53.0068 17.8865 52.9525 18.7694 52.9816C19.2326 52.9971 19.408 52.8537 19.3883 52.3828C19.3449 51.3577 19.3469 50.3288 19.3311 49.3017C19.3331 49.2998 19.3075 49.3231 19.3075 49.3231Z" fill="#F8F8F8"/>
<path d="M37.8031 51.0843C38.3924 51.0843 38.9896 51.1405 39.5709 51.0707C40.4243 50.97 40.5859 51.3246 40.582 52.0939C40.578 52.807 40.4066 53.1229 39.6577 52.9853C38.8398 52.8361 38.5047 53.1713 38.6526 53.9697C38.8043 54.7816 38.3885 54.8959 37.6652 54.9095C36.9064 54.9231 36.5616 54.7332 36.7094 53.958C36.867 53.1306 36.4847 52.838 35.6905 52.9872C34.847 53.1461 34.774 52.7101 34.7484 52.0203C34.7189 51.2393 34.9731 51.0029 35.7378 51.0708C36.4216 51.1328 37.1153 51.0843 37.8031 51.0843Z" fill="#F8F8F8"/>
<path d="M29.1198 47.2798C27.086 47.427 27.0899 47.427 27.084 45.4292C27.0801 44.2045 27.0643 42.9818 27.0525 41.759C27.0505 41.761 27.0249 41.7881 27.0229 41.79C28.1798 41.4819 29.3622 41.6544 30.525 41.6815C31.3389 41.7009 30.8384 42.4334 30.9349 42.8306C31.0157 43.1697 31.0059 43.5011 30.4403 43.5495C29.0252 43.6716 29.0213 43.7026 29.0311 45.0881C29.0371 45.8264 29.0686 46.5667 29.0903 47.305C29.0903 47.303 29.1198 47.2798 29.1198 47.2798Z" fill="#F8F8F8"/>
<path d="M7.5768 5.67773C7.11761 5.67773 6.65644 5.67773 6.19725 5.67773C6.12236 5.6196 6.04747 5.56147 5.97258 5.50333C5.86813 3.75933 5.87601 2.01727 5.97061 0.273267C6.0455 0.213195 6.12236 0.151186 6.19725 0.0911148C7.31271 0.0949905 8.43015 0.0969254 9.54562 0.100801C9.6008 0.158935 9.65598 0.215133 9.71116 0.273266C9.77423 0.895294 9.80576 1.51538 9.67372 2.13354L9.69343 2.1064C9.2165 1.78667 8.68636 1.9882 8.18183 1.96882C7.72264 1.95138 7.83103 2.34088 7.82512 2.61023C7.80344 3.57524 7.79359 4.54026 7.77782 5.50333C7.71279 5.55953 7.64381 5.61766 7.5768 5.67773Z" fill="#F8F8F8"/>
<path d="M17.3884 30.3023C17.552 30.2984 17.7136 30.2907 17.8771 30.2907C19.2843 30.2868 19.3296 30.2868 19.373 31.6297C19.3966 32.335 19.8341 32.1781 20.2283 32.1878C21.2176 32.2072 21.6906 32.9416 21.3103 33.8485C21.1881 34.1391 20.9634 34.0945 20.7466 34.0965C19.8657 34.1023 18.9847 34.0771 18.1057 34.1081C17.5993 34.1256 17.4179 33.9647 17.4298 33.4531C17.4554 32.3971 17.4219 31.339 17.412 30.281L17.3884 30.3023Z" fill="#F8F8F8"/>
<path d="M27.1562 52.8989C26.0191 53.0946 24.8721 52.9299 23.731 52.988C23.3546 53.0074 23.2048 52.8582 23.2127 52.4822C23.2285 51.5792 23.2226 50.6782 23.2166 49.7752C23.2127 48.8237 23.9458 49.3043 24.3636 49.2268C24.7814 49.1493 25.2761 49.1338 25.148 49.8081C24.945 50.8778 25.3865 51.2789 26.4586 51.089C27.0104 50.9901 27.1267 51.2944 27.0932 51.7691C27.0676 52.1509 27.1149 52.5384 27.1306 52.9241C27.1287 52.9241 27.1562 52.8989 27.1562 52.8989Z" fill="#F8F8F8"/>
<path d="M52.0899 18.8725C53.1029 18.8977 54.1179 18.9849 55.1249 18.9268C55.9862 18.8764 55.9704 19.3279 55.9684 19.9306C55.9665 20.5003 55.9822 20.8995 55.1742 20.8607C53.9917 20.8026 53.9898 20.8646 54.0627 22.7539L54.0804 22.7248C53.4143 22.7248 52.7501 22.7248 52.084 22.7248L52.1096 22.75C52.1096 21.4478 52.1077 20.1476 52.1077 18.8454L52.0899 18.8725Z" fill="#F8F8F8"/>
<path d="M1.95688 17.1844C2.1914 17.0197 2.46534 17.1108 2.71957 17.074C3.68132 16.9306 4.20358 17.2038 4.01044 18.2773C3.96117 18.5564 3.87642 18.8916 4.41839 18.9614C6.02656 19.1706 6.02262 19.1997 5.85116 20.8022L5.87481 20.7867C4.57409 20.8429 3.2714 20.9166 1.97265 20.7441L2.00024 20.7674C2.09089 19.5659 2.13228 18.3665 1.98053 17.165C1.98447 17.165 1.95688 17.1844 1.95688 17.1844Z" fill="#F8F8F8"/>
<path d="M11.7938 24.7041C11.6283 24.9366 11.7347 25.2041 11.6953 25.4521C11.5751 26.235 11.78 26.7039 12.7122 26.5179C13.5754 26.3454 13.6227 26.8337 13.6464 27.5061C13.672 28.2289 13.467 28.475 12.7201 28.4169C11.8115 28.3452 10.7099 28.6901 10.028 28.2948C9.29485 27.8704 9.81317 26.7175 9.76981 25.89C9.70478 24.6227 9.75208 24.615 11.0528 24.6382C11.309 24.6421 11.5652 24.6964 11.8214 24.7274L11.7938 24.7041Z" fill="#F8F8F8"/>
<path d="M4.00642 1.97748C4.00445 3.82031 4.00444 3.82031 2.11248 3.82031C1.85037 3.82031 1.59023 3.82031 1.32811 3.82031C0.167319 3.82031 -0.189393 3.35137 0.133816 2.2604C0.287538 1.74107 0.730965 1.92322 1.02067 1.96198C1.90753 2.08018 2.22679 1.73913 2.06321 0.903951C1.91343 0.134652 2.2938 0.00288144 2.98751 0.0300101C3.63788 0.0552013 4.16999 0.0338869 4.01627 0.92139C3.95517 1.26244 4.00642 1.62481 4.00642 1.97748Z" fill="#F8F8F8"/>
<path d="M36.73 11.3205C36.7221 10.2916 36.7418 9.25872 36.6945 8.23169C36.6689 7.68912 36.8995 7.58254 37.3823 7.60579C38.0366 7.63873 38.6909 7.61354 39.3472 7.61354C40.508 7.61354 40.8411 8.06505 40.5395 9.17539C40.4627 9.46218 40.2932 9.48544 40.0488 9.51644C38.5254 9.70441 38.5254 9.71022 38.7008 11.3205L38.7166 11.2876C38.0504 11.4484 37.3863 11.4465 36.7201 11.2934L36.73 11.3205Z" fill="#F8F8F8"/>
<path d="M31.0126 26.4361C31.0126 26.4361 31.0323 26.4594 31.0323 26.4613C30.8057 25.382 30.9949 24.2891 30.9318 23.2039C30.9081 22.8067 31.123 22.7272 31.4738 22.7311C32.3882 22.7447 33.3066 22.766 34.2191 22.7253C34.9621 22.6923 34.8064 23.2078 34.7551 23.5682C34.6999 23.9519 35.1394 24.7057 34.2545 24.6166C33.1312 24.5022 32.6168 24.8278 32.8356 25.9885C32.9164 26.4206 32.6681 26.564 32.264 26.5272C31.8502 26.4884 31.4205 26.6202 31.0126 26.4361Z" fill="#F8F8F8"/>
<path d="M48.2459 18.8443L48.2459 18.8695C48.2459 17.8153 48.2734 16.7593 48.238 15.707C48.2163 15.0753 48.6459 15.1083 49.0026 15.1955C49.3948 15.2904 50.0314 14.7711 50.1634 15.6005C50.2403 16.081 49.8915 16.7302 50.3901 17.0092C50.7625 17.2166 51.342 17.0635 51.8268 17.0829C51.9509 17.0887 52.0731 17.1449 52.1953 17.1778L52.1677 17.1546C52.1421 17.7262 52.1145 18.2998 52.0889 18.8714L52.1086 18.8424C50.8217 19.0284 49.5328 19.0187 48.2459 18.8443Z" fill="#F8F8F8"/>
<path d="M15.4735 0.269344C15.5642 2.01335 15.5563 3.75541 15.4775 5.49941C15.4045 5.55755 15.3316 5.61374 15.2587 5.67188C14.7995 5.67188 14.3423 5.67188 13.8831 5.67188C13.8122 5.61374 13.7412 5.55755 13.6683 5.49941C13.5875 3.75541 13.5835 2.01335 13.6703 0.269344C13.7412 0.209273 13.8102 0.149203 13.8811 0.089132C14.3403 0.0891319 14.7995 0.0891338 15.2607 0.0910716C15.3316 0.151143 15.4026 0.211211 15.4735 0.269344Z" fill="#F8F8F8"/>
<path d="M52.1983 17.1758C52.1688 17.1196 52.1175 17.0634 52.1116 17.0033C51.9382 15.1682 51.9382 15.1682 53.7848 15.1682C54.177 15.1682 54.5751 15.2109 54.9594 15.1586C55.7694 15.05 56 15.3426 55.996 16.1488C55.9921 16.9297 55.7517 17.1351 54.9949 17.0963C54.0548 17.0479 53.1108 17.1254 52.1688 17.1487C52.1727 17.1525 52.1983 17.1758 52.1983 17.1758Z" fill="#F8F8F8"/>
<path d="M2.07594 7.61153C2.072 8.67537 2.03061 9.73921 2.07791 10.8011C2.11339 11.5956 1.56157 11.4115 1.15953 11.3786C0.759455 11.3476 0.0815015 11.7138 0.116976 10.8263C0.136684 10.3767 0.120921 9.9233 0.120921 9.47374C0.120921 7.56503 0.120918 7.56502 2.10156 7.63478C2.09959 7.63478 2.07594 7.61153 2.07594 7.61153Z" fill="#F8F8F8"/>
<path d="M29.0449 9.60767C29.4785 9.39064 29.9416 9.55341 30.389 9.50303C30.8127 9.45459 30.9664 9.63868 30.9566 10.0553C30.9349 10.9525 30.9507 11.8516 30.9507 12.7488C30.9507 13.6286 30.2668 13.2158 29.8746 13.2565C29.5238 13.2933 28.9759 13.5007 29.0075 12.7546C29.0528 11.6985 29.0469 10.6424 29.0627 9.58635C29.0646 9.58635 29.0449 9.60767 29.0449 9.60767Z" fill="#F8F8F8"/>
<path d="M23.23 2.0332L23.2457 2.00801C22.5816 2.00801 21.9154 2.00801 21.2513 2.00801L21.1941 2.02351L21.1409 1.99832C21.3971 1.69216 21.3203 1.3201 21.2868 0.986803C21.2158 0.281452 21.407 0.0179104 22.213 0.00240812C23.1117 -0.0169699 23.3699 0.271763 23.2497 1.08369C23.2043 1.39374 23.2339 1.71541 23.23 2.0332Z" fill="#F8F8F8"/>
<path d="M5.87591 20.7869L5.85227 20.8024C6.5519 20.8005 7.25349 20.7966 7.95312 20.7947C7.95312 20.7947 7.93145 20.7792 7.93145 20.7811C7.76196 21.2171 7.83094 21.6744 7.85459 22.1162C7.88218 22.6336 7.68313 22.7577 7.17861 22.7615C5.90153 22.7712 5.9035 22.7983 5.89562 21.5582C5.89562 21.3004 5.8838 21.0447 5.87591 20.7869Z" fill="#F8F8F8"/>
<path d="M38.6555 4.83406C38.5432 4.16553 38.6023 3.74309 39.5148 3.78185C40.2735 3.81479 40.6184 3.90393 40.579 4.76624C40.5455 5.47547 40.441 5.79327 39.6212 5.74288C38.9452 5.70219 38.4368 5.68475 38.6555 4.83406Z" fill="#F8F8F8"/>
<path d="M31.9321 51.1086C32.7913 50.8877 32.8268 51.3625 32.8761 52.0446C32.9392 52.9243 32.5568 52.9766 31.8138 53.0193C30.9033 53.0716 30.9467 52.6278 30.9014 51.9884C30.8422 51.159 31.1891 50.9536 31.9321 51.1086Z" fill="#F8F8F8"/>
<path d="M17.4684 25.5949C17.2516 24.7442 17.6497 24.6163 18.3868 24.5989C19.1889 24.5814 19.4116 24.7907 19.4254 25.5968C19.4392 26.4746 19.0785 26.5502 18.3415 26.5618C17.5256 26.5773 17.2418 26.3216 17.4684 25.5949Z" fill="#F8F8F8"/>
<path d="M2.05855 15.1779C2.03293 15.8464 2.18665 16.5246 1.96001 17.1854C1.95804 17.1873 1.98366 17.168 1.98169 17.168C1.56979 16.9955 1.13819 17.1001 0.718413 17.0943C0.334109 17.0885 0.140972 17.0149 0.103527 16.5673C-0.00683706 15.2031 0.00498516 15.1624 1.39439 15.1701C1.623 15.1721 1.85162 15.1895 2.08023 15.1992C2.08023 15.2011 2.05855 15.1779 2.05855 15.1779Z" fill="#F8F8F8"/>
<path d="M1.96938 20.7458C2.16646 21.1082 2.00683 21.5035 2.07383 21.8775C2.20588 22.6293 1.86099 22.8037 1.15347 22.7592C0.240997 22.703 -0.289144 21.8465 0.14443 21.0345C0.260706 20.8175 0.4499 20.8369 0.641066 20.8291C1.09435 20.8098 1.54763 20.7923 2.00091 20.7729C1.99697 20.7691 1.96938 20.7458 1.96938 20.7458Z" fill="#F8F8F8"/>
<path d="M38.7227 18.9719C38.7227 18.9719 38.7069 18.939 38.7089 18.939C38.6872 19.2549 38.6143 19.5785 38.6517 19.8866C38.7384 20.6132 38.5138 20.8729 37.7116 20.8671C36.9233 20.8613 36.5686 20.7024 36.7065 19.8788C36.7637 19.5358 36.7302 19.1773 36.7361 18.8266L36.7243 18.8731C37.3904 18.9061 38.0565 18.939 38.7227 18.9719Z" fill="#F8F8F8"/>
<path d="M11.7071 31.2476C11.5336 30.5073 11.7918 30.2477 12.6018 30.2593C13.3724 30.2709 13.666 30.4105 13.6641 31.2476C13.6621 32.0789 13.3763 32.2281 12.6038 32.2378C11.7918 32.2514 11.5376 31.9878 11.7071 31.2476Z" fill="#F8F8F8"/>
<path d="M2.08219 15.1992C2.07431 14.7845 2.09204 14.3679 2.04868 13.9571C1.99153 13.4145 2.1965 13.2479 2.75423 13.2479C3.98991 13.2498 4.3348 13.6703 4.00962 14.8562C3.92882 15.1527 3.75539 15.1818 3.51692 15.1818C3.03014 15.1798 2.54335 15.1779 2.05657 15.176C2.06051 15.176 2.08219 15.1992 2.08219 15.1992Z" fill="#F8F8F8"/>
<path d="M27.1351 52.9249C27.5234 52.9404 27.9156 52.9908 28.3018 52.9618C28.834 52.923 29.0448 53.0761 29.0468 53.6477C29.0527 54.8899 28.6802 55.1921 27.417 54.8976C27.1075 54.8259 27.0662 54.6612 27.0819 54.4248C27.1154 53.9171 26.9893 53.4036 27.1608 52.9017C27.1627 52.8998 27.1351 52.9249 27.1351 52.9249Z" fill="#F8F8F8"/>
<path d="M25.1339 12.3658C25.3487 13.17 24.9447 13.292 24.2096 13.3095C23.3917 13.3289 23.2025 13.0866 23.1769 12.296C23.1493 11.3756 23.5868 11.395 24.2845 11.3465C25.1693 11.2864 25.2718 11.6856 25.1339 12.3658Z" fill="#F8F8F8"/>
<path d="M19.4119 47.3398C19.3803 48.0006 19.3468 48.6594 19.3133 49.3202C19.3114 49.3221 19.337 49.297 19.335 49.2989C18.7123 49.1555 18.0875 49.2214 17.4628 49.264L17.4904 49.2892C17.4825 49.2582 17.4667 49.2272 17.4667 49.1962C17.4884 46.991 16.9563 47.2797 19.4375 47.363L19.4119 47.3398Z" fill="#F8F8F8"/>
<path d="M19.4406 47.3658C19.3834 46.6895 19.277 46.0094 19.4977 45.3389C19.4997 45.337 19.4721 45.3621 19.4741 45.3602C19.8308 45.3738 20.1914 45.4358 20.5383 45.3951C21.2025 45.3176 21.3108 45.6024 21.3601 46.2031C21.435 47.1333 21.1354 47.4937 20.1914 47.3348C19.9392 47.2922 19.6731 47.3348 19.4149 47.3387C19.4149 47.3406 19.4406 47.3658 19.4406 47.3658Z" fill="#F8F8F8"/>
<path d="M4.07508 37.7927C4.46333 37.8102 4.85355 37.8722 5.23588 37.8373C5.8212 37.783 5.93748 38.0408 5.93748 38.5581C5.94142 39.715 5.4231 40.1064 4.28399 39.7712C4.03961 39.6995 3.97457 39.5639 3.99034 39.3643C4.0337 38.8314 3.86224 38.2849 4.10268 37.7675C4.10071 37.7675 4.07508 37.7927 4.07508 37.7927Z" fill="#F8F8F8"/>
<path d="M2.03666 37.8032C2.05045 38.059 2.07608 38.3128 2.07805 38.5686C2.08593 39.7119 1.49863 40.1634 0.436376 39.7448C-0.219897 39.4871 0.233385 38.8457 0.134845 38.3903C0.0638967 38.0648 0.182143 37.8342 0.596009 37.8458C1.08476 37.8594 1.57352 37.8361 2.06228 37.8284L2.03666 37.8032Z" fill="#F8F8F8"/>
<path d="M4.05863 7.61309C5.78701 7.59759 5.78701 7.59759 5.99789 9.5625C5.99789 9.5625 6.01365 9.54506 6.01562 9.54506C5.88752 9.53731 5.75942 9.52568 5.62935 9.52375C3.78469 9.48499 3.78469 9.48499 4.08425 7.59178L4.05863 7.61309Z" fill="#F8F8F8"/>
<path d="M25.1239 37.8516C24.4577 37.8516 23.7916 37.8496 23.1255 37.8496C23.155 37.5047 23.2339 37.1559 23.2023 36.8168C23.1452 36.1831 23.3226 35.9351 24.0399 35.9273C24.8696 35.9177 25.3367 36.0649 25.1633 36.997C25.112 37.2741 25.1357 37.5667 25.1239 37.8516Z" fill="#F8F8F8"/>
<path d="M4.07422 7.59018C3.40809 7.59599 2.74 7.60375 2.07387 7.60956L2.09948 7.63281C2.08372 7.31308 2.09752 6.98947 2.04627 6.67555C1.91423 5.85974 2.26306 5.67372 3.0632 5.66984C3.86531 5.66597 4.10772 5.91788 4.01312 6.65617C3.97174 6.97009 4.03283 7.29564 4.0486 7.61537C4.05057 7.61344 4.07422 7.59018 4.07422 7.59018Z" fill="#F8F8F8"/>
<path d="M2.05194 37.8271C2.10712 37.1682 1.9396 36.4978 2.15639 35.8467L2.1288 35.8699C2.75551 36.0269 3.38813 35.9513 4.01879 35.9126L3.99711 35.8912C4.02273 36.5268 4.04638 37.1624 4.07397 37.7961C4.07594 37.7941 4.10156 37.7689 4.10156 37.767C3.41573 37.955 2.72201 37.8794 2.02829 37.8038C2.02829 37.8019 2.05194 37.8271 2.05194 37.8271Z" fill="#F8F8F8"/>
<path d="M17.4413 5.69026C17.4472 3.95013 17.4472 3.95013 19.4141 3.74861L19.3904 3.74279C19.3983 5.80459 19.3983 5.80459 17.4137 5.68057L17.4413 5.69026Z" fill="#F8F8F8"/>
<path d="M17.4132 30.2814C17.1865 30.2891 16.9579 30.3046 16.7313 30.3066C15.5015 30.3124 15.2118 29.9713 15.5232 28.7777C15.7262 28.0006 16.3943 28.5161 16.8377 28.4037C17.1747 28.3184 17.4959 28.3959 17.4624 28.8745C17.427 29.3493 17.4132 29.8279 17.3895 30.3046C17.3895 30.3027 17.4132 30.2814 17.4132 30.2814Z" fill="#F8F8F8"/>
<path d="M11.8193 24.7246C11.5847 24.0541 11.6439 23.3779 11.7897 22.6996C11.7917 22.6996 11.7641 22.7229 11.7661 22.7229C12.0597 22.7229 12.3593 22.7616 12.645 22.719C13.4767 22.595 13.6521 22.9496 13.66 23.7247C13.6679 24.5173 13.3998 24.7459 12.6569 24.6548C12.3731 24.62 12.0794 24.6839 11.7897 24.7033C11.7917 24.7033 11.8193 24.7246 11.8193 24.7246Z" fill="#F8F8F8"/>
<path d="M17.4613 49.2668C17.4594 49.5885 17.4121 49.9199 17.4633 50.2338C17.5914 51.007 17.2189 51.1077 16.5291 51.129C15.7152 51.1542 15.4708 50.9236 15.4866 50.1156C15.5004 49.4044 15.662 49.0905 16.4168 49.2106C16.7676 49.2668 17.1283 49.2668 17.4869 49.294C17.4889 49.292 17.4613 49.2668 17.4613 49.2668Z" fill="#F8F8F8"/>
<path d="M32.7301 7.68717C32.5389 7.66391 32.3477 7.62516 32.1546 7.62128C30.8756 7.60191 30.913 7.60384 30.9189 6.36754C30.9209 5.78233 31.1534 5.65637 31.6757 5.69513C32.0285 5.72226 32.3891 5.668 32.7439 5.64669C32.7419 5.64475 32.7163 5.62149 32.7143 5.61956C32.937 6.31328 32.9429 7.00894 32.7084 7.70461C32.7064 7.70848 32.7301 7.68717 32.7301 7.68717Z" fill="#F8F8F8"/>
<path d="M31.9912 30.2935C32.7164 30.1152 32.8662 30.4853 32.882 31.2256C32.8997 32.0375 32.6435 32.2158 31.8414 32.239C30.9624 32.2642 30.8934 31.8902 30.925 31.2178C30.9683 30.2954 30.9407 30.2935 31.9912 30.2935Z" fill="#F8F8F8"/>
<path d="M36.7305 18.826C36.2811 19.0953 35.7884 18.8996 35.3194 18.9577C34.9134 19.0081 34.7341 18.857 34.7616 18.4345C34.7912 17.9927 34.7676 17.549 34.7676 17.1072L34.7459 17.1343C36.697 16.9386 36.697 16.9386 36.7127 18.7775C36.7127 18.8085 36.7147 18.8415 36.7167 18.8725L36.7305 18.826Z" fill="#F8F8F8"/>
<path d="M23.1485 37.8261C23.4126 39.7542 23.4126 39.7542 21.361 39.7639L21.3846 39.7891C21.2841 39.136 21.2881 38.4811 21.3846 37.828L21.3531 37.8377C21.9522 37.8338 22.5513 37.83 23.1485 37.8261Z" fill="#F8F8F8"/>
<path d="M9.6787 2.13079C10.2049 1.74517 10.873 1.83431 11.348 1.99514C12.1047 2.25287 11.7658 3.09774 11.6317 3.55506C11.4642 4.13058 10.735 3.73721 10.2601 3.81859C9.9014 3.8806 9.72797 3.72171 9.74374 3.33609C9.7595 2.92528 9.71811 2.51059 9.69841 2.10172C9.69841 2.10366 9.6787 2.13079 9.6787 2.13079Z" fill="#F8F8F8"/>
<path d="M2.16016 35.846C1.89804 36.0282 1.59848 35.9584 1.31075 35.9643C0.151922 35.9817 -0.173258 35.5341 0.12236 34.4121C0.201192 34.1098 0.380534 34.0827 0.615058 34.0904C1.03287 34.104 1.45068 34.1311 1.86848 34.1524C1.92169 34.2202 1.97688 34.2861 2.03009 34.354C2.06162 34.8597 2.09513 35.3674 2.12863 35.8712C2.13257 35.8693 2.16016 35.846 2.16016 35.846Z" fill="#F8F8F8"/>
<path d="M21.1519 1.9981L21.2051 2.02328L21.2623 2.00779C21.4673 3.91456 21.4672 3.91456 19.597 3.77504C19.5398 3.70334 19.4807 3.63358 19.4235 3.56188C19.4235 3.11038 19.4235 2.65888 19.4255 2.20544C19.4827 2.13568 19.5418 2.06592 19.5989 1.99422C20.1173 1.91089 20.6356 1.90896 21.1519 1.9981Z" fill="#F8F8F8"/>
<path d="M27.1287 9.6365C27.1129 9.92135 27.0558 10.212 27.0932 10.4911C27.1858 11.177 26.9809 11.4638 26.2123 11.4096C25.2564 11.3437 24.7598 10.6073 25.1618 9.72758C25.2486 9.53767 25.3924 9.50473 25.5422 9.5183C26.0783 9.56286 26.638 9.35746 27.1523 9.66169C27.1523 9.66363 27.1287 9.6365 27.1287 9.6365Z" fill="#F8F8F8"/>
<path d="M38.6935 43.4701C38.6757 43.2143 38.6836 42.9546 38.6343 42.7046C38.455 41.7706 38.9142 41.5807 39.7597 41.635C40.3016 41.6699 40.5243 41.7183 40.5716 42.3558C40.6465 43.3441 40.3253 43.7123 39.3438 43.5321C39.1211 43.4914 38.8945 43.4759 38.6698 43.4468L38.6935 43.4701Z" fill="#F8F8F8"/>
<path d="M2.02341 34.3535C1.9702 34.2857 1.91502 34.2198 1.86181 34.152C2.02341 34.1326 2.05692 34.2179 2.02341 34.3535Z" fill="#F8F8F8"/>
<path d="M27.2812 17.1245C27.228 17.1865 27.1729 17.2505 27.1196 17.3125C27.0822 17.1749 27.1216 17.0993 27.2812 17.1245Z" fill="#F8F8F8"/>
<path d="M15.2617 5.67195C15.3346 5.61382 15.4075 5.55762 15.4805 5.49949C15.4667 5.55956 15.4548 5.62157 15.4411 5.68164L15.4686 5.68164C15.3997 5.67777 15.3307 5.67583 15.2617 5.67195Z" fill="#F8F8F8"/>
<path d="M13.6797 5.49949C13.7507 5.55762 13.8216 5.61382 13.8945 5.67195C13.8256 5.67583 13.7566 5.67777 13.6876 5.68164L13.7152 5.68164C13.6955 5.64289 13.6699 5.608 13.6561 5.56731C13.6502 5.54793 13.6699 5.52274 13.6797 5.49949Z" fill="#F8F8F8"/>
<path d="M7.58607 5.67609C7.65308 5.61796 7.72206 5.55788 7.78906 5.49975C7.7595 5.57145 7.73191 5.64315 7.70038 5.71484C7.69841 5.71484 7.726 5.6974 7.72403 5.6974C7.67279 5.72453 7.62746 5.71872 7.58607 5.67609Z" fill="#F8F8F8"/>
<path d="M5.97455 5.50228C6.04944 5.56042 6.12433 5.61855 6.19922 5.67669C6.05338 5.70769 5.95484 5.67862 5.97455 5.50228Z" fill="#F8F8F8"/>
<path d="M19.4203 3.56028C19.4775 3.63198 19.5366 3.70174 19.5938 3.77344C19.5267 3.76181 19.4578 3.75213 19.3908 3.7405L19.4144 3.74631C19.4184 3.6843 19.4203 3.62229 19.4203 3.56028Z" fill="#F8F8F8"/>
<path d="M19.5977 1.99777C19.5405 2.06753 19.4814 2.13729 19.4242 2.20898C19.3927 2.06753 19.4282 1.97839 19.5977 1.99777Z" fill="#F8F8F8"/>
<path d="M15.4765 0.269531C15.4056 0.20946 15.3346 0.149392 15.2657 0.0912588C15.4154 0.0583166 15.5002 0.100944 15.4765 0.269531Z" fill="#F8F8F8"/>
<path d="M13.8867 0.0893192C13.8158 0.14939 13.7468 0.20946 13.6758 0.269531C13.6502 0.100944 13.735 0.0563769 13.8867 0.0893192Z" fill="#F8F8F8"/>
<path d="M9.7169 0.271484C9.66171 0.213351 9.60653 0.157153 9.55135 0.0990191C9.69719 0.0699524 9.7504 0.130026 9.7169 0.271484Z" fill="#F8F8F8"/>
<path d="M6.19922 0.0893326C6.12433 0.149404 6.04747 0.211413 5.97258 0.271484C5.9509 0.0912709 6.04944 0.0583281 6.19922 0.0893326Z" fill="#F8F8F8"/>
<path d="M47.9648 30.2601C48.0397 30.2039 48.1126 30.1477 48.1875 30.0915C48.1816 30.1612 48.1737 30.2291 48.1678 30.2988C48.0988 30.2853 48.0318 30.2736 47.9648 30.2601Z" fill="#F7F7F7"/>
<path d="M12.6196 13.2622C11.8234 13.4559 11.6638 13.1013 11.6559 12.363C11.648 11.584 11.8471 11.3496 12.6709 11.3399C13.5518 11.3302 13.6307 11.6751 13.6582 12.4018C13.6898 13.2428 13.3311 13.3997 12.6196 13.2622Z" fill="#F8F8F8"/>
<path d="M50.113 30.2753C50.7791 30.2753 51.4432 30.2753 52.1094 30.2753C52.0897 32.1375 52.0897 32.1375 50.113 32.2383C50.113 31.5852 50.113 30.9303 50.113 30.2753Z" fill="#F8F8F8"/>
<path d="M52.0172 6.70569C52.0172 7.60288 52.3759 8.80624 51.9246 9.31781C51.3905 9.9224 50.1351 9.50384 49.197 9.49803C48.2628 9.49415 47.0114 9.93209 46.4793 9.30231C46.0201 8.76167 46.3433 7.57575 46.3315 6.67468C46.3216 5.99646 46.361 5.31824 46.3196 4.64195C46.2822 4.05093 46.4064 3.77189 47.1099 3.79902C48.519 3.85715 49.9321 3.84359 51.3412 3.80095C51.96 3.78158 52.1414 3.99086 52.1039 4.57413C52.0586 5.28142 52.0921 5.99258 52.0921 6.70181C52.0684 6.70569 52.0428 6.70569 52.0172 6.70569Z" fill="#F8F8F8"/>
<path d="M49.1467 51.0885C48.4254 51.0885 47.7041 51.0556 46.9848 51.1001C46.4468 51.1331 46.3265 50.9257 46.3364 50.4374C46.366 48.988 46.3738 47.5385 46.3325 46.089C46.3167 45.5038 46.5512 45.3992 47.0774 45.4108C48.5181 45.4399 49.9607 45.4341 51.4013 45.4147C51.8684 45.4089 52.1226 45.4786 52.1088 46.0348C52.0734 47.5152 52.0734 48.9977 52.1088 50.4781C52.1226 51.0362 51.8684 51.1118 51.4033 51.0963C50.6544 51.0711 49.8996 51.0885 49.1467 51.0885Z" fill="#F8F8F8"/>
</g>
<defs>
<clipPath id="clip0_2899_10702">
<rect width="56" height="55" fill="white" transform="translate(56 55) rotate(180)"/>
</clipPath>
</defs>
</svg>
