<svg width="56" height="56" viewBox="0 0 56 56" fill="none" xmlns="http://www.w3.org/2000/svg">
<g id="Frame" clip-path="url(#clip0_1095_42663)">
<path id="Vector" d="M6.1721 9.79005C7.98797 9.62781 8.00166 9.62781 7.98211 7.72006C7.97625 7.11216 8.10916 6.49058 7.88633 5.89246C7.88829 5.89246 7.86092 5.91005 7.86092 5.91005C9.84881 5.89832 11.8347 5.88659 13.8226 5.87682L13.7953 5.87682C13.7757 6.19934 13.7816 6.52381 13.7308 6.84047C13.6018 7.64969 13.9184 7.87644 14.7296 7.85884C15.4489 7.84321 15.7519 7.68097 15.6326 6.9382C15.5779 6.59027 15.5877 6.23061 15.5681 5.87487L15.5408 5.87487C16.2034 5.87682 16.8641 5.88073 17.5267 5.88268L17.4993 5.87487C17.6127 7.82757 17.6127 7.82757 19.5986 7.82757C19.8899 7.82757 20.185 7.79238 20.4704 7.83343C21.1917 7.93898 21.5103 7.67315 21.3715 6.9382C21.2093 6.07815 21.5611 5.74781 22.4114 5.90419C23.0701 6.02342 23.3223 5.783 23.2793 5.07932C23.2226 4.11372 23.2812 3.14225 23.291 2.17274L23.2754 2.19815C24.239 2.00073 25.2144 2.10237 26.18 2.12974C26.8934 2.14928 27.2335 1.96946 27.085 1.22082C26.9091 0.333409 27.302 0.132081 28.1366 0.177037C29.4638 0.249359 30.8008 0.251314 32.128 0.177036C32.9705 0.130125 32.8121 0.642244 32.8024 1.1055C32.7926 1.58048 33.0115 2.25484 32.1143 2.1102C31.1585 1.95578 30.7206 2.27634 30.9142 3.28494C31.0393 3.92998 30.6737 4.10004 30.1284 3.9984C29.1432 3.81661 28.9439 4.26423 28.9908 5.16728C29.0709 6.72123 29.024 8.28105 29.0299 9.83891L29.0494 9.81741C28.4083 9.7314 27.7672 9.63563 27.1338 9.86628L27.1573 9.89364C27.1338 8.79317 27.0537 7.68879 27.1026 6.59027C27.1436 5.66962 26.5357 5.93741 26.0744 5.91396C25.5916 5.8905 25.0209 5.79668 25.1714 6.60395C25.3649 7.63797 24.9173 8.00349 23.9263 7.82952C23.3164 7.72202 23.1952 8.0719 23.2734 8.56447C23.4122 9.44602 23.1678 9.94055 22.1612 9.74509C21.5201 9.61999 21.3129 9.90341 21.3637 10.5367C21.4165 11.215 21.3266 11.905 21.3891 12.5813C21.4595 13.3358 21.2269 13.6759 20.4391 13.541C20.1244 13.4883 19.7902 13.6153 19.4833 13.4492C19.4755 13.1638 19.4266 12.8686 19.4696 12.5891C19.5967 11.7603 19.2253 11.602 18.4591 11.5981C17.6889 11.5961 17.4212 11.8248 17.5248 12.5715C17.5619 12.8491 17.4954 13.1403 17.4759 13.4238C17.1807 13.6349 16.8426 13.4843 16.5298 13.5371C15.8125 13.6583 15.5369 13.4003 15.6053 12.6458C15.6756 11.8718 15.6033 11.086 15.6268 10.3061C15.6385 9.90342 15.5349 9.72554 15.0892 9.73336C13.5607 9.75681 12.0302 9.75681 10.5017 9.73336C10.0306 9.72554 9.8879 9.88387 9.89572 10.3491C9.92113 11.8444 9.92895 13.3417 9.89377 14.837C9.88009 15.4019 10.1381 15.4722 10.5974 15.4586C11.4419 15.4351 12.2902 15.4742 13.1346 15.4429C13.6135 15.4253 13.7581 15.6071 13.7444 16.0645C13.719 16.9421 13.7542 17.8217 13.7308 18.6994C13.719 19.1216 13.8617 19.2721 14.2878 19.2604C15.1987 19.235 16.1096 19.2408 17.0204 19.2565C17.3879 19.2623 17.5482 19.1509 17.5365 18.758C17.4798 16.9734 17.6264 15.1849 17.4563 13.4023C18.1405 13.6134 18.8226 13.6036 19.5087 13.4159C19.4911 16.3421 19.4345 19.2682 19.4833 22.1923C19.499 23.07 19.1178 23.0817 18.4552 23.1013C17.7632 23.1208 17.3821 22.9879 17.5326 22.2099C17.6987 21.3499 17.3586 21.086 16.4888 21.1447C15.2574 21.2267 14.0161 21.2111 12.7828 21.1466C12.0243 21.1075 11.694 21.3186 11.825 22.1024C11.8777 22.4191 11.8758 22.7455 11.8992 23.0661C11.8973 23.0661 11.9247 23.0426 11.9247 23.0426C11.6999 23.0544 11.477 23.0759 11.2523 23.0778C9.96609 23.0895 9.93677 23.0876 9.91527 21.7956C9.90745 21.2756 9.73349 21.1212 9.24091 21.1544C8.86171 21.1798 8.47664 21.1251 8.09353 21.1056L8.11503 21.1212C7.86483 20.8045 8.04466 20.4332 7.98798 20.0911C7.86874 19.3894 8.18735 19.1841 8.85389 19.2369C9.18032 19.2623 9.70417 19.4461 9.8234 19.0844C9.97782 18.6173 9.98759 18.0328 9.85077 17.5598C9.7374 17.1689 9.20964 17.3546 8.88907 17.3878C8.15608 17.464 7.84724 17.2041 7.98993 16.473C8.16194 15.5895 7.77101 15.3041 6.94223 15.4507C6.26983 15.57 6.03918 15.3022 6.07827 14.6102C6.1721 12.9996 5.97663 11.3792 6.18578 9.76854C6.18774 9.77245 6.1721 9.79005 6.1721 9.79005Z" fill="#F8F8F8"/>
<path id="Vector_2" d="M42.3288 25.0156C40.6771 25.0097 39.0216 24.953 37.3738 25.0195C36.5137 25.0546 36.6173 24.5679 36.6349 24.046C36.6506 23.5613 36.4492 22.9729 37.3464 23.0589C38.1498 23.1352 38.9668 23.0492 39.7741 23.0844C40.2725 23.1059 40.47 22.9612 40.4426 22.4393C40.4035 21.6633 40.3859 20.8815 40.4465 20.1094C40.4993 19.4194 40.2628 19.1711 39.5845 19.2591C39.2678 19.3001 38.9375 19.2532 38.615 19.2474L38.6287 19.2806C38.4958 16.6965 38.4918 14.1144 38.6306 11.5304L38.615 11.5636C40.4367 11.7434 40.4367 11.7434 40.4367 13.6375C40.4367 14.5464 40.466 15.4553 40.427 16.3623C40.3996 17.0327 40.4524 17.4295 41.332 17.4022C42.1099 17.3768 42.493 17.2262 42.3425 16.3955C42.2057 15.6312 42.5165 15.428 43.2827 15.4201C44.0939 15.4123 44.4125 15.6371 44.2718 16.4424C44.1525 17.1266 44.3617 17.5136 45.1377 17.367C45.988 17.2067 46.3476 17.537 46.1854 18.4049C46.0603 19.0734 46.3202 19.3666 47.0181 19.2571C47.366 19.2024 47.7237 19.2024 48.0755 19.177L48.0755 19.1516C48.0794 20.2579 48.099 21.3623 48.0755 22.4686C48.0658 22.9319 48.2124 23.0941 48.6873 23.0824C49.7604 23.055 50.8355 23.0824 51.9086 23.0863L51.8832 23.0609C51.8871 23.2231 51.891 23.3854 51.893 23.5496C51.9008 24.8944 51.8988 24.8944 50.5599 24.9901C50.3156 25.0077 50.0654 24.9335 49.9676 25.3166C49.6783 26.4522 50.0028 26.9018 51.1717 26.9018C51.8558 26.9018 52.54 26.8803 53.2221 26.9077C53.6913 26.9253 53.8398 26.7454 53.832 26.2802C53.8164 25.2091 53.8515 24.136 53.8652 23.0629L53.8476 23.0922C55.728 23.0394 55.728 23.0394 55.728 24.9374C55.728 26.0085 55.7143 27.0797 55.7339 28.1508C55.7417 28.575 55.6635 28.7841 55.1572 28.8076C53.8105 28.8682 53.8105 28.8975 53.8261 30.2267C53.8281 30.3889 53.8437 30.5492 53.8535 30.7114L53.8652 30.6821C53.2045 30.686 52.5439 30.688 51.8812 30.6919C51.8891 30.4358 51.8656 30.1758 51.9086 29.9257C52.063 29.0167 51.7444 28.6981 50.7886 28.7548C50.0888 28.7959 49.8973 29.0148 49.9676 29.654C50.0048 30.0019 49.9598 30.3576 49.952 30.7095C49.2913 30.7017 48.6326 30.6938 47.9719 30.686L47.9973 30.7114C48.0032 30.6411 48.011 30.5726 48.0169 30.5023C48.0364 29.0089 47.9973 27.5097 48.1009 26.0222C48.1635 25.1231 47.8507 24.8631 47.0239 24.996C46.4532 25.0879 46.0407 24.9471 46.1873 24.2415C46.4062 23.184 45.8804 22.9319 44.9637 23.0804C44.4008 23.1723 44.2288 22.926 44.26 22.3768C44.303 21.5988 44.2092 20.8091 44.2874 20.037C44.3812 19.0988 43.7714 19.3021 43.2436 19.2591C42.6201 19.2083 42.3073 19.3236 42.3308 20.0781C42.3816 21.7337 42.3249 23.3932 42.3112 25.0527L42.3288 25.0156Z" fill="#F8F8F8"/>
<path id="Vector_3" d="M55.742 6.8658C55.742 8.84978 55.7264 10.8357 55.7518 12.8197C55.7596 13.3572 55.6169 13.5507 55.0461 13.5488C51.043 13.5253 47.0418 13.5253 43.0387 13.5488C42.4601 13.5527 42.3428 13.3494 42.3448 12.8177C42.3643 8.84782 42.3643 4.87791 42.3448 0.909959C42.3428 0.374383 42.4679 0.176961 43.0426 0.18087C47.0457 0.204325 51.0469 0.204325 55.05 0.180869C55.6267 0.17696 55.7596 0.378293 55.7537 0.911915C55.7264 2.89589 55.742 4.88182 55.742 6.8658ZM49.0649 2.11207C47.6986 2.11207 46.3323 2.12576 44.966 2.10426C44.5047 2.09644 44.2643 2.1629 44.2701 2.72584C44.2975 5.48972 44.2916 8.25556 44.274 11.0194C44.2701 11.4886 44.4187 11.6332 44.8839 11.6313C47.6478 11.6137 50.4136 11.6117 53.1775 11.6313C53.6935 11.6352 53.8382 11.4592 53.8343 10.9569C53.8127 8.22429 53.8127 5.49363 53.8362 2.76102C53.8401 2.23522 53.6583 2.09644 53.1618 2.10426C51.7975 2.13162 50.4312 2.11403 49.0649 2.11207Z" fill="#F8F8F8"/>
<path id="Vector_4" d="M42.3566 48.8007C42.3566 46.848 42.3859 44.8953 42.341 42.9446C42.3253 42.278 42.5482 42.1392 43.1698 42.1432C47.1064 42.1705 51.0431 42.1686 54.9798 42.1451C55.574 42.1412 55.7578 42.2976 55.7538 42.9074C55.7265 46.8441 55.7245 50.7808 55.7538 54.7175C55.7578 55.3781 55.5427 55.5228 54.9192 55.5169C50.9825 55.4896 47.0458 55.4915 43.1092 55.5169C42.511 55.5208 42.3293 55.3625 42.3429 54.7546C42.3801 52.7706 42.3566 50.7867 42.3566 48.8007ZM53.8324 48.92C53.8324 47.5556 53.807 46.1893 53.8441 44.8269C53.8598 44.2522 53.721 44.0314 53.0975 44.0372C50.4 44.0685 47.7046 44.0626 45.0071 44.0411C44.4872 44.0372 44.2605 44.1389 44.2683 44.7292C44.2996 47.4579 44.2917 50.1866 44.2722 52.9172C44.2683 53.4039 44.3719 53.6014 44.9094 53.5955C47.6713 53.5701 50.4333 53.572 53.1952 53.5935C53.7249 53.5974 53.852 53.4078 53.8422 52.9133C53.8129 51.5842 53.8305 50.2511 53.8324 48.92Z" fill="#F8F8F8"/>
<path id="Vector_5" d="M7.11779 42.16C9.07049 42.16 11.0212 42.1796 12.9739 42.1483C13.5564 42.1385 13.7617 42.2812 13.7578 42.9028C13.7304 46.8707 13.7343 50.8387 13.7538 54.8086C13.7578 55.3696 13.576 55.5279 13.0287 55.5181C11.2069 55.4888 9.38519 55.4986 7.56345 55.5103C6.38479 55.5181 7.08065 54.6209 6.92037 54.1577C6.71318 53.5576 7.1862 53.5772 7.59864 53.5811C8.76947 53.5889 9.94227 53.5596 11.1112 53.5948C11.6428 53.6104 11.8481 53.4794 11.8422 52.8989C11.8129 50.1995 11.8187 47.5001 11.8383 44.7988C11.8422 44.2867 11.7562 44.0384 11.1581 44.0462C8.42545 44.0756 5.69284 44.0756 2.96023 44.0482C2.37384 44.0423 2.25851 44.2671 2.2722 44.7871C2.30347 45.9892 2.26046 47.1952 2.28783 48.3973C2.31324 49.5623 1.41801 48.927 0.950845 49.0854C0.372267 49.2808 0.34881 48.8567 0.350765 48.4208C0.362492 46.5658 0.378134 44.7128 0.34295 42.8578C0.333176 42.2851 0.524729 42.1424 1.06617 42.1502C3.08337 42.1756 5.10058 42.16 7.11779 42.16Z" fill="#F8F8F8"/>
<path id="Vector_6" d="M27.0511 42.2676C26.4686 42.0819 25.8822 42.1522 25.2938 42.2304C24.9869 40.9364 25.3153 39.6131 25.112 38.3152C27.0862 38.3504 27.0862 38.3504 27.0862 36.3664C27.0862 34.5369 27.0862 34.5369 25.2723 34.5369C24.9791 34.5369 24.68 34.4958 24.3947 34.5447C23.4232 34.7108 23.1652 34.2965 23.2336 33.37C23.2766 32.7836 23.4017 32.5842 24.0096 32.6037C25.4404 32.6467 26.8751 32.6409 28.3059 32.6057C28.8591 32.592 29.0526 32.7581 29.0233 33.3211C28.9803 34.1655 29.0487 35.0158 29.0018 35.8582C28.9588 36.601 29.4729 36.4446 29.8423 36.3997C30.2332 36.3528 30.9135 36.773 30.9056 35.8778C30.9037 35.7468 30.9271 35.6139 30.9037 35.4888C30.7375 34.619 31.1754 34.5291 31.9299 34.4919C32.8329 34.4489 32.8329 34.8887 32.8192 35.5396C32.7899 36.9059 32.7743 38.2742 32.8232 39.6405C32.8505 40.4224 32.3462 40.2797 31.926 40.2425C31.5214 40.2073 30.8509 40.5572 30.9056 39.6718C30.9154 39.5095 30.8822 39.3414 30.9115 39.1851C31.062 38.368 30.6046 38.3172 29.9576 38.3152C29.3087 38.3133 28.863 38.3661 29.0116 39.1811C29.1562 39.9826 28.9217 40.4419 27.9951 40.2582C27.2837 40.1155 26.9787 40.3833 27.0804 41.1397C27.1312 41.517 27.0471 41.9138 27.0256 42.2988C27.0237 42.2969 27.0511 42.2676 27.0511 42.2676Z" fill="#F8F8F8"/>
<path id="Vector_7" d="M40.3742 38.2982C40.1807 38.3099 39.9813 38.3588 39.7936 38.3275C38.7889 38.1555 38.3706 38.5425 38.5524 39.5629C38.6521 40.1258 38.3785 40.292 37.837 40.2626C36.8402 40.2079 35.5305 40.5793 34.9226 40.0789C34.2835 39.5531 34.7702 38.1966 34.7213 37.2036C34.692 36.5879 34.7643 35.9663 34.7037 35.3565C34.6314 34.643 34.9246 34.4827 35.5794 34.514C36.4864 34.559 37.0767 33.5699 36.6056 32.8193C36.3554 32.4225 35.8824 32.6199 35.5247 32.6434C34.8972 32.6825 34.6216 32.4929 34.7076 31.8361C34.7506 31.5175 34.7154 31.1891 34.7154 30.8647C34.7154 28.8631 34.7154 28.8631 36.6701 28.7536L36.6505 28.7263C36.6466 29.213 36.6564 29.7016 36.6349 30.1883C36.6193 30.548 36.7326 30.6829 37.1216 30.7161C38.5505 30.8451 38.5485 30.8647 38.5485 32.3443C38.5485 32.702 38.5896 33.0656 38.5407 33.4155C38.4234 34.2775 38.699 34.6801 39.6314 34.5453C39.952 34.4984 40.4719 34.3322 40.4367 35.0183C40.38 36.1168 40.5345 37.2232 40.3566 38.3197L40.3742 38.2982Z" fill="#F8F8F8"/>
<path id="Vector_8" d="M23.1823 28.7662C21.3801 28.8366 21.3801 28.8366 21.3801 27.0578C21.3801 26.8291 21.3801 26.6024 21.3801 26.3737C21.3801 25.0719 21.3801 25.0269 22.6565 25.0093C23.6142 24.9957 23.196 24.3252 23.2624 23.901C23.3367 23.4241 23.3171 22.9433 22.6017 23.0781C21.5599 23.2736 21.2921 22.8182 21.3605 21.8272C21.4485 20.5644 21.4035 19.29 21.3723 18.0214C21.3605 17.5191 21.4934 17.3314 22.0212 17.3568C22.8656 17.3999 23.7139 17.4018 24.5583 17.3568C25.1096 17.3275 25.2542 17.566 25.1741 18.039C25.0157 18.9831 25.3148 19.4601 26.3488 19.2568C26.9313 19.1414 27.1541 19.3662 27.1072 19.9878C27.0486 20.7638 27.0525 21.5515 27.1053 22.3295C27.1463 22.9413 26.9352 23.1915 26.341 23.0723C25.2972 22.8631 25.0333 23.3576 25.1643 24.292C25.219 24.6751 25.1721 25.0719 25.1741 25.4628C25.1741 26.79 25.176 26.8096 23.8371 26.8897C23.4266 26.9151 23.2644 27.0226 23.2605 27.4507C23.2565 27.8944 23.3934 28.3577 23.1588 28.7857C23.1608 28.7857 23.1823 28.7662 23.1823 28.7662Z" fill="#F8F8F8"/>
<path id="Vector_9" d="M49.9609 36.3603C48.0884 36.544 48.0884 36.544 48.0864 38.4889C48.0864 38.6844 48.0864 38.8779 48.0864 39.0734C48.0864 40.2129 47.6017 40.5569 46.4953 40.2579C46.1083 40.1543 46.1963 39.8904 46.1924 39.6559C46.1826 38.7782 46.1533 37.9006 46.1982 37.0268C46.2373 36.243 45.6998 36.4033 45.2874 36.4346C44.8847 36.4658 44.2338 36.1179 44.269 37.0073C44.3003 37.8497 44.2475 38.6961 44.2866 39.5386C44.31 40.0741 44.1654 40.3283 43.5888 40.2618C43.2682 40.2247 42.9398 40.2618 42.6153 40.254C41.9371 40.2403 41.1142 40.4475 40.6196 40.1367C40.1134 39.8181 40.5864 38.9189 40.3773 38.3013L40.3636 38.3267C42.3554 38.354 42.3554 38.354 42.3554 36.4013C42.3554 36.3681 42.3554 36.3368 42.3554 36.3036C42.3554 34.5386 42.3554 34.5386 44.14 34.5386C46.1924 34.5386 46.1924 34.5386 46.1924 32.4432C46.1924 30.7739 46.1924 30.7739 47.803 30.6722C47.8695 30.6859 47.9379 30.6977 48.0043 30.7113L47.9789 30.6859C48.235 31.2704 47.803 32.0307 48.192 32.4588C48.6005 32.9103 49.353 32.5428 49.9473 32.6367C49.9453 33.8818 49.9414 35.125 49.9394 36.3701L49.9609 36.3603Z" fill="#F8F8F8"/>
<path id="Vector_10" d="M38.6373 45.9773C40.4453 45.8991 40.4453 45.8991 40.4453 47.6916C40.4453 49.7948 40.4453 49.7948 38.3089 49.7948C37.398 49.7948 36.4852 49.7537 35.5802 49.8085C34.9078 49.8495 34.6634 49.656 34.7025 48.9543C34.7553 48.0024 33.9031 47.502 33.0372 47.9046C32.656 48.0825 32.7889 48.4285 32.828 48.6708C32.9824 49.6521 32.5563 49.9433 31.6474 49.8026C31.3307 49.7537 30.9985 49.7948 30.674 49.7948C28.7741 49.7948 28.7741 49.7948 29.1083 47.8362L29.0809 47.8616C29.2745 47.8655 29.4738 47.8479 29.6634 47.8792C30.6486 48.0454 31.104 47.6935 30.9144 46.6536C30.8167 46.1161 31.0454 45.907 31.6103 45.9402C32.3843 45.9851 33.1681 45.907 33.9402 45.9656C34.597 46.0145 34.8237 45.7682 34.7182 45.1505C34.5716 44.2846 34.8765 43.9464 35.7991 44.0266C36.7276 44.1048 37.6717 44.0129 38.6099 43.9953L38.5864 43.9718C38.5825 44.6501 38.4574 45.3323 38.6607 46.0008C38.1427 45.9851 37.6267 45.9734 37.1107 45.9558C36.8605 45.948 36.7061 45.9969 36.6337 46.2959C36.3464 47.5059 36.6826 47.9124 37.9062 47.8929C38.4164 47.8851 38.5962 47.7287 38.5669 47.2224C38.5434 46.81 38.6099 46.3917 38.6373 45.9773Z" fill="#F8F8F8"/>
<path id="Vector_11" d="M25.3125 42.2186C24.9978 43.753 25.2363 45.3031 25.1757 46.8453C25.1405 47.7464 24.2316 48.2917 23.4497 47.848C23.1897 47.7014 23.2621 47.4591 23.2601 47.2479C23.2503 46.3703 23.2425 45.4946 23.2621 44.617C23.2718 44.2006 23.1194 44.0345 22.6972 44.0521C22.146 44.0775 21.5928 44.0579 21.0416 44.0579C19.2902 44.056 19.2902 44.056 19.5384 45.8992C19.5365 45.9012 19.5639 45.8758 19.5639 45.8758C18.4087 46.0576 17.2437 45.911 16.0846 45.9598C15.4923 45.9852 15.5705 45.5337 15.6369 45.2249C15.7249 44.8242 15.2402 44.187 16.0513 44.054C16.5185 43.9778 17.1733 44.2808 17.4235 43.9094C17.7304 43.4559 17.5212 42.7874 17.5076 42.2108L17.4978 42.2362C17.9122 42.2128 18.3305 42.1502 18.7429 42.1756C19.2667 42.2069 19.5678 42.0583 19.4544 41.4876C19.2316 40.3676 19.7652 40.0783 20.7601 40.2483C20.979 40.2855 21.2097 40.2698 21.4325 40.2796L21.409 40.2542C21.3954 40.5767 21.411 40.9031 21.3641 41.2178C21.2468 41.9821 21.5439 42.2225 22.3121 42.1795C23.3109 42.1248 24.3137 42.1991 25.3125 42.2186Z" fill="#F8F8F8"/>
<path id="Vector_12" d="M7.12446 45.9531C7.83791 45.9531 8.55331 45.9825 9.26481 45.9434C9.7867 45.914 9.92939 46.1115 9.92157 46.6119C9.89421 48.1033 9.89421 49.5947 9.92157 51.0861C9.92939 51.565 9.76325 51.7252 9.30586 51.6861C8.98334 51.6588 8.65691 51.6705 8.33244 51.6822C7.3297 51.7213 6.31523 51.8542 5.94776 50.5173C5.86761 50.2241 5.45127 50.0286 5.20303 49.7764C4.91374 49.4813 4.26284 49.579 4.22961 49.0865C4.16315 48.1189 4.19443 47.1435 4.23547 46.174C4.24916 45.8554 4.58536 45.959 4.79255 45.9551C5.56855 45.9473 6.34651 45.9531 7.12446 45.9531Z" fill="#F8F8F8"/>
<path id="Vector_13" d="M36.6688 28.7543C36.5652 26.8955 36.5652 26.8955 38.381 26.8974C39.3818 26.8974 40.3846 26.8388 41.3795 26.913C42.2161 26.9756 42.4702 26.6609 42.3529 25.8849C42.3099 25.6015 42.3353 25.3063 42.3294 25.0151L42.3099 25.0464C42.5034 25.0288 42.695 25.0014 42.8885 24.9975C44.1961 24.9799 44.247 24.9818 44.2489 26.2739C44.2489 27.0401 44.718 26.8446 45.1422 26.9111C45.4999 26.9658 46.0218 26.6081 46.1801 27.2727C46.446 28.3908 46.1684 28.7622 45.0288 28.7876C44.6477 28.7954 44.2802 28.6957 44.2509 29.331C44.1844 30.707 44.1453 30.7051 42.7888 30.7051C42.3666 30.7051 41.9385 30.6543 41.5261 30.7149C40.6191 30.8497 40.2829 30.4862 40.4393 29.6085C40.5683 28.8853 40.2008 28.7543 39.5617 28.7758C38.5941 28.8091 37.6207 28.7485 36.6512 28.7289C36.6492 28.727 36.6688 28.7543 36.6688 28.7543Z" fill="#F8F8F8"/>
<path id="Vector_14" d="M4.22077 36.368C4.211 34.7085 4.22468 33.049 4.18168 31.3895C4.16604 30.8187 4.36346 30.6057 4.90295 30.7034C5.86073 30.8754 6.2888 30.5353 6.0992 29.5306C5.94282 28.694 6.51554 28.78 7.05307 28.7781C7.59646 28.7761 8.14572 28.7038 8.00303 29.5365C7.93853 29.9098 8.13595 30.3144 7.87598 30.6682C7.45768 30.6819 7.03548 30.7132 6.61523 30.6995C6.24971 30.6878 6.03274 30.8031 6.10897 31.1901C6.20279 31.6631 5.7845 32.3942 6.3924 32.5525C6.84783 32.6717 7.69811 33.0587 7.95612 32.2417C8.10468 31.7726 8.14963 31.1569 7.84471 30.6447C8.50342 30.8226 9.44752 30.3672 9.78177 30.8695C10.116 31.3699 9.90882 32.2437 9.91273 32.9552C9.92251 34.5384 9.91469 34.5384 8.33142 34.5384C8.07145 34.5384 7.81148 34.5384 7.55151 34.5384C6.22234 34.5384 6.20279 34.5365 6.11874 35.8598C6.09333 36.2703 5.97996 36.4618 5.55189 36.4247C5.10232 36.3856 4.64884 36.3719 4.19927 36.3465C4.20123 36.3465 4.22077 36.368 4.22077 36.368Z" fill="#F8F8F8"/>
<path id="Vector_15" d="M53.8574 30.7094C55.7339 30.68 55.7339 30.68 55.7339 32.5682C55.7339 33.5749 55.6889 34.5835 55.7495 35.5862C55.7906 36.2841 55.5462 36.5401 54.8778 36.4248C54.0627 36.2841 53.6874 36.546 53.8164 37.4432C53.8985 38.0159 53.7792 38.616 53.8437 39.1926C53.9356 40.0155 53.7147 40.3165 52.8058 40.297C51.9809 40.2794 51.8265 39.9901 51.8852 39.2825C51.9204 38.8466 52.0982 38.1957 51.2538 38.3443C50.167 38.5358 49.782 38.0921 49.9696 37.0405C50.0087 36.8216 49.9657 36.587 49.9598 36.3603L49.9344 36.3681C50.9997 36.3837 52.067 36.372 53.1303 36.4267C53.6913 36.4561 53.8379 36.2665 53.8301 35.7211C53.8125 34.0421 53.8496 32.3611 53.8672 30.682C53.8691 30.682 53.8574 30.7094 53.8574 30.7094Z" fill="#F8F8F8"/>
<path id="Vector_16" d="M32.6609 7.9193C34.7231 7.57333 34.7231 7.57333 34.7231 9.55339C34.7231 9.65113 34.7231 9.74691 34.7231 9.84464C34.7231 11.7504 34.7231 11.7504 36.6602 11.5647L36.6504 11.5374C36.6465 11.6664 36.6426 11.7954 36.6406 11.9244C36.6269 13.3748 36.6308 13.4002 35.2176 13.5233C34.7524 13.5644 34.7153 13.7813 34.7153 14.1429C34.7172 15.2375 34.6996 16.3341 34.6899 17.4287L34.7114 17.4013C32.7958 17.3212 32.7958 17.3212 32.7958 15.3568C32.7958 13.1851 32.8017 11.0135 32.7899 8.8419C32.788 8.52915 32.8994 8.19295 32.6824 7.90171L32.6609 7.9193Z" fill="#F8F8F8"/>
<path id="Vector_17" d="M4.1308 24.9904C5.2039 24.9904 6.27897 25.0393 7.34621 24.9748C8.09875 24.9279 8.03816 25.3813 7.98538 25.827C7.93456 26.2551 8.32744 26.9392 7.37162 26.9158C5.90953 26.8806 4.44745 26.9294 2.98537 26.8943C2.44002 26.8825 2.23869 27.033 2.26801 27.5999C2.31297 28.4423 2.25433 29.2887 2.2856 30.1331C2.31883 31.0342 1.65425 30.6628 1.26136 30.6922C0.864567 30.7215 0.317263 30.9208 0.338764 30.1175C0.379812 28.6241 0.370038 27.1288 0.338763 25.6335C0.327035 25.1097 0.512728 24.9631 1.01117 24.9787C2.04909 25.0119 3.09092 24.9904 4.1308 24.9904Z" fill="#F8F8F8"/>
<path id="Vector_18" d="M32.6928 5.83956C32.726 5.71837 32.7847 5.59718 32.7906 5.47404C32.8551 4.10578 32.8511 4.08232 34.1862 4.00218C34.6279 3.97677 34.7276 3.81844 34.7178 3.41969C34.6963 2.544 34.7335 1.66637 34.7022 0.790679C34.6846 0.319607 34.8508 0.174959 35.314 0.182778C36.8386 0.206233 38.3652 0.21796 39.8899 0.180821C40.6287 0.163229 40.4684 0.667531 40.4215 1.0311C40.3707 1.42398 40.7968 2.1042 39.9133 2.11202C39.0376 2.11984 38.16 2.14135 37.2843 2.10421C36.7702 2.08271 36.608 2.25276 36.6315 2.76293C36.6705 3.60539 36.6354 4.44979 36.6451 5.29421C36.649 5.648 36.6393 5.9412 36.1526 5.91384C34.9915 5.84933 33.8226 6.02525 32.6674 5.81415C32.6674 5.8161 32.6928 5.83956 32.6928 5.83956Z" fill="#F8F8F8"/>
<path id="Vector_19" d="M27.284 17.4169C27.4443 17.3993 27.6105 17.3465 27.7629 17.372C28.7813 17.5479 29.1879 17.1374 29.0041 16.1249C28.8536 15.2922 29.4498 15.4466 29.9111 15.4564C30.3861 15.4662 31.0077 15.2355 30.9275 16.1464C30.865 16.8559 30.9608 17.5772 30.9021 18.2867C30.8435 19.0158 31.0233 19.3559 31.8364 19.2699C32.5421 19.1957 33.2692 19.3149 33.9748 19.2387C34.8095 19.1487 34.7508 19.6433 34.7196 20.1808C34.6922 20.6577 34.9268 21.2285 34.0198 21.1835C32.5616 21.1132 31.0995 21.1425 29.6394 21.1757C29.1214 21.1874 28.9142 21.0213 29.0022 20.517C29.1761 19.524 28.8106 19.0725 27.7747 19.266C27.2234 19.3696 27.0065 19.1331 27.0788 18.578C27.1198 18.2574 27.1081 17.931 27.1198 17.6085C27.1765 17.544 27.2293 17.4795 27.284 17.4169Z" fill="#F8F8F8"/>
<path id="Vector_20" d="M17.5165 42.2104C15.6224 42.0892 15.6224 42.0892 15.6224 40.1287C15.6224 39.124 15.6498 38.1193 15.6107 37.1166C15.5892 36.5556 15.7866 36.3914 16.3319 36.4031C17.7236 36.4364 19.1212 36.4618 20.511 36.3953C21.285 36.3582 21.4825 36.6455 21.3945 37.3414C21.3554 37.658 21.4023 37.9884 21.4101 38.3109L21.4414 38.3011C20.3409 38.3109 19.2405 38.3402 18.1419 38.3226C17.6767 38.3148 17.5262 38.4751 17.5321 38.9364C17.5497 40.0349 17.5184 41.1354 17.5067 42.2358L17.5165 42.2104Z" fill="#F8F8F8"/>
<path id="Vector_21" d="M30.9922 26.8104C30.9707 26.9707 30.9335 27.1309 30.9277 27.2912C30.8808 28.6712 30.8847 28.7142 29.5516 28.7787C28.9066 28.81 28.9711 29.2009 29.0277 29.5645C29.1743 30.5047 28.8342 30.8057 27.8784 30.7353C26.6489 30.6435 25.4058 30.6708 24.1724 30.7295C23.455 30.7647 23.1481 30.5809 23.2478 29.8245C23.2928 29.4804 23.2068 29.1188 23.1794 28.765C23.1794 28.765 23.1579 28.7865 23.1579 28.7885C24.19 28.7885 25.2259 28.7416 26.256 28.8022C26.9499 28.8432 27.208 28.6126 27.0868 27.9421C26.9382 27.1153 27.2216 26.7967 28.1091 26.869C29.0688 26.9472 30.0422 26.8553 31.0117 26.8358C31.0117 26.8338 30.9922 26.8104 30.9922 26.8104Z" fill="#F8F8F8"/>
<path id="Vector_22" d="M13.7452 37.4096C13.7452 37.9608 13.7452 38.5121 13.7452 39.0633C13.7452 40.2458 13.3484 40.5293 12.1658 40.2634C11.6459 40.1462 11.7964 39.7572 11.8414 39.5031C12.0251 38.4573 11.5423 38.213 10.6119 38.3264C10.0685 38.3928 9.50554 38.2853 8.96215 38.3498C8.12556 38.4515 7.94768 38.1074 7.95941 37.3236C7.97114 36.6102 8.12947 36.3092 8.88005 36.401C9.35895 36.4597 9.85152 36.4128 10.3382 36.4128C11.6967 36.4128 11.7339 36.4147 11.812 35.0445C11.859 34.2177 12.4336 34.5578 12.7952 34.5461C13.1705 34.5343 13.7765 34.2626 13.7491 35.0777C13.7237 35.8537 13.7432 36.6317 13.7452 37.4096Z" fill="#F8F8F8"/>
<path id="Vector_23" d="M19.3826 49.8966C19.4705 49.8614 19.5585 49.8047 19.6484 49.7969C21.3802 49.6679 21.3802 49.6698 21.3802 51.4036C21.3802 52.5393 21.3666 53.673 21.3861 54.8086C21.3939 55.2621 21.3333 55.5299 20.7665 55.5182C19.2438 55.485 17.7172 55.4889 16.1945 55.5123C15.3091 55.526 15.6629 54.8829 15.6316 54.4822C15.5984 54.0717 15.44 53.5303 16.2219 53.5694C17.0956 53.6124 17.9733 53.5577 18.849 53.587C19.3083 53.6026 19.4823 53.458 19.4627 52.983C19.4197 51.949 19.4217 50.9111 19.406 49.8751C19.408 49.8731 19.3826 49.8966 19.3826 49.8966Z" fill="#F8F8F8"/>
<path id="Vector_24" d="M37.7243 51.674C38.3088 51.674 38.901 51.7307 39.4777 51.6604C40.324 51.5587 40.4843 51.9164 40.4804 52.6924C40.4765 53.4117 40.3064 53.7303 39.5637 53.5916C38.7525 53.441 38.4202 53.7792 38.5668 54.5845C38.7173 55.4035 38.3049 55.5189 37.5875 55.5325C36.835 55.5462 36.4929 55.3547 36.6395 54.5728C36.7959 53.7382 36.4167 53.443 35.6289 53.5935C34.7923 53.7538 34.72 53.314 34.6946 52.6181C34.6653 51.8304 34.9174 51.5919 35.6759 51.6604C36.3541 51.7229 37.0422 51.674 37.7243 51.674Z" fill="#F8F8F8"/>
<path id="Vector_25" d="M29.1118 47.8364C27.0946 47.985 27.0985 47.985 27.0926 45.9697C27.0887 44.7344 27.0731 43.501 27.0614 42.2676C27.0594 42.2695 27.034 42.2969 27.032 42.2989C28.1794 41.9881 29.3522 42.162 30.5055 42.1894C31.3127 42.2089 30.8162 42.9478 30.912 43.3485C30.9922 43.6906 30.9824 44.0248 30.4214 44.0737C29.018 44.1968 29.0141 44.2281 29.0238 45.6257C29.0297 46.3704 29.061 47.1171 29.0825 47.8618C29.0825 47.8599 29.1118 47.8364 29.1118 47.8364Z" fill="#F8F8F8"/>
<path id="Vector_26" d="M7.74706 5.87061C7.29163 5.87061 6.83424 5.87061 6.3788 5.87061C6.30452 5.81197 6.23025 5.75332 6.15597 5.69468C6.05237 3.93549 6.06019 2.17826 6.15402 0.419065C6.22829 0.358471 6.30452 0.295922 6.3788 0.235327C7.48514 0.239237 8.59343 0.241189 9.69976 0.245098C9.75449 0.303738 9.80922 0.360425 9.86395 0.419065C9.9265 1.04651 9.95778 1.672 9.82682 2.29554L9.84636 2.26817C9.37334 1.94565 8.84753 2.14894 8.34714 2.12939C7.89171 2.1118 7.99921 2.50468 7.99335 2.77638C7.97185 3.7498 7.96207 4.72322 7.94644 5.69468C7.88193 5.75137 7.81352 5.81001 7.74706 5.87061Z" fill="#F8F8F8"/>
<path id="Vector_27" d="M17.4762 30.7106C17.6385 30.7067 17.7988 30.6988 17.961 30.6988C19.3566 30.6949 19.4016 30.6949 19.4446 32.0495C19.468 32.761 19.902 32.6027 20.2929 32.6124C21.2741 32.632 21.7433 33.3728 21.366 34.2876C21.2448 34.5808 21.022 34.5358 20.807 34.5378C19.9332 34.5436 19.0595 34.5182 18.1877 34.5495C17.6854 34.5671 17.5056 34.4049 17.5173 33.8888C17.5427 32.8235 17.5095 31.7563 17.4997 30.6891L17.4762 30.7106Z" fill="#F8F8F8"/>
<path id="Vector_28" d="M27.1641 53.5044C26.0362 53.7019 24.8986 53.5357 23.7669 53.5944C23.3935 53.6139 23.245 53.4634 23.2528 53.0842C23.2684 52.1733 23.2626 51.2644 23.2567 50.3535C23.2528 49.3938 23.9799 49.8786 24.3943 49.8004C24.8087 49.7222 25.2993 49.7065 25.1723 50.3868C24.9709 51.4657 25.4088 51.8703 26.4721 51.6788C27.0194 51.5791 27.1347 51.886 27.1015 52.3649C27.0761 52.7499 27.123 53.1409 27.1387 53.5299C27.1367 53.5299 27.1641 53.5044 27.1641 53.5044Z" fill="#F8F8F8"/>
<path id="Vector_29" d="M51.8951 19.18C52.8998 19.2054 53.9065 19.2934 54.9053 19.2348C55.7595 19.1839 55.7438 19.6394 55.7419 20.2473C55.7399 20.8219 55.7556 21.2246 54.9541 21.1855C53.7814 21.1269 53.7794 21.1894 53.8517 23.0952L53.8693 23.0659C53.2086 23.0659 52.5499 23.0659 51.8892 23.0659L51.9147 23.0913C51.9147 21.7778 51.9127 20.4662 51.9127 19.1527L51.8951 19.18Z" fill="#F8F8F8"/>
<path id="Vector_30" d="M2.17296 17.4772C2.40556 17.311 2.67726 17.4029 2.92941 17.3658C3.88328 17.2211 4.40127 17.4967 4.20972 18.5796C4.16085 18.8611 4.07679 19.1992 4.61432 19.2696C6.20932 19.4807 6.20542 19.51 6.03536 21.1265L6.05882 21.1109C4.76875 21.1676 3.47672 21.2419 2.1886 21.0679L2.21596 21.0913C2.30588 19.8795 2.34692 18.6695 2.19641 17.4576C2.20032 17.4576 2.17296 17.4772 2.17296 17.4772Z" fill="#F8F8F8"/>
<path id="Vector_31" d="M11.9301 25.0637C11.7659 25.2983 11.8714 25.568 11.8324 25.8182C11.7131 26.6079 11.9164 27.0809 12.841 26.8933C13.6971 26.7193 13.744 27.2119 13.7675 27.8902C13.7929 28.6193 13.5896 28.8675 12.8488 28.8089C11.9477 28.7365 10.855 29.0845 10.1787 28.6857C9.45158 28.2576 9.96566 27.0946 9.92265 26.26C9.85815 24.9816 9.90506 24.9738 11.1951 24.9973C11.4492 25.0012 11.7033 25.0559 11.9575 25.0872L11.9301 25.0637Z" fill="#F8F8F8"/>
<path id="Vector_32" d="M4.20593 2.13917C4.20398 3.99805 4.20398 3.99805 2.32751 3.99805C2.06754 3.99805 1.80953 3.99805 1.54956 3.99805C0.398263 3.99805 0.0444712 3.52502 0.365035 2.42454C0.517498 1.9007 0.957295 2.08443 1.24463 2.12353C2.12423 2.24276 2.44088 1.89874 2.27864 1.05628C2.13008 0.280285 2.50733 0.147366 3.19537 0.174732C3.84041 0.200142 4.36817 0.178642 4.2157 1.07387C4.15511 1.41789 4.20593 1.78342 4.20593 2.13917Z" fill="#F8F8F8"/>
<path id="Vector_33" d="M36.6605 11.5624C36.6527 10.5245 36.6722 9.48267 36.6253 8.4467C36.5999 7.8994 36.8286 7.79189 37.3075 7.81535C37.9564 7.84858 38.6054 7.82317 39.2563 7.82317C40.4076 7.82317 40.7379 8.2786 40.4388 9.39862C40.3626 9.68791 40.1945 9.71137 39.9521 9.74264C38.4412 9.93224 38.4412 9.93811 38.6151 11.5624L38.6308 11.5292C37.9701 11.6914 37.3114 11.6895 36.6507 11.5351L36.6605 11.5624Z" fill="#F8F8F8"/>
<path id="Vector_34" d="M30.989 26.8103C30.989 26.8103 31.0086 26.8337 31.0086 26.8357C30.7838 25.7469 30.9715 24.6445 30.9089 23.5499C30.8854 23.1492 31.0985 23.069 31.4464 23.0729C32.3534 23.0866 33.2643 23.1081 34.1693 23.0671C34.9062 23.0339 34.7518 23.5538 34.7009 23.9174C34.6462 24.3044 35.0821 25.0647 34.2045 24.9748C33.0903 24.8595 32.5801 25.1879 32.7971 26.3587C32.8772 26.7946 32.631 26.9393 32.2303 26.9021C31.8198 26.863 31.3937 26.9959 30.989 26.8103Z" fill="#F8F8F8"/>
<path id="Vector_35" d="M48.0829 19.1527L48.0829 19.1781C48.0829 18.1148 48.1102 17.0495 48.075 15.9881C48.0535 15.3509 48.4797 15.3841 48.8335 15.4721C49.2224 15.5679 49.8538 15.044 49.9847 15.8806C50.061 16.3654 49.715 17.0202 50.2095 17.3016C50.579 17.5108 51.1536 17.3564 51.6345 17.3759C51.7576 17.3818 51.8788 17.4385 52 17.4717L51.9726 17.4482C51.9472 18.0249 51.9199 18.6035 51.8944 19.1801L51.914 19.1508C50.6376 19.3384 49.3593 19.3286 48.0829 19.1527Z" fill="#F8F8F8"/>
<path id="Vector_36" d="M15.5795 0.415648C15.6694 2.17484 15.6616 3.93208 15.5834 5.69127C15.5111 5.74991 15.4388 5.80659 15.3665 5.86523C14.911 5.86523 14.4576 5.86523 14.0021 5.86523C13.9318 5.80659 13.8614 5.74991 13.7891 5.69127C13.7089 3.93208 13.705 2.17484 13.791 0.415648C13.8614 0.355054 13.9298 0.294461 14.0002 0.233866C14.4556 0.233866 14.911 0.233868 15.3684 0.235823C15.4388 0.296417 15.5092 0.357008 15.5795 0.415648Z" fill="#F8F8F8"/>
<path id="Vector_37" d="M52.0029 17.4702C51.9735 17.4135 51.9227 17.3568 51.9169 17.2963C51.7448 15.4452 51.7448 15.4452 53.5764 15.4452C53.9653 15.4452 54.3602 15.4882 54.7413 15.4354C55.5447 15.326 55.7734 15.6211 55.7695 16.4342C55.7656 17.222 55.5271 17.4292 54.7765 17.3901C53.8441 17.3412 52.9079 17.4194 51.9735 17.4429C51.9774 17.4468 52.0029 17.4702 52.0029 17.4702Z" fill="#F8F8F8"/>
<path id="Vector_38" d="M2.29099 7.82097C2.28709 8.89408 2.24604 9.96718 2.29295 11.0383C2.32814 11.8397 1.78083 11.6541 1.38208 11.6208C0.985285 11.5895 0.312881 11.959 0.348065 11.0637C0.367611 10.6103 0.351978 10.1529 0.351978 9.6994C0.351978 7.77406 0.351975 7.77406 2.31641 7.84442C2.31445 7.84442 2.29099 7.82097 2.29099 7.82097Z" fill="#F8F8F8"/>
<path id="Vector_39" d="M29.0371 9.83658C29.4672 9.61766 29.9265 9.78185 30.3702 9.73103C30.7905 9.68216 30.9429 9.86786 30.9332 10.2881C30.9117 11.1931 30.9273 12.1001 30.9273 13.0051C30.9273 13.8925 30.249 13.4762 29.86 13.5172C29.5121 13.5543 28.9687 13.7635 29 13.0109C29.045 11.9457 29.0391 10.8804 29.0547 9.81508C29.0567 9.81508 29.0371 9.83658 29.0371 9.83658Z" fill="#F8F8F8"/>
<path id="Vector_40" d="M23.2733 2.19482L23.289 2.16941C22.6302 2.16941 21.9696 2.16941 21.3108 2.16941L21.2542 2.18505L21.2014 2.15964C21.4555 1.85081 21.3793 1.47551 21.346 1.13931C21.2757 0.427815 21.4653 0.161978 22.2647 0.146341C23.156 0.126795 23.4121 0.418042 23.2929 1.23704C23.2479 1.54979 23.2772 1.87426 23.2733 2.19482Z" fill="#F8F8F8"/>
<path id="Vector_41" d="M6.06089 21.1125L6.03743 21.1281C6.73133 21.1262 7.42719 21.1223 8.12109 21.1203C8.12109 21.1203 8.09959 21.1047 8.09959 21.1066C7.93149 21.5464 7.9999 22.0077 8.02336 22.4534C8.05073 22.9753 7.85331 23.1004 7.35291 23.1043C6.0863 23.1141 6.08825 23.1414 6.08043 21.8904C6.08043 21.6305 6.0687 21.3725 6.06089 21.1125Z" fill="#F8F8F8"/>
<path id="Vector_42" d="M38.5697 5.01946C38.4583 4.3451 38.5169 3.91899 39.422 3.95808C40.1745 3.99131 40.5166 4.08123 40.4775 4.95105C40.4442 5.66646 40.3406 5.98702 39.5275 5.9362C38.8571 5.89515 38.3528 5.87755 38.5697 5.01946Z" fill="#F8F8F8"/>
<path id="Vector_43" d="M31.9008 51.6989C32.753 51.476 32.7882 51.9549 32.8371 52.643C32.8996 53.5304 32.5204 53.5831 31.7835 53.6262C30.8805 53.6789 30.9235 53.2313 30.8785 52.5863C30.8199 51.7497 31.1639 51.5425 31.9008 51.6989Z" fill="#F8F8F8"/>
<path id="Vector_44" d="M17.5586 25.9619C17.3436 25.1039 17.7385 24.9748 18.4695 24.9573C19.2651 24.9397 19.4859 25.1508 19.4996 25.9639C19.5133 26.8494 19.1556 26.9256 18.4246 26.9373C17.6153 26.953 17.3339 26.6949 17.5586 25.9619Z" fill="#F8F8F8"/>
<path id="Vector_45" d="M2.27362 15.4534C2.2482 16.1277 2.40067 16.8118 2.17588 17.4784C2.17393 17.4803 2.19934 17.4608 2.19739 17.4608C1.78886 17.2868 1.36079 17.3924 0.944451 17.3865C0.563292 17.3806 0.371737 17.3064 0.334598 16.8548C0.225138 15.4788 0.236863 15.4377 1.6149 15.4455C1.84164 15.4475 2.06838 15.4651 2.29512 15.4749C2.29512 15.4768 2.27362 15.4534 2.27362 15.4534Z" fill="#F8F8F8"/>
<path id="Vector_46" d="M2.18531 21.071C2.38077 21.4365 2.22245 21.8353 2.2889 22.2125C2.41987 22.9709 2.0778 23.1468 1.37608 23.1019C0.471071 23.0452 -0.0547305 22.1812 0.375294 21.3622C0.490619 21.1433 0.678263 21.1629 0.867865 21.155C1.31744 21.1355 1.76701 21.1179 2.21658 21.0984C2.21267 21.0944 2.18531 21.071 2.18531 21.071Z" fill="#F8F8F8"/>
<path id="Vector_47" d="M38.6367 19.2806C38.6367 19.2806 38.6211 19.2474 38.623 19.2474C38.6015 19.566 38.5292 19.8924 38.5664 20.2032C38.6524 20.9362 38.4295 21.1982 37.634 21.1923C36.8521 21.1864 36.5003 21.0261 36.6371 20.1954C36.6938 19.8494 36.6606 19.4878 36.6664 19.134L36.6547 19.1809C37.3154 19.2142 37.976 19.2474 38.6367 19.2806Z" fill="#F8F8F8"/>
<path id="Vector_48" d="M11.8442 31.6633C11.6722 30.9166 11.9282 30.6547 12.7316 30.6664C13.4959 30.6781 13.7871 30.8189 13.7851 31.6633C13.7832 32.5018 13.4998 32.6523 12.7335 32.6621C11.9282 32.6758 11.6761 32.4099 11.8442 31.6633Z" fill="#F8F8F8"/>
<path id="Vector_49" d="M2.29813 15.4761C2.29031 15.0578 2.3079 14.6375 2.2649 14.2231C2.20821 13.6758 2.4115 13.5077 2.96467 13.5077C4.19024 13.5097 4.5323 13.9338 4.20979 15.1301C4.12964 15.4292 3.95763 15.4585 3.72112 15.4585C3.23832 15.4565 2.75552 15.4546 2.27272 15.4526C2.27663 15.4526 2.29813 15.4761 2.29813 15.4761Z" fill="#F8F8F8"/>
<path id="Vector_50" d="M27.143 53.5294C27.528 53.5451 27.917 53.5959 28.3001 53.5666C28.8279 53.5275 29.037 53.6819 29.039 54.2585C29.0449 55.5114 28.6754 55.8164 27.4225 55.5193C27.1156 55.4469 27.0746 55.2808 27.0902 55.0423C27.1234 54.5302 26.9983 54.0122 27.1684 53.506C27.1703 53.504 27.143 53.5294 27.143 53.5294Z" fill="#F8F8F8"/>
<path id="Vector_51" d="M25.1617 12.6168C25.3747 13.428 24.974 13.5512 24.245 13.5688C23.4338 13.5883 23.2461 13.344 23.2207 12.5465C23.1933 11.618 23.6273 11.6375 24.3192 11.5887C25.1969 11.5281 25.2985 11.9307 25.1617 12.6168Z" fill="#F8F8F8"/>
<path id="Vector_52" d="M19.4863 47.8963C19.455 48.5628 19.4218 49.2274 19.3886 49.8939C19.3866 49.8959 19.412 49.8705 19.4101 49.8724C18.7924 49.7278 18.1728 49.7942 17.5532 49.8373L17.5805 49.8627C17.5727 49.8314 17.5571 49.8001 17.5571 49.7688C17.5786 47.5444 17.0508 47.8357 19.5117 47.9197L19.4863 47.8963Z" fill="#F8F8F8"/>
<path id="Vector_53" d="M19.515 47.9214C19.4583 47.2393 19.3527 46.5532 19.5717 45.8769C19.5736 45.8749 19.5462 45.9003 19.5482 45.8984C19.902 45.912 20.2597 45.9746 20.6037 45.9335C21.2624 45.8554 21.3699 46.1427 21.4188 46.7486C21.4931 47.6869 21.196 48.0504 20.2597 47.8902C20.0095 47.8472 19.7456 47.8902 19.4896 47.8941C19.4896 47.896 19.515 47.9214 19.515 47.9214Z" fill="#F8F8F8"/>
<path id="Vector_54" d="M4.27392 38.2657C4.65899 38.2833 5.04601 38.3458 5.42522 38.3107C6.00575 38.2559 6.12107 38.5159 6.12107 39.0378C6.12498 40.2047 5.61091 40.5996 4.48111 40.2614C4.23874 40.1891 4.17424 40.0523 4.18987 39.8509C4.23287 39.3134 4.06282 38.7622 4.30129 38.2403C4.29933 38.2403 4.27392 38.2657 4.27392 38.2657Z" fill="#F8F8F8"/>
<path id="Vector_55" d="M2.25184 38.2761C2.26552 38.5342 2.29094 38.7902 2.29289 39.0482C2.30071 40.2015 1.71822 40.6569 0.664658 40.2347C0.0137577 39.9747 0.463329 39.3278 0.365596 38.8684C0.295228 38.54 0.412507 38.3074 0.822985 38.3192C1.30774 38.3328 1.7925 38.3094 2.27725 38.3016L2.25184 38.2761Z" fill="#F8F8F8"/>
<path id="Vector_56" d="M4.25825 7.82365C5.97248 7.80802 5.97248 7.80802 6.18162 9.79004C6.18162 9.79004 6.19726 9.77244 6.19922 9.77244C6.07217 9.76463 5.94511 9.7529 5.8161 9.75095C3.98655 9.71185 3.98654 9.71185 4.28365 7.80215L4.25825 7.82365Z" fill="#F8F8F8"/>
<path id="Vector_57" d="M25.1518 38.3242C24.4911 38.3242 23.8305 38.3223 23.1698 38.3223C23.1991 37.9743 23.2773 37.6225 23.246 37.2804C23.1893 36.6413 23.3653 36.3911 24.0768 36.3832C24.8997 36.3735 25.3629 36.522 25.1909 37.4622C25.1401 37.7417 25.1636 38.0369 25.1518 38.3242Z" fill="#F8F8F8"/>
<path id="Vector_58" d="M4.27344 7.80075C3.61276 7.80661 2.95014 7.81443 2.28946 7.8203L2.31487 7.84375C2.29923 7.52123 2.31291 7.1948 2.26209 6.87815C2.13113 6.05524 2.47711 5.86759 3.2707 5.86368C4.06624 5.85977 4.30667 6.11388 4.21284 6.8586C4.1718 7.17526 4.23239 7.50364 4.24803 7.82616C4.24998 7.8242 4.27344 7.80075 4.27344 7.80075Z" fill="#F8F8F8"/>
<path id="Vector_59" d="M2.26793 38.3012C2.32266 37.6366 2.15652 36.9603 2.37153 36.3035L2.34417 36.327C2.96575 36.4853 3.59319 36.4091 4.21868 36.37L4.19718 36.3485C4.2226 36.9896 4.24605 37.6307 4.27341 38.2699C4.27537 38.268 4.30078 38.2425 4.30078 38.2406C3.62056 38.4302 2.93252 38.354 2.24448 38.2777C2.24448 38.2758 2.26793 38.3012 2.26793 38.3012Z" fill="#F8F8F8"/>
<path id="Vector_60" d="M17.5317 5.88381C17.5375 4.12852 17.5375 4.12853 19.4883 3.92524L19.4648 3.91938C19.4726 5.99913 19.4726 5.99913 17.5043 5.87403L17.5317 5.88381Z" fill="#F8F8F8"/>
<path id="Vector_61" d="M17.5034 30.6889C17.2786 30.6967 17.0519 30.7123 16.8271 30.7143C15.6074 30.7201 15.3201 30.3761 15.6289 29.1721C15.8302 28.3882 16.4929 28.9082 16.9327 28.7948C17.2669 28.7088 17.5855 28.787 17.5523 29.2698C17.5171 29.7487 17.5034 30.2315 17.48 30.7123C17.48 30.7104 17.5034 30.6889 17.5034 30.6889Z" fill="#F8F8F8"/>
<path id="Vector_62" d="M11.9554 25.0845C11.7228 24.4082 11.7815 23.726 11.9261 23.0419C11.9281 23.0419 11.9007 23.0653 11.9027 23.0653C12.1939 23.0653 12.491 23.1044 12.7744 23.0614C13.5993 22.9363 13.7733 23.294 13.7811 24.0759C13.7889 24.8753 13.5231 25.106 12.7862 25.0141C12.5047 24.9789 12.2134 25.0434 11.9261 25.063C11.9281 25.063 11.9554 25.0845 11.9554 25.0845Z" fill="#F8F8F8"/>
<path id="Vector_63" d="M17.5514 49.839C17.5494 50.1634 17.5025 50.4977 17.5533 50.8143C17.6804 51.5943 17.311 51.6959 16.6268 51.7174C15.8196 51.7428 15.5772 51.5102 15.5928 50.6951C15.6065 49.9778 15.7668 49.6611 16.5154 49.7823C16.8633 49.839 17.2211 49.839 17.5768 49.8663C17.5788 49.8644 17.5514 49.839 17.5514 49.839Z" fill="#F8F8F8"/>
<path id="Vector_64" d="M32.6923 7.89795C32.5027 7.87449 32.3131 7.8354 32.1215 7.83149C30.8529 7.81195 30.8901 7.8139 30.8959 6.56683C30.8979 5.97652 31.1285 5.84947 31.6465 5.88856C31.9964 5.91593 32.3541 5.8612 32.7059 5.83969C32.704 5.83774 32.6786 5.81428 32.6766 5.81233C32.8975 6.5121 32.9034 7.21382 32.6708 7.91554C32.6688 7.91945 32.6923 7.89795 32.6923 7.89795Z" fill="#F8F8F8"/>
<path id="Vector_65" d="M31.9594 30.7018C32.6787 30.522 32.8273 30.8954 32.8429 31.642C32.8605 32.461 32.6064 32.6409 31.8108 32.6643C30.9391 32.6897 30.8707 32.3125 30.9019 31.6342C30.9449 30.7038 30.9176 30.7018 31.9594 30.7018Z" fill="#F8F8F8"/>
<path id="Vector_66" d="M36.6602 19.1333C36.2145 19.405 35.7258 19.2076 35.2606 19.2662C34.858 19.317 34.6801 19.1646 34.7075 18.7385C34.7368 18.2928 34.7133 17.8452 34.7133 17.3995L34.6918 17.4269C36.6269 17.2295 36.6269 17.2295 36.6426 19.0844C36.6426 19.1157 36.6445 19.1489 36.6465 19.1802L36.6602 19.1333Z" fill="#F8F8F8"/>
<path id="Vector_67" d="M23.1924 38.2987C23.4544 40.2436 23.4544 40.2436 21.4196 40.2534L21.443 40.2788C21.3433 39.6201 21.3472 38.9594 21.443 38.3007L21.4117 38.3105C22.006 38.3066 22.6002 38.3027 23.1924 38.2987Z" fill="#F8F8F8"/>
<path id="Vector_68" d="M9.83298 2.29333C10.3549 1.90435 11.0175 1.99427 11.4886 2.1565C12.2392 2.41647 11.903 3.26871 11.77 3.73C11.6039 4.31054 10.8807 3.91374 10.4096 3.99584C10.0539 4.05838 9.88185 3.8981 9.89749 3.50913C9.91312 3.09474 9.87207 2.67644 9.85253 2.26401C9.85253 2.26597 9.83298 2.29333 9.83298 2.29333Z" fill="#F8F8F8"/>
<path id="Vector_69" d="M2.375 36.3015C2.11503 36.4852 1.81792 36.4149 1.53254 36.4207C0.383205 36.4383 0.0606865 35.9868 0.353885 34.855C0.432071 34.5501 0.609945 34.5227 0.842549 34.5306C1.25694 34.5442 1.67133 34.5716 2.08571 34.5931C2.13849 34.6615 2.19322 34.728 2.246 34.7964C2.27727 35.3066 2.3105 35.8187 2.34373 36.3269C2.34764 36.3249 2.375 36.3015 2.375 36.3015Z" fill="#F8F8F8"/>
<path id="Vector_70" d="M21.2122 2.15989L21.2649 2.1853L21.3216 2.16966C21.5249 4.09305 21.5249 4.09305 19.6699 3.95231C19.6132 3.87999 19.5546 3.80962 19.4979 3.7373C19.4979 3.28186 19.4979 2.82643 19.4999 2.36904C19.5566 2.29867 19.6152 2.2283 19.6719 2.15598C20.186 2.07193 20.7 2.06998 21.2122 2.15989Z" fill="#F8F8F8"/>
<path id="Vector_71" d="M27.1367 9.86417C27.1211 10.1515 27.0644 10.4447 27.1015 10.7262C27.1934 11.4181 26.9901 11.7074 26.2278 11.6527C25.2798 11.5862 24.7872 10.8434 25.186 9.95603C25.272 9.76448 25.4146 9.73125 25.5632 9.74493C26.0949 9.78989 26.65 9.5827 27.1602 9.88958C27.1602 9.89153 27.1367 9.86417 27.1367 9.86417Z" fill="#F8F8F8"/>
<path id="Vector_72" d="M38.6074 43.9931C38.5898 43.735 38.5976 43.4731 38.5487 43.221C38.3708 42.2788 38.8263 42.0873 39.6648 42.142C40.2024 42.1772 40.4232 42.2261 40.4701 42.8691C40.5444 43.866 40.2258 44.2374 39.2524 44.0556C39.0315 44.0146 38.8067 43.9989 38.5839 43.9696L38.6074 43.9931Z" fill="#F8F8F8"/>
<path id="Vector_73" d="M2.23835 34.7969C2.18558 34.7285 2.13085 34.662 2.07807 34.5936C2.23835 34.574 2.27158 34.66 2.23835 34.7969Z" fill="#F8F8F8"/>
<path id="Vector_74" d="M27.2891 17.4173C27.2363 17.4799 27.1816 17.5444 27.1288 17.6069C27.0916 17.4682 27.1307 17.3919 27.2891 17.4173Z" fill="#F8F8F8"/>
<path id="Vector_75" d="M15.369 5.86523C15.4413 5.80659 15.5136 5.7499 15.5859 5.69126C15.5723 5.75186 15.5605 5.81441 15.5468 5.875L15.5742 5.875C15.5058 5.87109 15.4374 5.86914 15.369 5.86523Z" fill="#F8F8F8"/>
<path id="Vector_76" d="M13.7987 5.69126C13.869 5.7499 13.9394 5.80659 14.0117 5.86523C13.9433 5.86914 13.8749 5.87109 13.8065 5.875L13.8338 5.875C13.8143 5.83591 13.7889 5.80072 13.7752 5.75967C13.7693 5.74013 13.7889 5.71472 13.7987 5.69126Z" fill="#F8F8F8"/>
<path id="Vector_77" d="M7.7557 5.87009C7.82216 5.81145 7.89057 5.75085 7.95703 5.69221C7.92771 5.76453 7.90035 5.83686 7.86907 5.90918C7.86712 5.90918 7.89448 5.89159 7.89253 5.89159C7.84171 5.91895 7.79675 5.91309 7.7557 5.87009Z" fill="#F8F8F8"/>
<path id="Vector_78" d="M6.15608 5.69305C6.23035 5.75169 6.30463 5.81034 6.37891 5.86898C6.23426 5.90025 6.13653 5.87093 6.15608 5.69305Z" fill="#F8F8F8"/>
<path id="Vector_79" d="M19.4921 3.73616C19.5487 3.80848 19.6074 3.87885 19.6641 3.95117C19.5976 3.93944 19.5292 3.92967 19.4627 3.91795L19.4862 3.92381C19.4901 3.86126 19.4921 3.79871 19.4921 3.73616Z" fill="#F8F8F8"/>
<path id="Vector_80" d="M19.668 2.15853C19.6113 2.22889 19.5526 2.29926 19.496 2.37158C19.4647 2.22889 19.4999 2.13898 19.668 2.15853Z" fill="#F8F8F8"/>
<path id="Vector_81" d="M15.582 0.415527C15.5117 0.354933 15.4413 0.294342 15.3729 0.235702C15.5214 0.202473 15.6055 0.245472 15.582 0.415527Z" fill="#F8F8F8"/>
<path id="Vector_82" d="M14.0039 0.233746C13.9335 0.29434 13.8651 0.354933 13.7948 0.415527C13.7693 0.245472 13.8534 0.200516 14.0039 0.233746Z" fill="#F8F8F8"/>
<path id="Vector_83" d="M9.86932 0.41748C9.81459 0.358841 9.75986 0.302153 9.70513 0.243513C9.84977 0.214193 9.90255 0.27479 9.86932 0.41748Z" fill="#F8F8F8"/>
<path id="Vector_84" d="M6.37891 0.233742C6.30463 0.294337 6.2284 0.356886 6.15412 0.41748C6.13262 0.235697 6.23035 0.202468 6.37891 0.233742Z" fill="#F8F8F8"/>
<path id="Vector_85" d="M47.8026 30.6675C47.8768 30.6108 47.9492 30.5541 48.0234 30.4974C48.0176 30.5678 48.0098 30.6362 48.0039 30.7065C47.9355 30.6929 47.869 30.6811 47.8026 30.6675Z" fill="#F7F7F7"/>
<path id="Vector_86" d="M12.7492 13.522C11.9596 13.7174 11.8012 13.3597 11.7934 12.615C11.7856 11.8292 11.983 11.5927 12.8001 11.5829C13.6738 11.5732 13.752 11.9211 13.7794 12.6541C13.8106 13.5024 13.4549 13.6607 12.7492 13.522Z" fill="#F8F8F8"/>
<path id="Vector_87" d="M49.934 30.6825C50.5947 30.6825 51.2534 30.6825 51.9141 30.6825C51.8945 32.561 51.8945 32.561 49.934 32.6626C49.934 32.0039 49.934 31.3432 49.934 30.6825Z" fill="#F8F8F8"/>
<path id="Vector_88" d="M51.823 6.90763C51.823 7.81264 52.1787 9.02648 51.7311 9.54251C51.2014 10.1524 49.9563 9.73015 49.0259 9.72429C48.0994 9.72038 46.8582 10.1621 46.3304 9.52687C45.875 8.98152 46.1955 7.78527 46.1838 6.87636C46.174 6.19223 46.2131 5.50809 46.1721 4.82592C46.1349 4.22975 46.2581 3.94828 46.9559 3.97564C48.3535 4.03428 49.755 4.0206 51.1525 3.9776C51.7663 3.95805 51.9461 4.16915 51.909 4.7575C51.864 5.47095 51.8973 6.18832 51.8973 6.90372C51.8738 6.90763 51.8484 6.90763 51.823 6.90763Z" fill="#F8F8F8"/>
<path id="Vector_89" d="M48.9757 51.6773C48.2603 51.6773 47.5449 51.644 46.8314 51.689C46.2978 51.7222 46.1786 51.5131 46.1883 51.0205C46.2177 49.5584 46.2255 48.0963 46.1844 46.6342C46.1688 46.0439 46.4014 45.9384 46.9233 45.9501C48.3521 45.9794 49.783 45.9736 51.2118 45.954C51.6751 45.9481 51.9272 46.0185 51.9135 46.5795C51.8783 48.0729 51.8783 49.5682 51.9135 51.0615C51.9272 51.6245 51.6751 51.7007 51.2138 51.6851C50.471 51.6597 49.7224 51.6773 48.9757 51.6773Z" fill="#F8F8F8"/>
</g>
<defs>
<clipPath id="clip0_1095_42663">
<rect width="55.5416" height="55.479" fill="white" transform="translate(55.7734 55.623) rotate(180)"/>
</clipPath>
</defs>
</svg>
