<svg width="20" height="20" viewBox="0 0 20 20" fill="none" xmlns="http://www.w3.org/2000/svg">
<g clip-path="url(#clip0_2834_6171)">
<path d="M18.6913 7.79172L17.1329 6.22506C16.923 6.00451 16.6483 5.85654 16.3486 5.8026C16.049 5.74866 15.7399 5.79155 15.4663 5.92506C15.2705 6.02166 15.0493 6.05432 14.834 6.01844C14.6187 5.98255 14.4201 5.87992 14.2663 5.72506C14.1114 5.57121 14.0088 5.37261 13.9729 5.15729C13.937 4.94196 13.9697 4.72081 14.0663 4.52506C14.1998 4.2514 14.2426 3.94235 14.1887 3.64268C14.1348 3.34302 13.9868 3.06831 13.7663 2.85839L12.2079 1.30839C11.9305 1.04398 11.562 0.896484 11.1788 0.896484C10.7955 0.896484 10.427 1.04398 10.1496 1.30839L1.30792 10.1501C1.03567 10.4234 0.882813 10.7934 0.882812 11.1792C0.882813 11.565 1.03567 11.9351 1.30792 12.2084L2.86626 13.7751C3.07618 13.9956 3.35088 14.1436 3.65055 14.1975C3.95021 14.2514 4.25927 14.2086 4.53292 14.0751C4.72886 13.9815 4.94898 13.9509 5.16299 13.9877C5.377 14.0244 5.57436 14.1265 5.7279 14.2801C5.88143 14.4336 5.9836 14.631 6.02031 14.845C6.05703 15.059 6.0265 15.2791 5.93292 15.4751C5.79942 15.7487 5.75653 16.0578 5.81047 16.3574C5.86441 16.6571 6.01238 16.9318 6.23292 17.1417L7.79959 18.7001C8.07291 18.9723 8.44298 19.1252 8.82876 19.1252C9.21454 19.1252 9.5846 18.9723 9.85792 18.7001L18.6913 9.85006C18.9635 9.57673 19.1164 9.20667 19.1164 8.82089C19.1164 8.43511 18.9635 8.06505 18.6913 7.79172ZM8.08292 10.4417C8.02551 10.5005 7.95677 10.5471 7.88086 10.5786C7.80495 10.6101 7.72344 10.6259 7.64126 10.6251C7.55914 10.6254 7.47777 10.6094 7.40193 10.5779C7.32608 10.5465 7.25729 10.5001 7.19959 10.4417C7.08255 10.3245 7.01681 10.1657 7.01681 10.0001C7.01681 9.83443 7.08255 9.67558 7.19959 9.55839L9.55792 7.20006C9.6764 7.08966 9.83311 7.02955 9.99502 7.03241C10.1569 7.03527 10.3114 7.10086 10.4259 7.21537C10.5405 7.32988 10.606 7.48437 10.6089 7.64629C10.6118 7.8082 10.5517 7.96491 10.4413 8.08339L8.08292 10.4417ZM12.7996 10.4417L10.4413 12.8001C10.3241 12.9171 10.1652 12.9828 9.99959 12.9828C9.83396 12.9828 9.67511 12.9171 9.55792 12.8001C9.44088 12.6829 9.37514 12.524 9.37514 12.3584C9.37514 12.1928 9.44088 12.0339 9.55792 11.9167L11.9163 9.55839C12.0347 9.44799 12.1914 9.38789 12.3534 9.39074C12.5153 9.3936 12.6698 9.45919 12.7843 9.5737C12.8988 9.68822 12.9644 9.8427 12.9672 10.0046C12.9701 10.1665 12.91 10.3232 12.7996 10.4417Z" fill="white"/>
</g>
<defs>
<clipPath id="clip0_2834_6171">
<rect width="20" height="20" fill="white"/>
</clipPath>
</defs>
</svg>
