<svg width="112" height="42" viewBox="0 0 112 42" fill="none" xmlns="http://www.w3.org/2000/svg">
<path d="M28.0437 7.52168C28.2832 7.39884 28.5227 7.27478 28.7635 7.15071C28.7635 6.92469 28.7635 6.69868 28.7635 6.47266C19.4549 11.3345 10.1476 16.0343 0.840257 8.46507C0.831659 8.4577 0.821831 8.45033 0.813233 8.44419C0.813233 8.44419 0.813233 8.44418 0.813233 8.44296C0.708822 8.3582 0.604411 8.27098 0.5 8.18254C0.5 8.34592 0.5 8.50929 0.5 8.67266C0.604411 8.7611 0.708822 8.84954 0.813233 8.9343C0.813233 8.9343 0.813233 8.9343 0.813233 8.93307C0.821831 8.94044 0.831659 8.94904 0.840257 8.95641C1.05154 9.12961 1.22228 9.38757 1.22228 9.54112C1.22228 9.76714 1.22228 9.99438 1.22228 10.2216C1.22228 10.358 1.06996 10.3482 0.882022 10.1909C0.754272 10.0853 0.626522 9.97596 0.5 9.8654C0.5 12.0077 0.5 14.1499 0.5 16.2922C0.62775 16.4138 0.7555 16.5342 0.882022 16.6509C1.06996 16.8229 1.22228 17.0685 1.22228 17.2049C1.22228 17.442 1.22228 17.679 1.22228 17.9161C1.22228 18.0525 1.06996 18.0267 0.882022 17.851C0.754272 17.7319 0.626522 17.6103 0.5 17.4862C0.5 17.6496 0.5 17.8129 0.5 17.9763C9.92034 27.1952 19.3419 23.6931 28.7623 20.0252C28.7623 19.7992 28.7623 19.5732 28.7623 19.3472C28.5227 19.4418 28.282 19.5376 28.0424 19.6309C27.8545 19.7046 27.7022 19.615 27.7022 19.4295C27.7022 19.1076 27.7022 18.787 27.7022 18.4652C27.7022 18.2797 27.8545 18.0672 28.0424 17.991C28.282 17.8928 28.5215 17.7933 28.7623 17.695C28.7623 14.731 28.7623 11.7657 28.7623 8.80164C28.5227 8.92202 28.282 9.04117 28.0424 9.16032C27.8545 9.25368 27.7022 9.17875 27.7022 8.99449C27.7022 8.67266 27.7022 8.35206 27.7022 8.03022C27.7034 7.84597 27.8557 7.61872 28.0437 7.52168ZM21.2422 11.0704C21.2422 10.8972 21.3945 10.6946 21.5825 10.6147C22.22 10.3469 22.8575 10.0632 23.495 9.76836C23.683 9.68115 23.8353 9.75485 23.8353 9.93174C23.8353 10.2413 23.8353 10.5496 23.8353 10.8592C23.8353 11.0373 23.683 11.251 23.495 11.3345C22.8575 11.6195 22.22 11.8922 21.5825 12.1502C21.3945 12.2263 21.2422 12.1453 21.2422 11.9721C21.2422 11.6723 21.2422 11.3714 21.2422 11.0704ZM25.6447 11.3149C25.8326 11.2264 25.9849 11.3026 25.9849 11.4844C25.9849 13.494 25.9849 15.5036 25.9849 17.5144C25.9849 17.6962 25.8326 17.9063 25.6447 17.9812C22.4448 19.2673 19.2461 20.3741 16.0462 20.8114C15.8583 20.8372 15.7059 20.7229 15.7059 20.5596C15.7059 18.7576 15.7059 16.9568 15.7059 15.1548C15.7059 14.9914 15.8583 14.8317 16.0462 14.7924C19.2461 14.1401 22.446 12.8172 25.6447 11.3149ZM18.0116 12.2349C18.0116 12.0679 18.1639 11.8848 18.3518 11.8246C18.9894 11.6195 19.6269 11.3923 20.2644 11.1466C20.4524 11.0741 20.6047 11.154 20.6047 11.3259C20.6047 11.6244 20.6047 11.9229 20.6047 12.2214C20.6047 12.3934 20.4524 12.5911 20.2644 12.6599C19.6269 12.8946 18.9894 13.112 18.3518 13.3061C18.1639 13.3638 18.0116 13.2717 18.0116 13.1046C18.0116 12.8159 18.0116 12.5248 18.0116 12.2349ZM14.7822 13.0113C14.7822 12.8503 14.9345 12.6931 15.1225 12.6575C15.76 12.5371 16.3975 12.3885 17.035 12.2153C17.223 12.1637 17.3753 12.2558 17.3753 12.4216C17.3753 12.7103 17.3753 12.999 17.3753 13.2864C17.3753 13.4522 17.223 13.6291 17.035 13.677C16.3975 13.8404 15.76 13.978 15.1225 14.0873C14.9345 14.1192 14.7822 14.0124 14.7822 13.8502C14.7822 13.5714 14.7822 13.2913 14.7822 13.0113ZM8.32101 12.9523C8.32101 12.8024 8.47333 12.714 8.66127 12.7484C9.29879 12.8651 9.93631 12.9412 10.5738 12.9781C10.7618 12.9891 10.9141 13.1193 10.9141 13.2741C10.9141 13.5419 10.9141 13.8097 10.9141 14.0775C10.9141 14.2322 10.7618 14.3489 10.5738 14.3354C9.93631 14.2875 9.29879 14.2015 8.66127 14.075C8.47333 14.0369 8.32101 13.8822 8.32101 13.7323C8.32101 13.4719 8.32101 13.2115 8.32101 12.9523ZM12.5712 15.2137C12.7591 15.2076 12.9114 15.328 12.9114 15.4852C12.9114 17.2295 12.9114 18.975 12.9114 20.7193C12.9114 20.8777 12.7591 21.003 12.5712 20.9969C9.37249 20.8839 6.1726 19.922 2.9727 17.6189C2.78476 17.4837 2.63244 17.2565 2.63244 17.1177C2.63244 15.581 2.63244 14.0455 2.63244 12.5089C2.63244 12.37 2.78476 12.3614 2.9727 12.4843C6.1726 14.57 9.37249 15.3169 12.5712 15.2137ZM5.0904 11.8922C5.0904 11.7485 5.24272 11.7006 5.43066 11.7804C6.06818 12.0494 6.70571 12.2693 7.34323 12.4462C7.53117 12.4978 7.68349 12.6563 7.68349 12.8049C7.68349 13.0628 7.68349 13.3196 7.68349 13.5775C7.68349 13.7262 7.53117 13.806 7.34323 13.7507C6.70571 13.564 6.06818 13.3331 5.43066 13.0542C5.24272 12.9719 5.0904 12.784 5.0904 12.6403C5.0904 12.3909 5.0904 12.1416 5.0904 11.8922ZM1.8598 9.99438C1.8598 9.85681 2.01212 9.85681 2.20006 9.98701C2.83758 10.4292 3.4751 10.8174 4.11262 11.1552C4.30057 11.2547 4.45288 11.4451 4.45288 11.5876C4.45288 11.8345 4.45288 12.0826 4.45288 12.3295C4.45288 12.472 4.30057 12.5101 4.11262 12.4069C3.4751 12.0593 2.83758 11.6613 2.20006 11.208C2.01212 11.0741 1.8598 10.8493 1.8598 10.7117C1.8598 10.4722 1.8598 10.2339 1.8598 9.99438ZM4.45288 20.3581C4.45288 20.5006 4.30057 20.5227 4.11262 20.3999C3.4751 19.9859 2.83758 19.5216 2.20006 19.0032C2.01212 18.8509 1.8598 18.6089 1.8598 18.4713C1.8598 18.2318 1.8598 17.9935 1.8598 17.754C1.8598 17.6164 2.01212 17.6311 2.20006 17.781C2.83758 18.2895 3.4751 18.744 4.11262 19.1469C4.30057 19.2661 4.45288 19.4725 4.45288 19.615C4.45288 19.8643 4.45288 20.1112 4.45288 20.3581ZM7.68349 21.9402C7.68349 22.0889 7.53117 22.1528 7.34323 22.0791C6.70571 21.826 6.06818 21.53 5.43066 21.1848C5.24272 21.0828 5.0904 20.8802 5.0904 20.7364C5.0904 20.4871 5.0904 20.2377 5.0904 19.9884C5.0904 19.8447 5.24272 19.8127 5.43066 19.911C6.06818 20.2463 6.70571 20.5325 7.34323 20.7745C7.53117 20.8458 7.68349 21.0202 7.68349 21.1688C7.68349 21.4256 7.68349 21.6835 7.68349 21.9402ZM10.9141 22.7755C10.9141 22.9303 10.7618 23.031 10.5738 22.9979C9.93631 22.8836 9.29879 22.7325 8.66127 22.5385C8.47333 22.482 8.32101 22.31 8.32101 22.1601C8.32101 21.9009 8.32101 21.6405 8.32101 21.3813C8.32101 21.2315 8.47333 21.1578 8.66127 21.2118C9.29879 21.3949 9.93631 21.5361 10.5738 21.6393C10.7618 21.67 10.9141 21.8162 10.9141 21.971C10.9141 22.24 10.9141 22.5078 10.9141 22.7755ZM14.1435 22.9758C14.1435 23.1355 13.9911 23.2693 13.8032 23.2706C13.1657 23.273 12.5282 23.2448 11.8906 23.1809C11.7027 23.1625 11.5504 23.0175 11.5504 22.8615C11.5504 22.5913 11.5504 22.3223 11.5504 22.052C11.5504 21.896 11.7027 21.7867 11.8906 21.8027C12.5282 21.8555 13.1657 21.8739 13.8032 21.8616C13.9911 21.8579 14.1435 21.982 14.1435 22.1417C14.1435 22.4193 14.1435 22.6982 14.1435 22.9758ZM14.1435 13.9436C14.1435 14.1045 13.9911 14.2531 13.8032 14.2728C13.1657 14.3416 12.5282 14.3784 11.8906 14.3809C11.7027 14.3809 11.5504 14.2519 11.5504 14.0971C11.5504 13.8269 11.5504 13.5579 11.5504 13.2876C11.5504 13.1329 11.7027 13.0063 11.8906 13.0027C12.5282 12.9904 13.1657 12.9425 13.8032 12.8638C13.9911 12.8405 14.1435 12.9486 14.1435 13.1095C14.1435 13.3871 14.1435 13.6647 14.1435 13.9436ZM17.3741 22.6539C17.3741 22.8198 17.2218 22.9807 17.0338 23.0089C16.3963 23.106 15.7588 23.1784 15.1212 23.2214C14.9333 23.2337 14.781 23.1109 14.781 22.95C14.781 22.6699 14.781 22.3898 14.781 22.1098C14.781 21.9488 14.9333 21.8076 15.1212 21.7916C15.7588 21.7376 16.3963 21.6553 17.0338 21.5484C17.2218 21.5165 17.3741 21.6233 17.3741 21.7904C17.3741 22.0778 17.3741 22.3653 17.3741 22.6539ZM20.6047 21.9231C20.6047 22.095 20.4524 22.2768 20.2644 22.326C19.6269 22.4942 18.9894 22.6453 18.3518 22.7743C18.1639 22.8124 18.0116 22.7055 18.0116 22.5385C18.0116 22.2486 18.0116 21.9574 18.0116 21.6675C18.0116 21.5005 18.1639 21.3334 18.3518 21.2929C18.9894 21.1541 19.6269 20.992 20.2644 20.8138C20.4524 20.761 20.6047 20.8556 20.6047 21.0288C20.6047 21.3261 20.6047 21.6246 20.6047 21.9231ZM23.8353 20.8949C23.8353 21.073 23.683 21.2708 23.495 21.3347C22.8575 21.5533 22.22 21.7609 21.5825 21.9525C21.3945 22.009 21.2422 21.9132 21.2422 21.74C21.2422 21.4391 21.2422 21.1381 21.2422 20.8384C21.2422 20.6652 21.3945 20.4785 21.5825 20.4183C22.22 20.2156 22.8575 19.9982 23.495 19.7697C23.683 19.7022 23.8353 19.7906 23.8353 19.9687C23.8353 20.277 23.8353 20.5866 23.8353 20.8949ZM27.0659 19.6825C27.0659 19.8668 26.9136 20.0756 26.7256 20.1481C26.0881 20.395 25.4506 20.6357 24.8131 20.8691C24.6251 20.9379 24.4728 20.847 24.4728 20.6677C24.4728 20.3569 24.4728 20.0461 24.4728 19.7341C24.4728 19.5548 24.6251 19.3521 24.8131 19.2808C25.4506 19.0376 26.0881 18.7858 26.7256 18.5291C26.9136 18.4541 27.0659 18.5414 27.0659 18.7244C27.0659 19.0438 27.0659 19.3631 27.0659 19.6825ZM27.0659 9.31264C27.0659 9.49689 26.9136 9.72169 26.7256 9.81259C26.0881 10.1246 25.4506 10.4329 24.8131 10.7314C24.6251 10.8198 24.4728 10.7449 24.4728 10.5656C24.4728 10.2548 24.4728 9.94402 24.4728 9.63202C24.4728 9.45267 24.6251 9.23525 24.8131 9.14312C25.4506 8.83358 26.0881 8.51666 26.7256 8.1936C26.9136 8.09901 27.0659 8.17026 27.0659 8.35451C27.0659 8.67389 27.0659 8.99326 27.0659 9.31264Z" fill="white"/>
<path d="M20.8463 13.7194C19.1499 14.3655 17.7754 15.9452 17.7754 17.4438C17.7754 18.9411 19.1499 19.8894 20.8463 19.3637C22.5427 18.8441 23.9172 16.9942 23.9172 15.3789C23.9185 13.7562 22.5427 13.0794 20.8463 13.7194ZM22.7343 16.0336C21.8351 16.8677 20.9347 17.6624 20.0356 18.4056C19.887 18.5284 19.7015 18.4842 19.7015 18.3294C19.7015 17.386 19.7015 16.4439 19.7015 15.5005C19.7015 15.3445 19.887 15.1873 20.0356 15.2155C20.9347 15.3875 21.8351 15.5361 22.7343 15.6725C22.8829 15.6933 22.8829 15.896 22.7343 16.0336Z" fill="white"/>
<path d="M7.16076 14.7885C5.46439 14.2652 4.08984 14.4887 4.08984 15.765C4.08984 17.0327 5.46439 18.9686 7.16076 19.6123C8.85713 20.2682 10.2317 19.3297 10.2317 17.9441C10.2329 16.5438 8.85713 15.3228 7.16076 14.7885ZM9.04876 17.8876C8.1496 18.1075 7.2492 18.234 6.35004 18.2525C6.20141 18.2561 6.01592 18.0891 6.01592 17.9564C6.01592 17.1518 6.01592 16.3485 6.01592 15.5439C6.01592 15.4112 6.20141 15.4051 6.35004 15.5304C7.2492 16.2871 8.1496 16.9664 9.04876 17.5769C9.19739 17.6776 9.19739 17.8508 9.04876 17.8876Z" fill="white"/>
<path d="M57.0495 4.65612C57.289 4.84406 57.5298 5.0406 57.7693 5.24451C57.7693 4.95461 57.7693 4.66472 57.7693 4.3736C48.462 -3.49655 39.1547 1.05086 29.8461 5.9066C29.8375 5.91151 29.8277 5.91643 29.8191 5.92134V5.92011C29.7147 5.97416 29.6103 6.02944 29.5059 6.08348C29.5059 6.31073 29.5059 6.53798 29.5059 6.76646C29.6103 6.71241 29.7147 6.65836 29.8191 6.60554V6.60431C29.8277 6.60063 29.8375 6.59571 29.8461 6.59203C30.0574 6.4827 30.2281 6.56869 30.2281 6.78243C30.2281 7.09689 30.2281 7.41258 30.2281 7.72704C30.2281 7.91744 30.0758 8.14714 29.8879 8.2405C29.7601 8.30437 29.6324 8.36825 29.5059 8.43089C29.5059 11.4171 29.5059 14.4032 29.5059 17.3894C29.6336 17.3366 29.7614 17.2837 29.8879 17.2321C30.0758 17.1548 30.2281 17.2469 30.2281 17.4361C30.2281 17.7653 30.2281 18.0945 30.2281 18.4237C30.2281 18.6141 30.0758 18.8278 29.8879 18.9015C29.7601 18.9519 29.6324 19.0022 29.5059 19.0526C29.5059 19.2798 29.5059 19.5071 29.5059 19.7356C38.9262 16.0677 48.3478 12.5656 57.7681 21.7845C57.7681 21.4946 57.7681 21.2047 57.7681 20.9136C57.5286 20.6802 57.2878 20.4554 57.0483 20.2392C56.8603 20.0697 56.708 19.7442 56.708 19.5059C56.708 19.0919 56.708 18.6779 56.708 18.2652C56.708 18.0269 56.8603 17.963 57.0483 18.1301C57.2878 18.3426 57.5286 18.5637 57.7681 18.7934C57.7681 14.9855 57.7681 11.1763 57.7681 7.36836C57.5286 7.15954 57.2878 6.96054 57.0483 6.76769C56.8603 6.6166 56.708 6.30828 56.708 6.06875C56.708 5.65479 56.708 5.24082 56.708 4.82809C56.7093 4.58856 56.8616 4.50872 57.0495 4.65612ZM50.2493 1.71173C50.2493 1.48571 50.4016 1.33584 50.5895 1.38252C51.2271 1.54344 51.8646 1.74735 52.5021 1.99916C52.69 2.07286 52.8424 2.32591 52.8424 2.55684C52.8424 2.95852 52.8424 3.36019 52.8424 3.76064C52.8424 3.9928 52.69 4.11195 52.5021 4.03457C51.8646 3.7717 51.2271 3.55796 50.5895 3.38599C50.4016 3.33563 50.2493 3.11452 50.2493 2.8885C50.2493 2.49788 50.2493 2.1048 50.2493 1.71173ZM54.6517 6.37092C54.8397 6.4827 54.992 6.76891 54.992 7.00476C54.992 9.60276 54.992 12.2008 54.992 14.7988C54.992 15.0346 54.8397 15.1181 54.6517 14.9941C51.4531 12.869 48.2532 12.0521 45.0533 12.0509C44.8653 12.0509 44.713 11.8777 44.713 11.6615C44.713 9.27233 44.713 6.88192 44.713 4.49275C44.713 4.27656 44.8653 4.08739 45.0533 4.0751C48.2532 3.86137 51.4518 4.46327 54.6517 6.37092ZM47.0187 1.31373C47.0187 1.09386 47.171 0.916971 47.3589 0.924341C47.9965 0.948909 48.634 1.01033 49.2715 1.11228C49.4594 1.14176 49.6118 1.35304 49.6118 1.57906C49.6118 1.96968 49.6118 2.36153 49.6118 2.75215C49.6118 2.97817 49.4594 3.12926 49.2715 3.09609C48.634 2.98309 47.9965 2.91184 47.3589 2.87622C47.171 2.86516 47.0187 2.68213 47.0187 2.46226C47.0187 2.07901 47.0187 1.69576 47.0187 1.31373ZM43.7881 1.53852C43.7881 1.32356 43.9404 1.12579 44.1283 1.09877C44.7659 1.0091 45.4034 0.950137 46.0409 0.924341C46.2288 0.916971 46.3812 1.09263 46.3812 1.31128C46.3812 1.69207 46.3812 2.07286 46.3812 2.45366C46.3812 2.67354 46.2288 2.85165 46.0409 2.85533C45.4034 2.87008 44.7659 2.91921 44.1283 2.99783C43.9404 3.02116 43.7881 2.86885 43.7881 2.65388C43.7881 2.28292 43.7881 1.91072 43.7881 1.53852ZM37.3281 3.40564C37.3281 3.20296 37.4804 2.97694 37.6684 2.90201C38.3059 2.6502 38.9434 2.41681 39.5809 2.20307C39.7689 2.14043 39.9212 2.25958 39.9212 2.46717C39.9212 2.82708 39.9212 3.18822 39.9212 3.54813C39.9212 3.75573 39.7689 3.97069 39.5809 4.02965C38.9434 4.23233 38.3059 4.4559 37.6684 4.69666C37.4804 4.7679 37.3281 4.66226 37.3281 4.45958C37.3281 4.1095 37.3281 3.75696 37.3281 3.40564ZM41.5782 4.60576C41.7662 4.56154 41.9185 4.70034 41.9185 4.91162C41.9185 7.24429 41.9185 9.57819 41.9185 11.9109C41.9185 12.1221 41.7662 12.3162 41.5782 12.3469C38.3796 12.8714 35.1797 14.0335 31.981 15.3417C31.7931 15.4178 31.6408 15.3257 31.6408 15.1329C31.6408 13.0078 31.6408 10.8839 31.6408 8.75887C31.6408 8.56724 31.7931 8.33754 31.981 8.24787C35.1797 6.72469 38.3784 5.34646 41.5782 4.60576ZM34.0975 4.82318C34.0975 4.62664 34.2498 4.39448 34.4377 4.30604C35.0753 4.00754 35.7128 3.71888 36.3503 3.44495C36.5383 3.36388 36.6906 3.46338 36.6906 3.66606C36.6906 4.01614 36.6906 4.36623 36.6906 4.71631C36.6906 4.91776 36.5383 5.14256 36.3503 5.21994C35.7128 5.48281 35.0753 5.76042 34.4377 6.04909C34.2498 6.13385 34.0975 6.04418 34.0975 5.84764C34.0975 5.50615 34.0975 5.16467 34.0975 4.82318ZM30.8669 6.41392C30.8669 6.22352 31.0192 5.99013 31.2071 5.89432C31.8447 5.57003 32.4822 5.24942 33.1197 4.93742C33.3077 4.84529 33.46 4.93005 33.46 5.12659C33.46 5.46685 33.46 5.80587 33.46 6.14613C33.46 6.34144 33.3077 6.57237 33.1197 6.66082C32.4822 6.963 31.8447 7.27254 31.2071 7.58578C31.0192 7.67791 30.8669 7.59806 30.8669 7.40766C30.8669 7.07601 30.8669 6.74557 30.8669 6.41392ZM33.46 17.1769C33.46 17.3722 33.3077 17.5871 33.1197 17.6559C32.4822 17.8918 31.8447 18.135 31.2071 18.3831C31.0192 18.4556 30.8669 18.361 30.8669 18.1694C30.8669 17.8377 30.8669 17.5061 30.8669 17.1756C30.8669 16.9852 31.0192 16.7678 31.2071 16.6917C31.8447 16.4337 32.4822 16.1794 33.1197 15.9338C33.3077 15.8613 33.46 15.962 33.46 16.1573C33.46 16.4976 33.46 16.8378 33.46 17.1769ZM36.6893 16.0812C36.6893 16.2826 36.537 16.4927 36.3491 16.5504C35.7116 16.7482 35.074 16.9595 34.4365 17.1818C34.2486 17.2469 34.0963 17.1412 34.0963 16.9447C34.0963 16.6032 34.0963 16.2617 34.0963 15.9203C34.0963 15.7237 34.2486 15.5075 34.4365 15.4387C35.074 15.2053 35.7116 14.983 36.3491 14.7754C36.537 14.714 36.6893 14.8295 36.6893 15.0309C36.6893 15.3822 36.6893 15.7311 36.6893 16.0812ZM39.9199 15.2496C39.9199 15.4572 39.7676 15.6562 39.5797 15.6967C38.9422 15.833 38.3046 15.9915 37.6671 16.1659C37.4792 16.2175 37.3269 16.0959 37.3269 15.8932C37.3269 15.5407 37.3269 15.1894 37.3269 14.8368C37.3269 14.6341 37.4792 14.4241 37.6671 14.3688C38.3046 14.1833 38.9422 14.0151 39.5797 13.8689C39.7676 13.8259 39.9199 13.961 39.9199 14.1686C39.9199 14.5285 39.9199 14.8884 39.9199 15.2496ZM43.1506 14.7914C43.1506 15.0051 42.9982 15.1881 42.8103 15.2041C42.1728 15.2582 41.5353 15.3392 40.8977 15.4449C40.7098 15.4756 40.5575 15.3343 40.5575 15.1255C40.5575 14.7631 40.5575 14.4008 40.5575 14.0384C40.5575 13.8296 40.7098 13.6306 40.8977 13.5962C41.5353 13.4807 42.1728 13.3886 42.8103 13.3247C42.9982 13.3063 43.1506 13.466 43.1506 13.6797C43.1506 14.0507 43.1506 14.4216 43.1506 14.7914ZM43.1506 2.75829C43.1506 2.97203 42.9982 3.17103 42.8103 3.20665C42.1728 3.3258 41.5353 3.4732 40.8977 3.64518C40.7098 3.69554 40.5575 3.56902 40.5575 3.36142C40.5575 2.99905 40.5575 2.63669 40.5575 2.27432C40.5575 2.06549 40.7098 1.85053 40.8977 1.79771C41.5353 1.61591 42.1728 1.45868 42.8103 1.32847C42.9982 1.29039 43.1506 1.43534 43.1506 1.64785C43.1506 2.01636 43.1506 2.38733 43.1506 2.75829ZM46.3812 14.8233C46.3812 15.0432 46.2288 15.2053 46.0409 15.1894C45.4034 15.1378 44.7659 15.1206 44.1283 15.1341C43.9404 15.1378 43.7881 14.9695 43.7881 14.7558C43.7881 14.3836 43.7881 14.0101 43.7881 13.6379C43.7881 13.423 43.9404 13.2412 44.1283 13.2338C44.7659 13.2105 45.4034 13.2166 46.0409 13.2584C46.2288 13.2707 46.3812 13.4611 46.3812 13.6809C46.3812 14.0617 46.3812 14.4425 46.3812 14.8233ZM49.6118 15.4547C49.6118 15.6807 49.4594 15.8158 49.2715 15.763C48.634 15.5837 47.9965 15.4461 47.3589 15.3454C47.171 15.3159 47.0187 15.1157 47.0187 14.8958C47.0187 14.5125 47.0187 14.1305 47.0187 13.7473C47.0187 13.5274 47.171 13.3665 47.3589 13.3923C47.9965 13.4832 48.634 13.6097 49.2715 13.778C49.4594 13.8271 49.6118 14.0544 49.6118 14.2804C49.6118 14.6722 49.6118 15.0641 49.6118 15.4547ZM52.8424 16.7998C52.8424 17.0319 52.69 17.1363 52.5021 17.0393C51.8646 16.7113 51.2271 16.43 50.5895 16.1929C50.4016 16.1229 50.2493 15.8871 50.2493 15.6598C50.2493 15.2668 50.2493 14.8737 50.2493 14.4806C50.2493 14.2546 50.4016 14.1207 50.5895 14.187C51.2271 14.4143 51.8646 14.6845 52.5021 15.0014C52.69 15.0948 52.8424 15.3626 52.8424 15.5947C52.8424 15.9964 52.8424 16.3981 52.8424 16.7998ZM56.0717 18.9691C56.0717 19.2061 55.9194 19.2737 55.7315 19.1263C55.094 18.6263 54.4564 18.1804 53.8189 17.7849C53.631 17.6682 53.4787 17.3906 53.4787 17.1572C53.4787 16.7543 53.4787 16.3502 53.4787 15.9473C53.4787 15.7151 53.631 15.6132 53.8189 15.7274C54.4564 16.1131 55.094 16.5479 55.7315 17.0381C55.9194 17.1818 56.0717 17.4962 56.0717 17.7346C56.0717 18.1461 56.0717 18.5576 56.0717 18.9691ZM56.0717 5.59828C56.0717 5.83535 55.9194 5.91888 55.7315 5.79113C55.094 5.35752 54.4564 4.97673 53.8189 4.64752C53.631 4.55048 53.4787 4.28761 53.4787 4.05545C53.4787 3.65255 53.4787 3.24841 53.4787 2.84551C53.4787 2.61335 53.631 2.49665 53.8189 2.59001C54.4564 2.90938 55.094 3.27912 55.7315 3.70291C55.9194 3.82697 56.0717 4.1267 56.0717 4.36377C56.0717 4.77404 56.0717 5.18678 56.0717 5.59828Z" fill="white"/>
<path d="M49.8522 4.88253C48.1558 4.50051 46.7812 6.11459 46.7812 8.08735C46.7812 10.0736 48.1558 11.7663 49.8522 12.2699C51.5485 12.7625 52.9231 11.8216 52.9231 9.71739C52.9231 7.62056 51.5485 5.25473 49.8522 4.88253ZM51.7402 9.42995C50.841 9.7051 49.9406 10.0589 49.0414 10.4802C48.8928 10.549 48.7073 10.3844 48.7073 10.1793C48.7073 8.94106 48.7073 7.70409 48.7073 6.4659C48.7073 6.26199 48.8928 6.16495 49.0414 6.29516C49.9406 7.085 50.841 7.96942 51.7402 8.95826C51.8888 9.12286 51.8888 9.38573 51.7402 9.42995Z" fill="white"/>
<path d="M36.1666 6.7835C34.4702 7.47998 33.0957 9.55838 33.0957 11.3076C33.0957 13.0641 34.4702 13.924 36.1666 13.3491C37.863 12.7706 39.2375 10.9194 39.2375 9.04615C39.2375 7.17289 37.863 6.08456 36.1666 6.7835ZM38.0546 9.61611C37.1555 10.4698 36.2551 11.3457 35.3559 12.2338C35.2073 12.3799 35.0218 12.3369 35.0218 12.1564C35.0218 11.0582 35.0218 9.95883 35.0218 8.86067C35.0218 8.67887 35.2073 8.48847 35.3559 8.51918C36.2551 8.70221 37.1555 8.92454 38.0546 9.19724C38.2033 9.24269 38.2033 9.47608 38.0546 9.61611Z" fill="white"/>
<path d="M6.06814 32.5842C6.03358 32.2358 5.88527 31.9651 5.62321 31.7721C5.36115 31.5792 5.00549 31.4827 4.55623 31.4827C4.25097 31.4827 3.99323 31.5259 3.783 31.6123C3.57277 31.6958 3.4115 31.8124 3.29919 31.9622C3.18976 32.1119 3.13504 32.2818 3.13504 32.4719C3.12928 32.6303 3.1624 32.7685 3.23439 32.8866C3.30927 33.0047 3.4115 33.1069 3.5411 33.1933C3.67069 33.2768 3.82044 33.3503 3.99035 33.4136C4.16026 33.4741 4.34169 33.5259 4.53464 33.5691L5.32947 33.7592C5.71536 33.8456 6.06958 33.9608 6.39212 34.1048C6.71466 34.2488 6.99401 34.4259 7.23015 34.6361C7.4663 34.8463 7.64917 35.094 7.77876 35.3791C7.91123 35.6642 7.97891 35.9911 7.98179 36.3597C7.97891 36.9011 7.84068 37.3705 7.56709 37.7679C7.29639 38.1624 6.90473 38.4691 6.39212 38.688C5.88239 38.904 5.26755 39.012 4.54759 39.012C3.8334 39.012 3.21136 38.9026 2.68147 38.6837C2.15446 38.4648 1.74264 38.1408 1.44602 37.7117C1.15228 37.2798 0.99821 36.7456 0.983811 36.1091H2.79378C2.81394 36.4057 2.89889 36.6534 3.04865 36.8521C3.20128 37.048 3.4043 37.1963 3.65773 37.2971C3.91403 37.395 4.20346 37.4439 4.526 37.4439C4.84278 37.4439 5.1178 37.3978 5.35107 37.3057C5.58721 37.2135 5.77008 37.0854 5.89967 36.9212C6.02926 36.7571 6.09406 36.5685 6.09406 36.3554C6.09406 36.1566 6.03502 35.9896 5.91695 35.8543C5.80176 35.7189 5.63185 35.6037 5.40722 35.5087C5.18548 35.4136 4.91333 35.3273 4.59079 35.2495L3.62749 35.0076C2.88162 34.8262 2.29269 34.5425 1.86072 34.1566C1.42874 33.7707 1.2142 33.2509 1.21708 32.5972C1.2142 32.0615 1.35675 31.5936 1.64473 31.1933C1.93559 30.793 2.33445 30.4805 2.8413 30.2559C3.34815 30.0313 3.92411 29.9189 4.56919 29.9189C5.22579 29.9189 5.79888 30.0313 6.28845 30.2559C6.7809 30.4805 7.16392 30.793 7.4375 31.1933C7.71108 31.5936 7.85219 32.0572 7.86083 32.5842H6.06814ZM9.36155 38.8867V30.0399H11.232V33.6901H15.029V30.0399H16.8952V38.8867H15.029V35.2322H11.232V38.8867H9.36155ZM18.0406 30.0399H20.1357L22.153 33.8499H22.2394L24.2567 30.0399H26.3518L23.1249 35.7592V38.8867H21.2674V35.7592L18.0406 30.0399ZM27.495 30.0399H29.8018L32.2381 35.9839H32.3418L34.7781 30.0399H37.0849V38.8867H35.2706V33.1285H35.1971L32.9077 38.8435H31.6722L29.3828 33.1069H29.3093V38.8867H27.495V30.0399ZM46.8773 34.4633C46.8773 35.428 46.6944 36.2488 46.3287 36.9256C45.9658 37.6023 45.4705 38.1192 44.8427 38.4763C44.2178 38.8306 43.5151 39.0077 42.7347 39.0077C41.9485 39.0077 41.2429 38.8291 40.618 38.472C39.9931 38.1149 39.4992 37.598 39.1363 36.9212C38.7735 36.2445 38.5921 35.4252 38.5921 34.4633C38.5921 33.4986 38.7735 32.6778 39.1363 32.0011C39.4992 31.3243 39.9931 30.8088 40.618 30.4546C41.2429 30.0975 41.9485 29.9189 42.7347 29.9189C43.5151 29.9189 44.2178 30.0975 44.8427 30.4546C45.4705 30.8088 45.9658 31.3243 46.3287 32.0011C46.6944 32.6778 46.8773 33.4986 46.8773 34.4633ZM44.9809 34.4633C44.9809 33.8384 44.8874 33.3114 44.7002 32.8823C44.5159 32.4532 44.2552 32.1278 43.9183 31.906C43.5814 31.6843 43.1868 31.5734 42.7347 31.5734C42.2826 31.5734 41.888 31.6843 41.5511 31.906C41.2141 32.1278 40.9521 32.4532 40.7649 32.8823C40.5806 33.3114 40.4884 33.8384 40.4884 34.4633C40.4884 35.0882 40.5806 35.6152 40.7649 36.0443C40.9521 36.4734 41.2141 36.7988 41.5511 37.0206C41.888 37.2423 42.2826 37.3532 42.7347 37.3532C43.1868 37.3532 43.5814 37.2423 43.9183 37.0206C44.2552 36.7988 44.5159 36.4734 44.7002 36.0443C44.8874 35.6152 44.9809 35.0882 44.9809 34.4633ZM48.3845 38.8867V30.0399H50.255V37.3446H54.0477V38.8867H48.3845ZM57.2785 30.0399V38.8867H55.408V30.0399H57.2785ZM69.6818 33.1371H67.7898C67.7552 32.8924 67.6847 32.6749 67.5781 32.4849C67.4715 32.2919 67.3348 32.1278 67.1677 31.9924C67.0007 31.8571 66.8077 31.7534 66.5889 31.6814C66.3729 31.6094 66.1382 31.5734 65.8848 31.5734C65.4269 31.5734 65.028 31.6872 64.6882 31.9147C64.3484 32.1393 64.0849 32.4676 63.8977 32.8996C63.7105 33.3287 63.6169 33.8499 63.6169 34.4633C63.6169 35.094 63.7105 35.6239 63.8977 36.053C64.0878 36.4821 64.3527 36.806 64.6925 37.0249C65.0323 37.2438 65.4254 37.3532 65.8718 37.3532C66.1223 37.3532 66.3542 37.3201 66.5673 37.2539C66.7833 37.1876 66.9748 37.0911 67.1418 36.9644C67.3088 36.8348 67.4471 36.6779 67.5565 36.4936C67.6688 36.3093 67.7466 36.099 67.7898 35.8629L69.6818 35.8715C69.6329 36.2776 69.5105 36.6693 69.3146 37.0465C69.1217 37.4209 68.8611 37.7564 68.5328 38.053C68.2073 38.3468 67.8186 38.58 67.3664 38.7528C66.9172 38.9227 66.4089 39.0077 65.8416 39.0077C65.0525 39.0077 64.3469 38.8291 63.7249 38.472C63.1057 38.1149 62.6162 37.598 62.2562 36.9212C61.8991 36.2445 61.7205 35.4252 61.7205 34.4633C61.7205 33.4986 61.902 32.6778 62.2648 32.0011C62.6277 31.3243 63.1201 30.8088 63.7422 30.4546C64.3642 30.0975 65.064 29.9189 65.8416 29.9189C66.3542 29.9189 66.8293 29.9909 67.2671 30.1349C67.7077 30.2789 68.0979 30.4891 68.4377 30.7656C68.7775 31.0392 69.054 31.3747 69.2671 31.7721C69.4831 32.1695 69.6213 32.6245 69.6818 33.1371ZM73.0152 30.0399V38.8867H71.1447V30.0399H73.0152ZM82.0754 30.0399V38.8867H80.4599L76.611 33.3186H76.5462V38.8867H74.6757V30.0399H76.3172L80.1359 35.6037H80.2136V30.0399H82.0754ZM83.7425 38.8867V30.0399H89.7037V31.582H85.6129V33.6901H89.397V35.2322H85.6129V37.3446H89.721V38.8867H83.7425ZM91.3124 30.0399H93.6192L96.0555 35.9839H96.1592L98.5955 30.0399H100.902V38.8867H99.088V33.1285H99.0145L96.7251 38.8435H95.4896L93.2001 33.1069H93.1267V38.8867H91.3124V30.0399ZM104.09 38.8867H102.085L105.14 30.0399H107.55L110.6 38.8867H108.595L106.379 32.0615H106.31L104.09 38.8867ZM103.965 35.4093H108.699V36.8694H103.965V35.4093Z" fill="white"/>
</svg>
