<svg width="25" height="25" viewBox="0 0 25 25" fill="none" xmlns="http://www.w3.org/2000/svg">
<g clip-path="url(#clip0_1095_38988)">
<path d="M9.2122 23.5329C7.76388 23.1832 6.46835 22.5055 5.30407 21.6027C1.87027 18.9404 0.252272 15.4017 0.530688 11.0811C0.885973 5.55586 5.20376 0.95122 10.7027 0.137533C13.0013 -0.202753 15.238 0.0737881 17.3659 1.05527C17.4053 1.27369 17.6031 1.33369 17.7559 1.42368C19.1855 2.26737 20.3732 3.37541 21.3144 4.73749C22.8743 6.99575 23.6073 9.4818 23.4723 12.2482C23.3889 13.9477 22.9971 15.5516 22.2312 17.0412C20.8316 19.7607 18.6999 21.7293 15.8323 22.8336C14.039 23.5245 12.1754 23.7879 10.2452 23.5582C9.91621 23.5188 9.55905 23.2957 9.2122 23.5329ZM12.4819 22.1924C13.0772 22.2346 13.6612 22.1399 14.2443 22.0396C18.863 21.2475 22.4618 17.3468 22.6774 12.4178C22.7936 9.77241 21.9556 7.40822 20.2335 5.39087C19.1461 4.11785 17.8356 3.12699 16.2373 2.55797C14.8302 1.9702 13.3659 1.77709 11.8482 1.86709C9.41281 2.01145 7.30454 2.92638 5.53936 4.5875C3.40953 6.59078 2.35211 9.08434 2.3193 12.01C2.30711 13.9449 2.79832 15.7494 3.84449 17.3712C5.86371 20.4975 8.76036 22.0939 12.4819 22.1924Z" fill="#899DAA"/>
<path d="M9.21484 23.5337C9.56075 23.2966 9.91885 23.5197 10.2479 23.5581C12.178 23.7878 14.0407 23.5244 15.835 22.8335C18.7025 21.7292 20.8352 19.7606 22.2338 17.0411C23.0006 15.5515 23.3925 13.9476 23.475 12.2481C23.61 9.48171 22.8769 6.99565 21.317 4.73739C20.3758 3.37531 19.1891 2.26821 17.7586 1.42358C17.6048 1.33265 17.407 1.2736 17.3686 1.05518C20.8492 2.64318 23.1281 5.28953 24.0974 8.97456C25.9085 15.8571 21.437 22.691 14.3923 23.8647C12.6543 24.1543 10.9135 24.0821 9.21484 23.5337Z" fill="#748E9B"/>
<path d="M2.32031 12.0102C2.35312 9.08447 3.41054 6.59185 5.54037 4.58763C7.30649 2.92651 9.41382 2.01158 11.8493 1.86722C13.366 1.77723 14.8312 1.97034 16.2383 2.5581C16.2852 2.7709 16.4773 2.83746 16.6339 2.9237C18.0372 3.69895 19.1612 4.77699 20.0396 6.10626C20.9985 7.5574 21.5291 9.14915 21.696 10.8956C21.8272 12.2727 21.6622 13.5991 21.2479 14.8825C20.468 17.2982 18.9428 19.174 16.7745 20.4826C15.4733 21.2682 14.0494 21.7669 12.5083 21.8466C12.5036 19.7224 12.4989 17.5982 12.4933 15.474C13.4644 15.3868 14.1863 14.9349 14.5162 13.9966C14.834 13.092 14.5809 12.2998 13.8713 11.6774C13.5835 11.4252 13.7954 11.2818 13.9078 11.0962C14.3391 10.3875 14.205 9.49787 13.5872 8.97666C12.9423 8.43295 12.048 8.43202 11.4021 8.97479C10.7853 9.49319 10.6222 10.4062 11.0881 11.0849C11.3102 11.4093 11.2699 11.5949 10.9784 11.7983C10.8903 11.8602 10.819 11.9464 10.7403 12.0214C7.93363 12.0177 5.12697 12.0139 2.32031 12.0102ZM12.122 5.39101C12.122 5.95346 12.1249 6.51498 12.1211 7.07744C12.1192 7.34085 12.1924 7.57052 12.4876 7.57521C12.7829 7.5799 12.8664 7.35491 12.8654 7.08962C12.8636 5.96565 12.8636 4.84074 12.8654 3.71676C12.8664 3.45428 12.797 3.22461 12.4998 3.21993C12.2017 3.21524 12.1211 3.43928 12.122 3.70457C12.1239 4.26609 12.122 4.82855 12.122 5.39101ZM19.1124 12.3795C19.6721 12.3795 20.2317 12.3776 20.7904 12.3805C21.0529 12.3823 21.2779 12.3073 21.2807 12.012C21.2835 11.7158 21.0604 11.6371 20.797 11.6371C19.6777 11.639 18.5594 11.6399 17.4401 11.6361C17.1617 11.6352 16.9132 11.7036 16.9254 12.028C16.9367 12.3195 17.1738 12.3833 17.4326 12.3814C17.9941 12.3767 18.5537 12.3795 19.1124 12.3795ZM19.1546 16.2042C19.328 16.1283 19.4349 16.0008 19.4255 15.7833C19.4162 15.5696 19.3037 15.4768 19.0974 15.4768C18.8584 15.4768 18.7656 15.6033 18.7712 15.8311C18.7778 16.0702 18.9437 16.1395 19.1546 16.2042ZM8.69107 5.72848C8.92449 5.73317 9.02948 5.61599 9.02385 5.38538C9.01823 5.17446 8.90949 5.07884 8.70325 5.07603C8.4689 5.07322 8.36484 5.1904 8.37047 5.41913C8.37609 5.63099 8.48483 5.72942 8.69107 5.72848ZM16.6142 5.39569C16.6133 5.18946 16.5158 5.08072 16.3048 5.07603C16.0752 5.07041 15.9589 5.1754 15.9617 5.40882C15.9646 5.64786 16.0939 5.73692 16.3189 5.72754C16.5336 5.71911 16.6179 5.59724 16.6142 5.39569ZM5.89753 7.88737C5.69786 7.88362 5.57225 7.9633 5.56193 8.17985C5.55162 8.40202 5.63599 8.53701 5.87691 8.54076C6.10939 8.54451 6.21813 8.43202 6.21345 8.20141C6.2097 7.99049 6.1047 7.88831 5.89753 7.88737ZM19.0815 8.53888C19.3121 8.54826 19.4274 8.43952 19.4246 8.20704C19.4227 8.0008 19.3262 7.89112 19.1153 7.88737C18.9165 7.88362 18.7853 7.95487 18.7731 8.17329C18.7618 8.39171 18.8387 8.53513 19.0815 8.53888ZM16.2711 18.2881C16.063 18.2928 15.9636 18.4006 15.9617 18.6078C15.9589 18.8412 16.0761 18.9462 16.3048 18.9406C16.5486 18.9349 16.6254 18.7943 16.6133 18.575C16.6011 18.3575 16.4708 18.2825 16.2711 18.2881Z" fill="#F8F5F5"/>
<path d="M2.32053 12.0093C5.12719 12.013 7.93385 12.0168 10.7396 12.0205C10.4846 12.5258 10.2587 13.0386 10.3712 13.6282C10.5755 14.6997 11.2139 15.2546 12.4926 15.4721C12.4972 17.5963 12.5019 19.7205 12.5076 21.8448C12.4991 21.9601 12.4907 22.0754 12.4822 22.1916C8.76066 22.0932 5.86401 20.4967 3.84573 17.3695C2.79956 15.7487 2.30835 13.9441 2.32053 12.0093ZM6.21461 15.8996C6.21367 15.5696 6.09087 15.4693 5.86401 15.4768C5.65309 15.4834 5.55653 15.5977 5.55934 15.8002C5.56216 16.0299 5.66809 16.2099 5.90713 16.1968C6.11618 16.1855 6.21367 16.013 6.21461 15.8996ZM9.02408 18.6191C9.02782 18.3866 8.90877 18.2807 8.68191 18.2863C8.46912 18.2919 8.30601 18.4007 8.30226 18.6088C8.29851 18.8187 8.45974 18.9303 8.6716 18.9406C8.89377 18.9509 9.02408 18.8553 9.02408 18.6191Z" fill="#FED150"/>
<path d="M12.4844 22.1915C12.4928 22.0762 12.5012 21.9609 12.5097 21.8447C14.0518 21.765 15.4748 21.2663 16.7769 20.4807C18.9451 19.172 20.4703 17.2963 21.2503 14.8805C21.6646 13.5972 21.8305 12.2716 21.6983 10.8936C21.5315 9.1472 21.0009 7.55545 20.0419 6.10431C19.1635 4.77504 18.0396 3.697 16.6362 2.92175C16.4806 2.83551 16.2885 2.76895 16.2406 2.55615C17.839 3.12517 19.1495 4.11603 20.2369 5.38906C21.9589 7.4064 22.7961 9.77059 22.6808 12.416C22.4652 17.345 18.8664 21.2466 14.2477 22.0378C13.6637 22.139 13.0796 22.2346 12.4844 22.1915Z" fill="#EAEAEA"/>
<path d="M12.4909 15.4726C11.2122 15.2551 10.5739 14.7002 10.3695 13.6287C10.257 13.039 10.4829 12.5263 10.7379 12.021C10.8167 11.946 10.8879 11.8588 10.976 11.7979C11.2676 11.5945 11.3079 11.4089 11.0857 11.0845C10.6198 10.4049 10.7829 9.49182 11.3997 8.97436C12.0456 8.43159 12.9409 8.43253 13.5849 8.97624C14.2026 9.49745 14.3367 10.3861 13.9055 11.0958C13.793 11.2814 13.5811 11.4248 13.8689 11.677C14.5785 12.2994 14.8317 13.0915 14.5139 13.9962C14.1839 14.9336 13.4611 15.3854 12.4909 15.4726ZM12.0372 11.9929C11.3332 12.2507 10.9704 12.8562 11.0969 13.5631C11.216 14.2305 11.7635 14.6786 12.4909 14.7049C13.1358 14.688 13.5849 14.3833 13.8099 13.7777C14.0067 13.2472 13.9027 12.7559 13.5211 12.3482C13.1143 11.9113 12.6099 11.7857 12.0372 11.9929ZM12.4984 9.2959C12.0166 9.29121 11.5657 9.73087 11.5572 10.2136C11.5478 10.7105 11.9613 11.1454 12.46 11.1633C12.9737 11.182 13.4246 10.7452 13.4246 10.2296C13.4236 9.7468 12.9812 9.30059 12.4984 9.2959Z" fill="#8B9FAA"/>
<path d="M12.123 5.39137C12.123 4.82891 12.1249 4.26739 12.1221 3.70494C12.1211 3.43964 12.2017 3.2156 12.4998 3.22029C12.798 3.22497 12.8664 3.45464 12.8654 3.71712C12.8626 4.8411 12.8636 5.96601 12.8654 7.08998C12.8654 7.35528 12.783 7.58026 12.4877 7.57557C12.1924 7.57088 12.1193 7.34122 12.1211 7.0778C12.1258 6.51534 12.123 5.95289 12.123 5.39137Z" fill="#8CA0AC"/>
<path d="M19.1114 12.3796C18.5517 12.3796 17.9921 12.3759 17.4334 12.3815C17.1737 12.3834 16.9365 12.3196 16.9262 12.0281C16.914 11.7037 17.1615 11.6353 17.4409 11.6362C18.5601 11.6391 19.6785 11.6391 20.7978 11.6372C21.0612 11.6372 21.2843 11.7159 21.2815 12.0121C21.2787 12.3074 21.0528 12.3824 20.7912 12.3806C20.2306 12.3777 19.671 12.3796 19.1114 12.3796Z" fill="#8CA0AC"/>
<path d="M19.1522 16.2055C18.9413 16.1408 18.7745 16.0714 18.7698 15.8324C18.7641 15.6046 18.8579 15.478 19.096 15.478C19.3022 15.478 19.4147 15.5708 19.4241 15.7846C19.4335 16.002 19.3257 16.1295 19.1522 16.2055Z" fill="#E3E3E3"/>
<path d="M8.69097 5.72822C8.48474 5.72822 8.376 5.62979 8.37131 5.41887C8.36569 5.1892 8.46974 5.07202 8.7041 5.07577C8.90939 5.07858 9.01907 5.1742 9.0247 5.38512C9.02938 5.61573 8.92439 5.73291 8.69097 5.72822Z" fill="#E3E3E3"/>
<path d="M16.6144 5.39556C16.6172 5.59711 16.5338 5.71897 16.3181 5.72741C16.0941 5.73678 15.9638 5.64679 15.961 5.40868C15.9582 5.17526 16.0744 5.07027 16.3041 5.0759C16.5159 5.08058 16.6144 5.19026 16.6144 5.39556Z" fill="#E3E3E3"/>
<path d="M5.89893 7.88636C6.1061 7.88729 6.21109 7.99041 6.21484 8.19946C6.21859 8.43006 6.10985 8.54256 5.87831 8.53881C5.63739 8.53506 5.55302 8.40007 5.56333 8.1779C5.57271 7.96229 5.69832 7.88261 5.89893 7.88636Z" fill="#E3E3E3"/>
<path d="M19.0821 8.53882C18.8393 8.53413 18.7625 8.39164 18.7747 8.17228C18.7869 7.9548 18.9181 7.88262 19.1168 7.88637C19.3277 7.89012 19.4243 7.9998 19.4262 8.20603C19.4281 8.43945 19.3127 8.54819 19.0821 8.53882Z" fill="#E3E3E3"/>
<path d="M16.2713 18.2889C16.47 18.2832 16.6003 18.3582 16.6125 18.5757C16.6247 18.7951 16.5478 18.9357 16.3041 18.9413C16.0744 18.9469 15.9582 18.8419 15.961 18.6085C15.9629 18.4014 16.0622 18.2936 16.2713 18.2889Z" fill="#E3E3E3"/>
<path d="M6.21298 15.9012C6.2111 16.0146 6.11455 16.1871 5.90644 16.1984C5.66646 16.2115 5.56147 16.0315 5.55865 15.8018C5.55584 15.5993 5.6524 15.485 5.86332 15.4784C6.08924 15.4709 6.21204 15.5712 6.21298 15.9012Z" fill="#FEB424"/>
<path d="M9.02266 18.6196C9.02266 18.8559 8.89236 18.9515 8.67019 18.9412C8.4574 18.9308 8.2971 18.8193 8.30085 18.6093C8.3046 18.4012 8.46771 18.2934 8.6805 18.2868C8.90736 18.2812 9.02641 18.3871 9.02266 18.6196Z" fill="#FEB424"/>
<path d="M12.0391 11.9928C12.6118 11.7847 13.1162 11.9113 13.5239 12.3481C13.9055 12.7568 14.0095 13.248 13.8127 13.7777C13.5877 14.3833 13.1377 14.687 12.4937 14.7048C12.4937 13.9577 12.4712 13.2105 12.5022 12.4653C12.5162 12.0959 12.3943 11.9544 12.0391 11.9928Z" fill="#F6F3F4"/>
<path d="M12.0351 11.9932C12.3904 11.9538 12.5123 12.0954 12.4973 12.4647C12.4673 13.21 12.4888 13.958 12.4888 14.7042C11.7614 14.678 11.2139 14.2299 11.0949 13.5624C10.9693 12.8575 11.332 12.251 12.0351 11.9932Z" fill="#FCD051"/>
<path d="M12.4999 9.29642C12.9827 9.30111 13.4261 9.74733 13.4261 10.2301C13.4261 10.7457 12.9752 11.1825 12.4615 11.1638C11.9637 11.146 11.5503 10.711 11.5587 10.2142C11.5672 9.73139 12.0181 9.29174 12.4999 9.29642Z" fill="#F5F3F3"/>
</g>
<defs>
<clipPath id="clip0_1095_38988">
<rect width="24" height="24.0328" fill="white" transform="translate(0.5)"/>
</clipPath>
</defs>
</svg>
